<svg enable-background="new 0 0 512 512" height="512" viewBox="0 0 512 512" width="512" xmlns="http://www.w3.org/2000/svg"><g id="_x39_8_x2C__7z_x2C__file_type_x2C__file_format_x2C__file_extension_x2C__document"><g id="XMLID_2198_"><g id="XMLID_2206_"><path id="XMLID_12787_" d="m386 16h-20-210c-22.056 0-40 17.944-40 40v120l-10 30 10 30v220c0 22.056 17.944 40 40 40h280c22.056 0 40-17.944 40-40v-330-20l-70-20z" fill="#fff5f5"/><path id="XMLID_12786_" d="m386 106h90l-90-90z" fill="#ece6f2"/><g id="XMLID_2223_"><g id="XMLID_1356_"><path id="XMLID_1357_" d="m256 106h-80c-5.523 0-10-4.477-10-10s4.477-10 10-10h80c5.523 0 10 4.477 10 10s-4.477 10-10 10z" fill="#d3cbe4"/></g></g><g id="XMLID_2218_"><g id="XMLID_1353_"><path id="XMLID_1354_" d="m336 146h-160c-5.523 0-10-4.477-10-10s4.477-10 10-10h160c5.522 0 10 4.477 10 10s-4.478 10-10 10z" fill="#d3cbe4"/></g></g><g id="XMLID_2213_"><g id="XMLID_1350_"><path id="XMLID_1351_" d="m336 186h-160c-5.523 0-10-4.477-10-10s4.477-10 10-10h160c5.522 0 10 4.477 10 10s-4.478 10-10 10z" fill="#d3cbe4"/></g></g><path id="XMLID_12782_" d="m391 236h-275l-80-30v165.667c0 29.959 24.374 54.333 54.334 54.333h300.667c19.299 0 35-15.701 35-35v-120c-.001-19.299-15.702-35-35.001-35z" fill="#4e4e88"/><path id="XMLID_12781_" d="m116 236h-50c-16.569 0-30-13.431-30-30 0-16.569 13.431-30 30-30h50z" fill="#363671"/></g><g id="XMLID_2201_" fill="#fbf3f3"><path id="XMLID_12723_" d="m316 365.997h-41.315l49.635-74.453c2.046-3.068 2.236-7.014.496-10.266-1.74-3.251-5.129-5.281-8.816-5.281h-60c-5.523 0-10 4.478-10 10s4.477 10 10 10h41.314l-49.634 74.453c-4.421 6.63.339 15.547 8.32 15.547h60c5.522 0 10-4.478 10-10s-4.478-10-10-10z"/><path id="XMLID_12722_" d="m216 275.997h-60c-5.523 0-10 4.478-10 10s4.477 10 10 10h46.126l-25.613 76.838c-2.165 6.496 2.697 13.165 9.488 13.165 4.187 0 8.089-2.65 9.485-6.841l30-90c1.017-3.05.505-6.401-1.375-9.009-1.878-2.608-4.897-4.153-8.111-4.153z"/></g></g></g></svg>