<svg enable-background="new 0 0 512 512" height="512" viewBox="0 0 512 512" width="512" xmlns="http://www.w3.org/2000/svg"><g id="_x31_34_x2C__ai_x2C__file_type_x2C__file_format_x2C__file_extension_x2C__document"><g id="XMLID_2198_"><g id="XMLID_2218_"><path id="XMLID_17373_" d="m386 16h-20-210c-22.056 0-40 17.944-40 40v120l-10 30 10 30v220c0 22.056 17.944 40 40 40h280c22.056 0 40-17.944 40-40v-330-20l-70-20z" fill="#fbf3f3"/><path id="XMLID_17372_" d="m386 106h90l-90-90z" fill="#ece6f2"/><g id="XMLID_2235_"><g id="XMLID_1866_"><path id="XMLID_1867_" d="m256 106h-80c-5.523 0-10-4.477-10-10s4.477-10 10-10h80c5.523 0 10 4.477 10 10s-4.477 10-10 10z" fill="#d3cbe4"/></g></g><g id="XMLID_2230_"><g id="XMLID_1863_"><path id="XMLID_1864_" d="m336 146h-160c-5.523 0-10-4.477-10-10s4.477-10 10-10h160c5.522 0 10 4.477 10 10s-4.478 10-10 10z" fill="#d3cbe4"/></g></g><g id="XMLID_2225_"><g id="XMLID_1860_"><path id="XMLID_1861_" d="m336 186h-160c-5.523 0-10-4.477-10-10s4.477-10 10-10h160c5.522 0 10 4.477 10 10s-4.478 10-10 10z" fill="#d3cbe4"/></g></g><path id="XMLID_17368_" d="m391 236h-275l-80-30v165.667c0 29.959 24.374 54.333 54.334 54.333h300.667c19.299 0 35-15.701 35-35v-120c-.001-19.299-15.702-35-35.001-35z" fill="#b35324"/><path id="XMLID_17367_" d="m116 236h-50c-16.569 0-30-13.431-30-30 0-16.569 13.431-30 30-30h50z" fill="#883f2e"/></g><g id="XMLID_2201_"><g id="XMLID_2333_"><g id="XMLID_2352_"><path id="XMLID_2353_" d="m276 386c-5.523 0-10-4.478-10-10v-90c0-5.522 4.477-10 10-10 5.522 0 10 4.478 10 10v90c0 5.522-4.478 10-10 10z" fill="#fbf3f3"/></g><g id="XMLID_2336_"><path id="XMLID_2337_" d="m236 386c-5.523 0-10-4.478-10-10v-60c0-11.028-8.972-20-20-20s-20 8.972-20 20v60c0 5.522-4.477 10-10 10s-10-4.478-10-10v-60c0-22.056 17.944-40 40-40s40 17.944 40 40v60c0 5.522-4.477 10-10 10z" fill="#fbf3f3"/></g><g id="XMLID_2334_"><path id="XMLID_2335_" d="m236 356h-60c-5.523 0-10-4.478-10-10s4.477-10 10-10h60c5.523 0 10 4.478 10 10s-4.477 10-10 10z" fill="#fbf3f3"/></g></g></g></g></g></svg>