<svg enable-background="new 0 0 512 512" height="512" viewBox="0 0 512 512" width="512" xmlns="http://www.w3.org/2000/svg"><g id="_x38_7_x2C__asp_x2C__file_type_x2C__file_format_x2C__file_extension_x2C__document"><g id="XMLID_2198_"><g id="XMLID_2211_"><path id="XMLID_11357_" d="m386 16h-20-210c-22.056 0-40 17.944-40 40v120l-10 30 10 30v220c0 22.056 17.944 40 40 40h280c22.056 0 40-17.944 40-40v-330-20l-70-20z" fill="#fff5f5"/><path id="XMLID_11356_" d="m386 106h90l-90-90z" fill="#ece6f2"/><g id="XMLID_2228_"><g id="XMLID_1210_"><path id="XMLID_1211_" d="m256 106h-80c-5.523 0-10-4.477-10-10s4.477-10 10-10h80c5.523 0 10 4.477 10 10s-4.477 10-10 10z" fill="#d3cbe4"/></g></g><g id="XMLID_2223_"><g id="XMLID_1207_"><path id="XMLID_1208_" d="m336 146h-160c-5.523 0-10-4.477-10-10s4.477-10 10-10h160c5.522 0 10 4.477 10 10s-4.478 10-10 10z" fill="#d3cbe4"/></g></g><g id="XMLID_2218_"><g id="XMLID_1201_"><path id="XMLID_1202_" d="m336 186h-160c-5.523 0-10-4.477-10-10s4.477-10 10-10h160c5.522 0 10 4.477 10 10s-4.478 10-10 10z" fill="#d3cbe4"/></g></g><path id="XMLID_11352_" d="m391 236h-275l-80-30v165.667c0 29.959 24.374 54.333 54.334 54.333h300.667c19.299 0 35-15.701 35-35v-120c-.001-19.299-15.702-35-35.001-35z" fill="#80aaff"/><path id="XMLID_11351_" d="m116 236h-50c-16.569 0-30-13.431-30-30 0-16.569 13.431-30 30-30h50z" fill="#6680ff"/></g><g id="XMLID_2201_" fill="#fbf3f3"><path id="XMLID_2208_" d="m146 275.997c-22.056 0-40 17.944-40 40v60c0 5.522 4.477 10 10 10s10-4.478 10-10v-20h40v20c0 5.522 4.477 10 10 10s10-4.478 10-10v-60c0-22.056-17.944-40-40-40zm-20 60v-20c0-11.028 8.972-20 20-20s20 8.972 20 20v20z"/><path id="XMLID_2205_" d="m351 275.997h-35c-5.523 0-10 4.478-10 10v50 40c0 5.522 4.477 10 10 10 5.522 0 10-4.478 10-10v-30h25c19.299 0 35-15.701 35-35s-15.701-35-35-35zm0 50h-25v-30h25c8.271 0 15 6.728 15 15s-6.729 15-15 15z"/><path id="XMLID_11275_" d="m238.5 295.997h37.5c5.522 0 10-4.478 10-10s-4.478-10-10-10h-37.5c-17.92 0-32.5 14.579-32.5 32.5s14.58 32.5 32.5 32.5h15c6.893 0 12.5 5.607 12.5 12.5 0 6.892-5.607 12.5-12.5 12.5h-37.5c-5.523 0-10 4.478-10 10s4.477 10 10 10h37.5c17.92 0 32.5-14.579 32.5-32.5s-14.58-32.5-32.5-32.5h-15c-6.893 0-12.5-5.608-12.5-12.5 0-6.893 5.607-12.5 12.5-12.5z"/></g></g></g></svg>