<svg enable-background="new 0 0 512 512" height="512" viewBox="0 0 512 512" width="512" xmlns="http://www.w3.org/2000/svg"><g id="_x31_18_x2C__avi_x2C__file_type_x2C__file_format_x2C__file_extension_x2C__document"><g id="XMLID_2198_"><g id="XMLID_2209_"><path id="XMLID_15411_" d="m386 16h-20-210c-22.056 0-40 17.944-40 40v120l-10 30 10 30v220c0 22.056 17.944 40 40 40h280c22.056 0 40-17.944 40-40v-330-20l-70-20z" fill="#fff5f5"/><path id="XMLID_15410_" d="m386 106h90l-90-90z" fill="#ece6f2"/><g id="XMLID_2226_"><g id="XMLID_1638_"><path id="XMLID_1639_" d="m256 106h-80c-5.523 0-10-4.477-10-10s4.477-10 10-10h80c5.523 0 10 4.477 10 10s-4.477 10-10 10z" fill="#d3cbe4"/></g></g><g id="XMLID_2221_"><g id="XMLID_1635_"><path id="XMLID_1636_" d="m336 146h-160c-5.523 0-10-4.477-10-10s4.477-10 10-10h160c5.522 0 10 4.477 10 10s-4.478 10-10 10z" fill="#d3cbe4"/></g></g><g id="XMLID_2216_"><g id="XMLID_1632_"><path id="XMLID_1633_" d="m336 186h-160c-5.523 0-10-4.477-10-10s4.477-10 10-10h160c5.522 0 10 4.477 10 10s-4.478 10-10 10z" fill="#d3cbe4"/></g></g><path id="XMLID_15406_" d="m391 236h-275l-80-30v165.667c0 29.959 24.374 54.333 54.334 54.333h300.667c19.299 0 35-15.701 35-35v-120c-.001-19.299-15.702-35-35.001-35z" fill="#4e4e88"/><path id="XMLID_15405_" d="m116 236h-50c-16.569 0-30-13.431-30-30 0-16.569 13.431-30 30-30h50z" fill="#363671"/></g><g id="XMLID_2201_" fill="#fbf3f3"><path id="XMLID_2206_" d="m136 275.997c-22.056 0-40 17.944-40 40v60c0 5.522 4.477 10 10 10s10-4.478 10-10v-20h40v20c0 5.522 4.477 10 10 10s10-4.478 10-10v-60c0-22.056-17.944-40-40-40zm-20 60v-20c0-11.028 8.972-20 20-20s20 8.972 20 20v20z"/><path id="XMLID_15337_" d="m290.061 276.859c-5.05-2.244-10.957.03-13.199 5.076l-30.862 69.44-30.862-69.44c-2.242-5.046-8.154-7.321-13.2-5.076-5.047 2.242-7.32 8.152-5.077 13.199l40 90c1.605 3.611 5.186 5.939 9.138 5.939s7.533-2.327 9.138-5.939l39.999-90c2.245-5.046-.028-10.956-5.075-13.199z"/><path id="XMLID_15336_" d="m326 275.997c-5.523 0-10 4.478-10 10v90c0 5.522 4.477 10 10 10 5.522 0 10-4.478 10-10v-90c0-5.522-4.478-10-10-10z"/></g></g></g></svg>