<svg enable-background="new 0 0 512 512" height="512" viewBox="0 0 512 512" width="512" xmlns="http://www.w3.org/2000/svg"><g id="_x31_22_x2C__bak_x2C__file_type_x2C__file_format_x2C__file_extension_x2C__document"><g id="XMLID_2198_"><g id="XMLID_2212_"><path id="XMLID_15946_" d="m386 16h-20-210c-22.056 0-40 17.944-40 40v120l-10 30 10 30v220c0 22.056 17.944 40 40 40h280c22.056 0 40-17.944 40-40v-330-20l-70-20z" fill="#fff5f5"/><path id="XMLID_15945_" d="m386 106h90l-90-90z" fill="#ece6f2"/><g id="XMLID_2229_"><g id="XMLID_1693_"><path id="XMLID_1694_" d="m256 106h-80c-5.523 0-10-4.477-10-10s4.477-10 10-10h80c5.523 0 10 4.477 10 10s-4.477 10-10 10z" fill="#d3cbe4"/></g></g><g id="XMLID_2224_"><g id="XMLID_1690_"><path id="XMLID_1691_" d="m336 146h-160c-5.523 0-10-4.477-10-10s4.477-10 10-10h160c5.522 0 10 4.477 10 10s-4.478 10-10 10z" fill="#d3cbe4"/></g></g><g id="XMLID_2219_"><g id="XMLID_1687_"><path id="XMLID_1688_" d="m336 186h-160c-5.523 0-10-4.477-10-10s4.477-10 10-10h160c5.522 0 10 4.477 10 10s-4.478 10-10 10z" fill="#d3cbe4"/></g></g><path id="XMLID_15941_" d="m391 236h-275l-80-30v165.667c0 29.959 24.374 54.333 54.334 54.333h300.667c19.299 0 35-15.701 35-35v-120c-.001-19.299-15.702-35-35.001-35z" fill="#6680ff"/><path id="XMLID_15940_" d="m116 236h-50c-16.569 0-30-13.431-30-30 0-16.569 13.431-30 30-30h50z" fill="#35f"/></g><g id="XMLID_2201_" fill="#fbf3f3"><path id="XMLID_2209_" d="m236 275.997c-22.056 0-40 17.944-40 40v60c0 5.522 4.477 10 10 10s10-4.478 10-10v-20h40v20c0 5.522 4.477 10 10 10s10-4.478 10-10v-60c0-22.056-17.944-40-40-40zm-20 60v-20c0-11.028 8.972-20 20-20s20 8.972 20 20v20z"/><path id="XMLID_2205_" d="m161.113 322.379c12.956-19.792-1.26-46.382-25.113-46.382h-40c-5.523 0-10 4.478-10 10v90c0 5.522 4.477 10 10 10h45c19.299 0 35-15.701 35-35 0-11.817-5.893-22.277-14.887-28.618zm-55.113-26.382h30c5.514 0 10 4.486 10 10s-4.486 10-10 10h-30zm35 70h-35v-30h30 5c8.271 0 15 6.728 15 15s-6.729 15-15 15z"/><path id="XMLID_15875_" d="m335.986 325.634 27.696-33.235c3.535-4.242 2.962-10.548-1.281-14.084-4.242-3.535-10.549-2.963-14.084 1.281l-32.266 38.719c-.017.02-.034.04-.051.06v-32.379c0-5.522-4.478-10-10-10-5.523 0-10 4.478-10 10v59.949 30.051c0 5.522 4.477 10 10 10 5.522 0 10-4.478 10-10v-26.379l6.532-7.838 25.016 39.563c1.903 3.009 5.146 4.656 8.462 4.656 1.827 0 3.676-.5 5.335-1.549 4.668-2.951 6.059-9.129 3.107-13.797z"/></g></g></g></svg>