<svg enable-background="new 0 0 512 512" height="512" viewBox="0 0 512 512" width="512" xmlns="http://www.w3.org/2000/svg"><g id="_x39_3_x2C__cpp_x2C__file_type_x2C__file_format_x2C__file_extension_x2C__document"><g id="XMLID_2198_"><g id="XMLID_2211_"><path id="XMLID_12144_" d="m386 16h-20-210c-22.056 0-40 17.944-40 40v120l-10 30 10 30v220c0 22.056 17.944 40 40 40h280c22.056 0 40-17.944 40-40v-330-20l-70-20z" fill="#fff5f5"/><path id="XMLID_12143_" d="m386 106h90l-90-90z" fill="#ece6f2"/><g id="XMLID_2228_"><g id="XMLID_1291_"><path id="XMLID_1292_" d="m256 106h-80c-5.523 0-10-4.477-10-10s4.477-10 10-10h80c5.523 0 10 4.477 10 10s-4.477 10-10 10z" fill="#d3cbe4"/></g></g><g id="XMLID_2223_"><g id="XMLID_1288_"><path id="XMLID_1289_" d="m336 146h-160c-5.523 0-10-4.477-10-10s4.477-10 10-10h160c5.522 0 10 4.477 10 10s-4.478 10-10 10z" fill="#d3cbe4"/></g></g><g id="XMLID_2218_"><g id="XMLID_1285_"><path id="XMLID_1286_" d="m336 186h-160c-5.523 0-10-4.477-10-10s4.477-10 10-10h160c5.522 0 10 4.477 10 10s-4.478 10-10 10z" fill="#d3cbe4"/></g></g><path id="XMLID_12139_" d="m391 236h-275l-80-30v165.667c0 29.959 24.374 54.333 54.334 54.333h300.667c19.299 0 35-15.701 35-35v-120c-.001-19.299-15.702-35-35.001-35z" fill="#fb3"/><path id="XMLID_12138_" d="m116 236h-50c-16.569 0-30-13.431-30-30 0-16.569 13.431-30 30-30h50z" fill="#ff884d"/></g><g id="XMLID_2201_" fill="#fbf3f3"><path id="XMLID_12064_" d="m151 295.997h5c5.523 0 10-4.478 10-10s-4.477-10-10-10h-5c-30.327 0-55 24.673-55 55s24.673 55 55 55h5c5.523 0 10-4.478 10-10s-4.477-10-10-10h-5c-19.299 0-35-15.701-35-35s15.701-35 35-35z"/><path id="XMLID_2207_" d="m231 275.997h-35c-5.523 0-10 4.478-10 10v50 40c0 5.522 4.477 10 10 10s10-4.478 10-10v-30h25c19.299 0 35-15.701 35-35s-15.701-35-35-35zm0 50h-25v-30h25c8.271 0 15 6.728 15 15s-6.729 15-15 15z"/><path id="XMLID_2204_" d="m331 275.997h-35c-5.523 0-10 4.478-10 10v50 40c0 5.522 4.477 10 10 10 5.522 0 10-4.478 10-10v-30h25c19.299 0 35-15.701 35-35s-15.701-35-35-35zm0 50h-25v-30h25c8.271 0 15 6.728 15 15s-6.729 15-15 15z"/></g></g></g></svg>