<svg enable-background="new 0 0 512 512" height="512" viewBox="0 0 512 512" width="512" xmlns="http://www.w3.org/2000/svg"><g id="_x31_06_x2C__csr_x2C__file_type_x2C__file_format_x2C__file_extension_x2C__document"><g id="XMLID_2198_"><g id="XMLID_2209_"><path id="XMLID_13886_" d="m386 16h-20-210c-22.056 0-40 17.944-40 40v120l-10 30 10 30v220c0 22.056 17.944 40 40 40h280c22.056 0 40-17.944 40-40v-330-20l-70-20z" fill="#fff5f5"/><path id="XMLID_13885_" d="m386 106h90l-90-90z" fill="#ece6f2"/><g id="XMLID_2222_"><g id="XMLID_1459_"><path id="XMLID_1460_" d="m256 106h-80c-5.523 0-10-4.477-10-10s4.477-10 10-10h80c5.523 0 10 4.477 10 10s-4.477 10-10 10z" fill="#d3cbe4"/></g></g><g id="XMLID_2217_"><g id="XMLID_1456_"><path id="XMLID_1457_" d="m336 146h-160c-5.523 0-10-4.477-10-10s4.477-10 10-10h160c5.522 0 10 4.477 10 10s-4.478 10-10 10z" fill="#d3cbe4"/></g></g><g id="XMLID_2212_"><g id="XMLID_1453_"><path id="XMLID_1454_" d="m336 186h-160c-5.523 0-10-4.477-10-10s4.477-10 10-10h160c5.522 0 10 4.477 10 10s-4.478 10-10 10z" fill="#d3cbe4"/></g></g><path id="XMLID_13881_" d="m391 236h-275l-80-30v165.667c0 29.959 24.374 54.333 54.334 54.333h300.667c19.299 0 35-15.701 35-35v-120c-.001-19.299-15.702-35-35.001-35z" fill="#76e7fc"/><path id="XMLID_13880_" d="m116 236h-50c-16.569 0-30-13.431-30-30 0-16.569 13.431-30 30-30h50z" fill="#69cffc"/></g><g id="XMLID_2201_" fill="#fbf3f3"><path id="XMLID_13809_" d="m151.556 295.997h4.444c5.523 0 10-4.478 10-10s-4.477-10-10-10h-4.444c-27.57 0-50 22.43-50 50s22.43 50 50 50h4.444c5.523 0 10-4.478 10-10s-4.477-10-10-10h-4.444c-16.542 0-30-13.458-30-30s13.458-30 30-30z"/><path id="XMLID_2205_" d="m360.472 357.053-23.244-11.622c16.336-2.948 28.772-17.261 28.772-34.434 0-19.299-15.701-35-35-35h-35c-5.523 0-10 4.478-10 10v50 30c0 5.522 4.477 10 10 10 5.522 0 10-4.478 10-10v-13.82l45.528 22.764c1.436.718 2.961 1.058 4.464 1.058 3.668 0 7.2-2.025 8.952-5.53 2.47-4.94.468-10.947-4.472-13.416zm-54.472-61.056h25c8.271 0 15 6.728 15 15 0 8.271-6.729 15-15 15h-25z"/><path id="XMLID_13806_" d="m216 295.997h30c5.523 0 10-4.478 10-10s-4.477-10-10-10h-30c-16.542 0-30 13.458-30 30s13.458 30 30 30h10c5.514 0 10 4.486 10 10s-4.486 10-10 10h-30c-5.523 0-10 4.478-10 10s4.477 10 10 10h30c16.542 0 30-13.458 30-30s-13.458-30-30-30h-10c-5.514 0-10-4.486-10-10s4.486-10 10-10z"/></g></g></g></svg>