<svg enable-background="new 0 0 512 512" height="512" viewBox="0 0 512 512" width="512" xmlns="http://www.w3.org/2000/svg"><g id="_x31_45_x2C__csv_x2C__file_type_x2C__file_format_x2C__file_extension_x2C__document"><g id="XMLID_2198_"><g id="XMLID_2218_"><path id="XMLID_18600_" d="m386 16h-20-210c-22.056 0-40 17.944-40 40v120l-10 30 10 30v220c0 22.056 17.944 40 40 40h280c22.056 0 40-17.944 40-40v-330-20l-70-20z" fill="#fbf3f3"/><path id="XMLID_18599_" d="m386 106h90l-90-90z" fill="#ece6f2"/><g id="XMLID_2235_"><g id="XMLID_2073_"><path id="XMLID_2074_" d="m256 106h-80c-5.523 0-10-4.477-10-10s4.477-10 10-10h80c5.523 0 10 4.477 10 10s-4.477 10-10 10z" fill="#d3cbe4"/></g></g><g id="XMLID_2230_"><g id="XMLID_2069_"><path id="XMLID_2070_" d="m336 146h-160c-5.523 0-10-4.477-10-10s4.477-10 10-10h160c5.522 0 10 4.477 10 10s-4.478 10-10 10z" fill="#d3cbe4"/></g></g><g id="XMLID_2225_"><g id="XMLID_2041_"><path id="XMLID_2042_" d="m336 186h-160c-5.523 0-10-4.477-10-10s4.477-10 10-10h160c5.522 0 10 4.477 10 10s-4.478 10-10 10z" fill="#d3cbe4"/></g></g><path id="XMLID_18595_" d="m391 236h-275l-80-30v165.667c0 29.959 24.374 54.333 54.334 54.333h300.667c19.299 0 35-15.701 35-35v-120c-.001-19.299-15.702-35-35.001-35z" fill="#b35324"/><path id="XMLID_18594_" d="m116 236h-50c-16.569 0-30-13.431-30-30 0-16.569 13.431-30 30-30h50z" fill="#883f2e"/></g><g id="XMLID_2201_"><g id="XMLID_2100_"><g id="XMLID_2109_"><path id="XMLID_2110_" d="m171 386c-27.57 0-50-22.43-50-50s22.43-50 50-50c5.523 0 10 4.478 10 10s-4.477 10-10 10c-16.542 0-30 13.458-30 30s13.458 30 30 30c5.523 0 10 4.478 10 10s-4.477 10-10 10z" fill="#fbf3f3"/></g><g id="XMLID_2104_"><path id="XMLID_2108_" d="m326 386c-4.168 0-7.899-2.586-9.363-6.488l-30-80c-1.939-5.172.681-10.935 5.852-12.875 5.176-1.939 10.936.682 12.875 5.852l20.636 55.031 20.637-55.031c1.94-5.17 7.7-7.79 12.875-5.852 5.171 1.94 7.791 7.703 5.852 12.875l-30 80c-1.465 3.902-5.196 6.488-9.364 6.488z" fill="#fbf3f3"/></g><g id="XMLID_2101_"><path id="XMLID_2102_" d="m236 386h-30c-5.523 0-10-4.478-10-10s4.477-10 10-10h30c5.514 0 10-4.486 10-10s-4.486-10-10-10h-10c-16.542 0-30-13.458-30-30s13.458-30 30-30h30c5.523 0 10 4.478 10 10s-4.477 10-10 10h-30c-5.514 0-10 4.486-10 10s4.486 10 10 10h10c16.542 0 30 13.458 30 30s-13.458 30-30 30z" fill="#fbf3f3"/></g></g></g></g></g></svg>