<svg enable-background="new 0 0 512 512" height="512" viewBox="0 0 512 512" width="512" xmlns="http://www.w3.org/2000/svg"><g id="_x31_01_x2C__ob_x2C__file_type_x2C__file_format_x2C__file_extension_x2C__document"><g id="XMLID_2198_"><g id="XMLID_2211_"><path id="XMLID_13199_" d="m386 16h-20-210c-22.056 0-40 17.944-40 40v120l-10 30 10 30v220c0 22.056 17.944 40 40 40h280c22.056 0 40-17.944 40-40v-330-20l-70-20z" fill="#fff5f5"/><path id="XMLID_13198_" d="m386 106h90l-90-90z" fill="#ece6f2"/><g id="XMLID_2224_"><g id="XMLID_1391_"><path id="XMLID_1392_" d="m256 106h-80c-5.523 0-10-4.477-10-10s4.477-10 10-10h80c5.523 0 10 4.477 10 10s-4.477 10-10 10z" fill="#d3cbe4"/></g></g><g id="XMLID_2219_"><g id="XMLID_1388_"><path id="XMLID_1389_" d="m336 146h-160c-5.523 0-10-4.477-10-10s4.477-10 10-10h160c5.522 0 10 4.477 10 10s-4.478 10-10 10z" fill="#d3cbe4"/></g></g><g id="XMLID_2214_"><g id="XMLID_1385_"><path id="XMLID_1386_" d="m336 186h-160c-5.523 0-10-4.477-10-10s4.477-10 10-10h160c5.522 0 10 4.477 10 10s-4.478 10-10 10z" fill="#d3cbe4"/></g></g><path id="XMLID_13194_" d="m391 236h-275l-80-30v165.667c0 29.959 24.374 54.333 54.334 54.333h300.667c19.299 0 35-15.701 35-35v-120c-.001-19.299-15.702-35-35.001-35z" fill="#76e7fc"/><path id="XMLID_13193_" d="m116 236h-50c-16.569 0-30-13.431-30-30 0-16.569 13.431-30 30-30h50z" fill="#69cffc"/></g><g id="XMLID_2201_" fill="#fbf3f3"><path id="XMLID_2207_" d="m331.113 322.379c3.086-4.714 4.887-10.34 4.887-16.382 0-16.542-13.458-30-30-30h-40c-5.523 0-10 4.478-10 10v90c0 5.522 4.477 10 10 10h45c19.299 0 35-15.701 35-35 0-11.817-5.893-22.277-14.887-28.618zm-55.113-26.382h30c5.514 0 10 4.486 10 10s-4.486 10-10 10h-30zm35 70h-35v-30h30 5c8.271 0 15 6.728 15 15s-6.729 15-15 15z"/><path id="XMLID_2204_" d="m181 275.997h-15c-5.523 0-10 4.478-10 10v90c0 5.522 4.477 10 10 10h15c30.327 0 55-24.673 55-55s-24.673-55-55-55zm0 90h-5v-70h5c19.299 0 35 15.701 35 35s-15.701 35-35 35z"/></g></g></g></svg>