<svg enable-background="new 0 0 512 512" height="512" viewBox="0 0 512 512" width="512" xmlns="http://www.w3.org/2000/svg"><g id="_x31_49_x2C__doc_x2C__file_type_x2C__file_format_x2C__file_extension_x2C__document"><g id="XMLID_2198_"><g id="XMLID_2211_"><path id="XMLID_19000_" d="m386 16h-20-210c-22.056 0-40 17.944-40 40v120l-10 30 10 30v220c0 22.056 17.944 40 40 40h280c22.056 0 40-17.944 40-40v-330-20l-70-20z" fill="#fbf3f3"/><path id="XMLID_18999_" d="m386 106h90l-90-90z" fill="#ece6f2"/><g id="XMLID_2228_"><g id="XMLID_2163_"><path id="XMLID_2164_" d="m256 106h-80c-5.523 0-10-4.477-10-10s4.477-10 10-10h80c5.523 0 10 4.477 10 10s-4.477 10-10 10z" fill="#d3cbe4"/></g></g><g id="XMLID_2223_"><g id="XMLID_2160_"><path id="XMLID_2161_" d="m336 146h-160c-5.523 0-10-4.477-10-10s4.477-10 10-10h160c5.522 0 10 4.477 10 10s-4.478 10-10 10z" fill="#d3cbe4"/></g></g><g id="XMLID_2218_"><g id="XMLID_2155_"><path id="XMLID_2156_" d="m336 186h-160c-5.523 0-10-4.477-10-10s4.477-10 10-10h160c5.522 0 10 4.477 10 10s-4.478 10-10 10z" fill="#d3cbe4"/></g></g><path id="XMLID_18995_" d="m391 236h-275l-80-30v165.667c0 29.959 24.374 54.333 54.334 54.333h300.667c19.299 0 35-15.701 35-35v-120c-.001-19.299-15.702-35-35.001-35z" fill="#ff884d"/><path id="XMLID_18994_" d="m116 236h-50c-16.569 0-30-13.431-30-30 0-16.569 13.431-30 30-30h50z" fill="#ff415b"/></g><g id="XMLID_2201_" fill="#fff5f5"><path id="XMLID_2208_" d="m121 276h-15c-5.523 0-10 4.478-10 10v90c0 5.522 4.477 10 10 10h15c30.327 0 55-24.673 55-55s-24.673-55-55-55zm0 90h-5v-70h5c19.299 0 35 15.701 35 35s-15.701 35-35 35z"/><path id="XMLID_2205_" d="m236 276c-22.056 0-40 17.944-40 40v30c0 22.056 17.944 40 40 40s40-17.944 40-40v-30c0-22.056-17.944-40-40-40zm20 70c0 11.028-8.972 20-20 20s-20-8.972-20-20v-30c0-11.028 8.972-20 20-20s20 8.972 20 20z"/><path id="XMLID_18989_" d="m351 366c-19.299 0-35-15.701-35-35s15.701-35 35-35c5.522 0 10-4.478 10-10s-4.478-10-10-10c-30.327 0-55 24.673-55 55s24.673 55 55 55c5.522 0 10-4.478 10-10s-4.478-10-10-10z"/></g></g></g></svg>