<svg enable-background="new 0 0 512 512" height="512" viewBox="0 0 512 512" width="512" xmlns="http://www.w3.org/2000/svg"><g id="_x31_44_x2C__docx_x2C__file_type_x2C__file_format_x2C__file_extension_x2C__document"><g id="XMLID_2198_"><g id="XMLID_2234_"><path id="XMLID_18510_" d="m386 16h-20-210c-22.056 0-40 17.944-40 40v120l-10 30 10 30v220c0 22.056 17.944 40 40 40h280c22.056 0 40-17.944 40-40v-330-20l-70-20z" fill="#fbf3f3"/><path id="XMLID_18509_" d="m386 106h90l-90-90z" fill="#ece6f2"/><g id="XMLID_2256_"><g id="XMLID_2030_"><path id="XMLID_2031_" d="m256 106h-80c-5.523 0-10-4.477-10-10s4.477-10 10-10h80c5.523 0 10 4.477 10 10s-4.477 10-10 10z" fill="#d3cbe4"/></g></g><g id="XMLID_2250_"><g id="XMLID_2027_"><path id="XMLID_2028_" d="m336 146h-160c-5.523 0-10-4.477-10-10s4.477-10 10-10h160c5.522 0 10 4.477 10 10s-4.478 10-10 10z" fill="#d3cbe4"/></g></g><g id="XMLID_2241_"><g id="XMLID_2024_"><path id="XMLID_2025_" d="m336 186h-160c-5.523 0-10-4.477-10-10s4.477-10 10-10h160c5.522 0 10 4.477 10 10s-4.478 10-10 10z" fill="#d3cbe4"/></g></g><path id="XMLID_18505_" d="m391 236h-275l-80-30v165.667c0 29.959 24.374 54.333 54.334 54.333h300.667c19.299 0 35-15.701 35-35v-120c-.001-19.299-15.702-35-35.001-35z" fill="#80aaff"/><path id="XMLID_18504_" d="m116 236h-50c-16.569 0-30-13.431-30-30 0-16.569 13.431-30 30-30h50z" fill="#6680ff"/></g><g id="XMLID_2201_"><g id="XMLID_2272_"><g id="XMLID_2331_"><path id="XMLID_2354_" d="m101 386h-15c-5.523 0-10-4.478-10-10v-90c0-5.522 4.477-10 10-10h15c30.327 0 55 24.673 55 55s-24.673 55-55 55zm-5-20h5c19.299 0 35-15.701 35-35s-15.701-35-35-35h-5z" fill="#fbf3f3"/></g><g id="XMLID_2326_"><path id="XMLID_2327_" d="m201 386c-19.299 0-35-15.701-35-35v-40c0-19.299 15.701-35 35-35s35 15.701 35 35v40c0 19.299-15.701 35-35 35zm0-90c-8.271 0-15 6.728-15 15v40c0 8.272 6.729 15 15 15s15-6.728 15-15v-40c0-8.272-6.729-15-15-15z" fill="#fbf3f3"/></g><g id="XMLID_2314_"><path id="XMLID_2317_" d="m301 386c-30.327 0-55-24.673-55-55s24.673-55 55-55c5.522 0 10 4.478 10 10s-4.478 10-10 10c-19.299 0-35 15.701-35 35s15.701 35 35 35c5.522 0 10 4.478 10 10s-4.478 10-10 10z" fill="#fbf3f3"/></g><g id="XMLID_2275_"><path id="XMLID_2276_" d="m376.006 386.003c-3.832 0-7.487-2.215-9.144-5.941l-40-90c-2.243-5.047.029-10.957 5.076-13.199 5.052-2.244 10.957.031 13.199 5.076l40 90c2.243 5.047-.029 10.957-5.076 13.199-1.32.587-2.699.865-4.055.865z" fill="#fbf3f3"/></g><g id="XMLID_2273_"><path id="XMLID_2274_" d="m331.939 385.138c-5.047-2.242-7.319-8.152-5.076-13.199l40-90c2.242-5.046 8.148-7.322 13.199-5.076 5.047 2.242 7.319 8.152 5.076 13.199l-40 90c-2.228 5.012-8.119 7.334-13.199 5.076z" fill="#fbf3f3"/></g></g></g></g></g></svg>