<svg enable-background="new 0 0 512 512" height="512" viewBox="0 0 512 512" width="512" xmlns="http://www.w3.org/2000/svg"><g id="_x31_21_x2C__drv_x2C__file_type_x2C__file_format_x2C__file_extension_x2C__document"><g id="XMLID_2198_"><g id="XMLID_2211_"><path id="XMLID_15822_" d="m386 16h-20-210c-22.056 0-40 17.944-40 40v120l-10 30 10 30v220c0 22.056 17.944 40 40 40h280c22.056 0 40-17.944 40-40v-330-20l-70-20z" fill="#fff5f5"/><path id="XMLID_15821_" d="m386 106h90l-90-90z" fill="#ece6f2"/><g id="XMLID_2224_"><g id="XMLID_1680_"><path id="XMLID_1681_" d="m256 106h-80c-5.523 0-10-4.477-10-10s4.477-10 10-10h80c5.523 0 10 4.477 10 10s-4.477 10-10 10z" fill="#d3cbe4"/></g></g><g id="XMLID_2219_"><g id="XMLID_1677_"><path id="XMLID_1678_" d="m336 146h-160c-5.523 0-10-4.477-10-10s4.477-10 10-10h160c5.522 0 10 4.477 10 10s-4.478 10-10 10z" fill="#d3cbe4"/></g></g><g id="XMLID_2214_"><g id="XMLID_1674_"><path id="XMLID_1675_" d="m336 186h-160c-5.523 0-10-4.477-10-10s4.477-10 10-10h160c5.522 0 10 4.477 10 10s-4.478 10-10 10z" fill="#d3cbe4"/></g></g><path id="XMLID_15817_" d="m391 236h-275l-80-30v165.667c0 29.959 24.374 54.333 54.334 54.333h300.667c19.299 0 35-15.701 35-35v-120c-.001-19.299-15.702-35-35.001-35z" fill="#76e7fc"/><path id="XMLID_15816_" d="m116 236h-50c-16.569 0-30-13.431-30-30 0-16.569 13.431-30 30-30h50z" fill="#69cffc"/></g><g id="XMLID_2201_" fill="#fbf3f3"><path id="XMLID_2208_" d="m251.547 367.677-32.52-21.68h1.973c19.299 0 35-15.701 35-35s-15.701-35-35-35h-35c-5.523 0-10 4.478-10 10v50 .068 39.932c0 5.522 4.477 10 10 10s10-4.478 10-10v-21.315l44.453 29.636c1.705 1.137 3.631 1.681 5.538 1.681 3.232 0 6.403-1.563 8.33-4.454 3.063-4.596 1.821-10.805-2.774-13.868zm-55.547-71.68h25c8.271 0 15 6.728 15 15 0 8.271-6.729 15-15 15h-25z"/><path id="XMLID_15740_" d="m370.061 276.859c-5.051-2.244-10.957.03-13.199 5.076l-30.862 69.44-30.862-69.44c-2.242-5.045-8.147-7.32-13.199-5.076-5.047 2.242-7.319 8.152-5.076 13.199l40 90c1.604 3.611 5.186 5.939 9.138 5.939s7.533-2.327 9.138-5.939l40-90c2.242-5.046-.031-10.956-5.078-13.199z"/><path id="XMLID_2204_" d="m101 275.997h-5c-5.523 0-10 4.478-10 10v90c0 5.522 4.477 10 10 10h5c30.327 0 55-24.673 55-55s-24.673-55-55-55zm5 89.644v-69.287c16.939 2.434 30 17.042 30 34.644 0 17.601-13.061 32.209-30 34.643z"/></g></g></g></svg>