<svg enable-background="new 0 0 512 512" height="512" viewBox="0 0 512 512" width="512" xmlns="http://www.w3.org/2000/svg"><g id="_x31_17_x2C__owg_x2C__file_type_x2C__file_format_x2C__file_extension_x2C__document"><g id="XMLID_2198_"><g id="XMLID_2209_"><path id="XMLID_15285_" d="m386 16h-20-210c-22.056 0-40 17.944-40 40v120l-10 30 10 30v220c0 22.056 17.944 40 40 40h280c22.056 0 40-17.944 40-40v-330-20l-70-20z" fill="#fff5f5"/><path id="XMLID_15284_" d="m386 106h90l-90-90z" fill="#ece6f2"/><g id="XMLID_2226_"><g id="XMLID_1625_"><path id="XMLID_1626_" d="m256 106h-80c-5.523 0-10-4.477-10-10s4.477-10 10-10h80c5.523 0 10 4.477 10 10s-4.477 10-10 10z" fill="#d3cbe4"/></g></g><g id="XMLID_2221_"><g id="XMLID_1622_"><path id="XMLID_1623_" d="m336 146h-160c-5.523 0-10-4.477-10-10s4.477-10 10-10h160c5.522 0 10 4.477 10 10s-4.478 10-10 10z" fill="#d3cbe4"/></g></g><g id="XMLID_2216_"><g id="XMLID_1619_"><path id="XMLID_1620_" d="m336 186h-160c-5.523 0-10-4.477-10-10s4.477-10 10-10h160c5.522 0 10 4.477 10 10s-4.478 10-10 10z" fill="#d3cbe4"/></g></g><path id="XMLID_15280_" d="m391 236h-275l-80-30v165.667c0 29.959 24.374 54.333 54.334 54.333h300.667c19.299 0 35-15.701 35-35v-120c-.001-19.299-15.702-35-35.001-35z" fill="#ff884d"/><path id="XMLID_15279_" d="m116 236h-50c-16.569 0-30-13.431-30-30 0-16.569 13.431-30 30-30h50z" fill="#ff415b"/></g><g id="XMLID_2201_" fill="#fbf3f3"><path id="XMLID_15214_" d="m376 325.997h-35.556c-5.522 0-10 4.478-10 10s4.478 10 10 10h23.842c-4.127 11.641-15.249 20-28.286 20-16.542 0-30-13.458-30-30s13.458-30 30-30c5.967 0 11.728 1.745 16.66 5.047 4.588 3.071 10.801 1.842 13.873-2.748 3.071-4.59 1.842-10.801-2.748-13.873-8.235-5.512-17.843-8.426-27.785-8.426-27.57 0-50 22.43-50 50s22.43 50 50 50 50-22.43 50-50c0-5.522-4.478-10-10-10z"/><path id="XMLID_15213_" d="m256 285.997c-5.523 0-10 4.478-10 10v55.857l-22.929-22.929c-3.905-3.904-10.237-3.904-14.143 0l-22.928 22.929v-55.857c0-5.522-4.477-10-10-10s-10 4.478-10 10v80c0 4.045 2.436 7.691 6.173 9.239 3.736 1.546 8.038.692 10.898-2.168l32.929-32.928 32.929 32.929c2.865 2.865 7.167 3.712 10.898 2.168 3.737-1.548 6.173-5.194 6.173-9.239v-80c0-5.523-4.477-10.001-10-10.001z"/><path id="XMLID_2204_" d="m96 285.997h-10c-5.523 0-10 4.478-10 10v80c0 5.522 4.477 10 10 10h10c27.57 0 50-22.43 50-50s-22.43-50-50-50zm0 80v-60c16.542 0 30 13.458 30 30s-13.458 30-30 30z"/></g></g></g></svg>