<svg enable-background="new 0 0 512 512" height="512" viewBox="0 0 512 512" width="512" xmlns="http://www.w3.org/2000/svg"><g id="_x34_6_x2C__dxf_x2C__file_type_x2C__file_format_x2C__file_extension_x2C__document"><g id="XMLID_2198_"><g id="XMLID_2209_"><path id="XMLID_6016_" d="m386 16h-20-210c-22.056 0-40 17.944-40 40v120l-10 30 10 30v220c0 22.056 17.944 40 40 40h280c22.056 0 40-17.944 40-40v-330-20l-70-20z" fill="#fff5f5"/><path id="XMLID_6015_" d="m386 106h90l-90-90z" fill="#ece6f2"/><g id="XMLID_2226_"><g id="XMLID_647_"><path id="XMLID_648_" d="m256 106h-80c-5.523 0-10-4.477-10-10s4.477-10 10-10h80c5.523 0 10 4.477 10 10s-4.477 10-10 10z" fill="#d3cbe4"/></g></g><g id="XMLID_2221_"><g id="XMLID_637_"><path id="XMLID_638_" d="m336 146h-160c-5.523 0-10-4.477-10-10s4.477-10 10-10h160c5.522 0 10 4.477 10 10s-4.478 10-10 10z" fill="#d3cbe4"/></g></g><g id="XMLID_2216_"><g id="XMLID_634_"><path id="XMLID_635_" d="m336 186h-160c-5.523 0-10-4.477-10-10s4.477-10 10-10h160c5.522 0 10 4.477 10 10s-4.478 10-10 10z" fill="#d3cbe4"/></g></g><path id="XMLID_6011_" d="m391 236h-275l-80-30v165.667c0 29.959 24.374 54.333 54.334 54.333h300.667c19.299 0 35-15.701 35-35v-120c-.001-19.299-15.702-35-35.001-35z" fill="#fd3"/><path id="XMLID_6010_" d="m116 236h-50c-16.569 0-30-13.431-30-30 0-16.569 13.431-30 30-30h50z" fill="#fb3"/></g><g id="XMLID_2201_" fill="#fbf3f3"><path id="XMLID_5939_" d="m270.856 277.256c-4.828-2.681-10.916-.943-13.598 3.885l-16.258 29.265-16.258-29.265c-2.682-4.828-8.769-6.567-13.598-3.885-4.828 2.682-6.567 8.77-3.885 13.598l22.302 40.144-22.302 40.143c-2.682 4.828-.942 10.916 3.885 13.598 4.82 2.678 10.911.952 13.598-3.885l16.258-29.266 16.258 29.265c1.828 3.29 5.236 5.146 8.751 5.146 7.542 0 12.455-8.158 8.732-14.858l-22.302-40.143 22.302-40.144c2.683-4.829.944-10.916-3.885-13.598z"/><path id="XMLID_5938_" d="m356 275.997h-50c-5.523 0-10 4.478-10 10v90c0 5.522 4.477 10 10 10 5.522 0 10-4.478 10-10v-40h30c5.522 0 10-4.478 10-10s-4.478-10-10-10h-30v-20h40c5.522 0 10-4.478 10-10s-4.478-10-10-10z"/><path id="XMLID_2204_" d="m131 275.997h-5c-5.523 0-10 4.478-10 10v90c0 5.522 4.477 10 10 10h5c30.327 0 55-24.673 55-55s-24.673-55-55-55zm5 89.644v-69.287c16.939 2.434 30 17.042 30 34.644 0 17.601-13.061 32.209-30 34.643z"/></g></g></g></svg>