<svg enable-background="new 0 0 512 512" height="512" viewBox="0 0 512 512" width="512" xmlns="http://www.w3.org/2000/svg"><g id="_x36_6_x2C__fla_x2C__file_type_x2C__file_format_x2C__file_extension_x2C__document"><g id="XMLID_2198_"><g id="XMLID_2209_"><path id="XMLID_8610_" d="m386 16h-20-210c-22.056 0-40 17.944-40 40v120l-10 30 10 30v220c0 22.056 17.944 40 40 40h280c22.056 0 40-17.944 40-40v-330-20l-70-20z" fill="#fff5f5"/><path id="XMLID_8609_" d="m386 106h90l-90-90z" fill="#ece6f2"/><g id="XMLID_2222_"><g id="XMLID_916_"><path id="XMLID_917_" d="m256 106h-80c-5.523 0-10-4.477-10-10s4.477-10 10-10h80c5.523 0 10 4.477 10 10s-4.477 10-10 10z" fill="#d3cbe4"/></g></g><g id="XMLID_2217_"><g id="XMLID_913_"><path id="XMLID_914_" d="m336 146h-160c-5.523 0-10-4.477-10-10s4.477-10 10-10h160c5.522 0 10 4.477 10 10s-4.478 10-10 10z" fill="#d3cbe4"/></g></g><g id="XMLID_2212_"><g id="XMLID_910_"><path id="XMLID_911_" d="m336 186h-160c-5.523 0-10-4.477-10-10s4.477-10 10-10h160c5.522 0 10 4.477 10 10s-4.478 10-10 10z" fill="#d3cbe4"/></g></g><path id="XMLID_8605_" d="m391 236h-275l-80-30v165.667c0 29.959 24.374 54.333 54.334 54.333h300.667c19.299 0 35-15.701 35-35v-120c-.001-19.299-15.702-35-35.001-35z" fill="#76e7fc"/><path id="XMLID_8604_" d="m116 236h-50c-16.569 0-30-13.431-30-30 0-16.569 13.431-30 30-30h50z" fill="#69cffc"/></g><g id="XMLID_2201_" fill="#fbf3f3"><path id="XMLID_8535_" d="m176 275.997h-50c-5.523 0-10 4.478-10 10v90c0 5.522 4.477 10 10 10s10-4.478 10-10v-40h30c5.523 0 10-4.478 10-10s-4.477-10-10-10h-30v-20h40c5.523 0 10-4.478 10-10s-4.477-10-10-10z"/><path id="XMLID_2205_" d="m326 275.997c-22.056 0-40 17.944-40 40v60c0 5.522 4.477 10 10 10 5.522 0 10-4.478 10-10v-20h40v20c0 5.522 4.477 10 10 10 5.522 0 10-4.478 10-10v-60c0-22.056-17.944-40-40-40zm-20 60v-20c0-11.028 8.972-20 20-20s20 8.972 20 20v20z"/><path id="XMLID_8532_" d="m256 365.997h-30v-80c0-5.522-4.477-10-10-10s-10 4.478-10 10v90c0 5.522 4.477 10 10 10h40c5.523 0 10-4.478 10-10s-4.477-10-10-10z"/></g></g></g></svg>