<svg enable-background="new 0 0 512 512" height="512" viewBox="0 0 512 512" width="512" xmlns="http://www.w3.org/2000/svg"><g id="_x31_5_x2C__fon_x2C__file_type_x2C__file_format_x2C__file_extension_x2C__document"><g id="XMLID_2198_"><g id="XMLID_2209_"><path id="XMLID_1915_" d="m386 16h-20-210c-22.056 0-40 17.944-40 40v120l-10 30 10 30v220c0 22.056 17.944 40 40 40h280c22.056 0 40-17.944 40-40v-330-20l-70-20z" fill="#fff5f5"/><path id="XMLID_1914_" d="m386 106h90l-90-90z" fill="#ece6f2"/><g id="XMLID_2226_"><g id="XMLID_221_"><path id="XMLID_222_" d="m256 106h-80c-5.523 0-10-4.477-10-10s4.477-10 10-10h80c5.523 0 10 4.477 10 10s-4.477 10-10 10z" fill="#d3cbe4"/></g></g><g id="XMLID_2221_"><g id="XMLID_218_"><path id="XMLID_219_" d="m336 146h-160c-5.523 0-10-4.477-10-10s4.477-10 10-10h160c5.522 0 10 4.477 10 10s-4.478 10-10 10z" fill="#d3cbe4"/></g></g><g id="XMLID_2216_"><g id="XMLID_215_"><path id="XMLID_216_" d="m336 186h-160c-5.523 0-10-4.477-10-10s4.477-10 10-10h160c5.522 0 10 4.477 10 10s-4.478 10-10 10z" fill="#d3cbe4"/></g></g><path id="XMLID_1910_" d="m391 236h-275l-80-30v165.667c0 29.959 24.374 54.333 54.334 54.333h300.667c19.299 0 35-15.701 35-35v-120c-.001-19.299-15.702-35-35.001-35z" fill="#883f2e"/><path id="XMLID_1909_" d="m116 236h-50c-16.569 0-30-13.431-30-30 0-16.569 13.431-30 30-30h50z" fill="#56281b"/></g><g id="XMLID_2201_" fill="#fbf3f3"><path id="XMLID_1841_" d="m156 275.997h-50c-5.523 0-10 4.478-10 10v90c0 5.522 4.477 10 10 10s10-4.478 10-10v-40h30c5.523 0 10-4.478 10-10s-4.477-10-10-10h-30v-20h40c5.523 0 10-4.478 10-10s-4.477-10-10-10z"/><path id="XMLID_1840_" d="m356 275.997c-5.523 0-10 4.478-10 10v60.854l-52.106-66.994c-2.622-3.372-7.098-4.704-11.139-3.319-4.041 1.387-6.755 5.187-6.755 9.459v90c0 5.522 4.478 10 10 10s10-4.478 10-10v-60.854l52.106 66.994c1.932 2.483 4.868 3.861 7.896 3.861 1.083 0 2.179-.177 3.243-.542 4.041-1.387 6.755-5.187 6.755-9.459v-90c0-5.522-4.478-10-10-10z"/><path id="XMLID_2204_" d="m221 275.997c-19.299 0-35 15.701-35 35v40c0 19.299 15.701 35 35 35s35-15.701 35-35v-40c0-19.299-15.701-35-35-35zm15 75c0 8.271-6.729 15-15 15s-15-6.729-15-15v-40c0-8.272 6.729-15 15-15s15 6.728 15 15z"/></g></g></g></svg>