<svg enable-background="new 0 0 512 512" height="512" viewBox="0 0 512 512" width="512" xmlns="http://www.w3.org/2000/svg"><g id="_x31_35_x2C__gif_x2C__file_type_x2C__file_format_x2C__file_extension_x2C__document"><g id="XMLID_2198_"><g id="XMLID_2222_"><path id="XMLID_17498_" d="m386 16h-20-210c-22.056 0-40 17.944-40 40v120l-10 30 10 30v220c0 22.056 17.944 40 40 40h280c22.056 0 40-17.944 40-40v-330-20l-70-20z" fill="#fbf3f3"/><path id="XMLID_17497_" d="m386 106h90l-90-90z" fill="#ece6f2"/><g id="XMLID_2235_"><g id="XMLID_1877_"><path id="XMLID_1878_" d="m256 106h-80c-5.523 0-10-4.477-10-10s4.477-10 10-10h80c5.523 0 10 4.477 10 10s-4.477 10-10 10z" fill="#d3cbe4"/></g></g><g id="XMLID_2230_"><g id="XMLID_1874_"><path id="XMLID_1875_" d="m336 146h-160c-5.523 0-10-4.477-10-10s4.477-10 10-10h160c5.522 0 10 4.477 10 10s-4.478 10-10 10z" fill="#d3cbe4"/></g></g><g id="XMLID_2225_"><g id="XMLID_1871_"><path id="XMLID_1872_" d="m336 186h-160c-5.523 0-10-4.477-10-10s4.477-10 10-10h160c5.522 0 10 4.477 10 10s-4.478 10-10 10z" fill="#d3cbe4"/></g></g><path id="XMLID_17493_" d="m391 236h-275l-80-30v165.667c0 29.959 24.374 54.333 54.334 54.333h300.667c19.299 0 35-15.701 35-35v-120c-.001-19.299-15.702-35-35.001-35z" fill="#76e7fc"/><path id="XMLID_17492_" d="m116 236h-50c-16.569 0-30-13.431-30-30 0-16.569 13.431-30 30-30h50z" fill="#69cffc"/></g><g id="XMLID_2201_"><g id="XMLID_2359_"><g id="XMLID_2366_"><path id="XMLID_2367_" d="m161 386c-30.327 0-55-24.673-55-55s24.673-55 55-55c10.938 0 21.506 3.205 30.563 9.269 4.589 3.072 5.819 9.283 2.747 13.873s-9.283 5.817-13.873 2.746c-5.753-3.852-12.475-5.888-19.437-5.888-19.299 0-35 15.701-35 35s15.701 35 35 35c15.825 0 29.231-10.559 33.545-25h-28.545c-5.523 0-10-4.478-10-10s4.477-10 10-10h40c5.523 0 10 4.478 10 10 0 30.327-24.673 55-55 55z" fill="#fbf3f3"/></g><g id="XMLID_2364_"><path id="XMLID_2365_" d="m286 386c-5.522 0-10-4.478-10-10v-90c0-5.522 4.478-10 10-10h50c5.522 0 10 4.478 10 10s-4.478 10-10 10h-40v80c0 5.522-4.478 10-10 10z" fill="#fbf3f3"/></g><g id="XMLID_2362_"><path id="XMLID_2363_" d="m326 346h-40c-5.522 0-10-4.478-10-10s4.478-10 10-10h40c5.522 0 10 4.478 10 10s-4.478 10-10 10z" fill="#fbf3f3"/></g><g id="XMLID_2360_"><path id="XMLID_2361_" d="m246 386c-5.523 0-10-4.478-10-10v-90c0-5.522 4.477-10 10-10s10 4.478 10 10v90c0 5.522-4.477 10-10 10z" fill="#fbf3f3"/></g></g></g></g></g></svg>