<svg enable-background="new 0 0 512 512" height="512" viewBox="0 0 512 512" width="512" xmlns="http://www.w3.org/2000/svg"><g id="_x38_2_x2C__gpx_x2C__file_type_x2C__file_format_x2C__file_extension_x2C__document"><g id="XMLID_2198_"><g id="XMLID_2209_"><path id="XMLID_10710_" d="m386 16h-20-210c-22.056 0-40 17.944-40 40v120l-10 30 10 30v220c0 22.056 17.944 40 40 40h280c22.056 0 40-17.944 40-40v-330-20l-70-20z" fill="#fff5f5"/><path id="XMLID_10709_" d="m386 106h90l-90-90z" fill="#ece6f2"/><g id="XMLID_2226_"><g id="XMLID_1135_"><path id="XMLID_1136_" d="m256 106h-80c-5.523 0-10-4.477-10-10s4.477-10 10-10h80c5.523 0 10 4.477 10 10s-4.477 10-10 10z" fill="#d3cbe4"/></g></g><g id="XMLID_2221_"><g id="XMLID_1132_"><path id="XMLID_1133_" d="m336 146h-160c-5.523 0-10-4.477-10-10s4.477-10 10-10h160c5.522 0 10 4.477 10 10s-4.478 10-10 10z" fill="#d3cbe4"/></g></g><g id="XMLID_2216_"><g id="XMLID_1129_"><path id="XMLID_1130_" d="m336 186h-160c-5.523 0-10-4.477-10-10s4.477-10 10-10h160c5.522 0 10 4.477 10 10s-4.478 10-10 10z" fill="#d3cbe4"/></g></g><path id="XMLID_10705_" d="m391 236h-275l-80-30v165.667c0 29.959 24.374 54.333 54.334 54.333h300.667c19.299 0 35-15.701 35-35v-120c-.001-19.299-15.702-35-35.001-35z" fill="#80aaff"/><path id="XMLID_10704_" d="m116 236h-50c-16.569 0-30-13.431-30-30 0-16.569 13.431-30 30-30h50z" fill="#6680ff"/></g><g id="XMLID_2201_" fill="#fbf3f3"><path id="XMLID_10633_" d="m352.439 330.997 22.302-40.144c2.683-4.828.943-10.916-3.885-13.598-4.825-2.682-10.915-.944-13.598 3.885l-16.258 29.266-16.259-29.266c-2.683-4.829-8.772-6.566-13.598-3.885-4.828 2.682-6.567 8.77-3.885 13.598l22.302 40.144-22.302 40.143c-2.683 4.828-.943 10.916 3.885 13.598 4.827 2.682 10.915.945 13.598-3.885l16.259-29.265 16.259 29.266c1.827 3.29 5.236 5.146 8.75 5.146 1.643 0 3.31-.406 4.848-1.261 4.828-2.682 6.567-8.77 3.885-13.598z"/><path id="XMLID_2205_" d="m261 275.997h-35c-5.523 0-10 4.478-10 10v50 40c0 5.522 4.477 10 10 10s10-4.478 10-10v-30h25c19.299 0 35-15.701 35-35s-15.701-35-35-35zm0 50h-25v-30h25c8.271 0 15 6.728 15 15s-6.729 15-15 15z"/><path id="XMLID_10630_" d="m186 320.997h-40c-5.523 0-10 4.478-10 10s4.477 10 10 10h28.545c-4.313 14.441-17.72 25-33.545 25-19.299 0-35-15.701-35-35s15.701-35 35-35c6.962 0 13.684 2.036 19.437 5.888 4.588 3.071 10.801 1.844 13.873-2.746 3.073-4.59 1.843-10.801-2.747-13.873-9.057-6.064-19.625-9.268-30.563-9.268-30.327 0-55 24.673-55 55s24.673 55 55 55 55-24.673 55-55c0-5.523-4.477-10.001-10-10.001z"/></g></g></g></svg>