<svg enable-background="new 0 0 512 512" height="512" viewBox="0 0 512 512" width="512" xmlns="http://www.w3.org/2000/svg"><g id="_x31_40_x2C__html_x2C__file_type_x2C__file_format_x2C__file_extension_x2C__document"><g id="XMLID_2198_"><g id="XMLID_2217_"><path id="XMLID_18065_" d="m386 16h-20-210c-22.056 0-40 17.944-40 40v120l-10 30 10 30v220c0 22.056 17.944 40 40 40h280c22.056 0 40-17.944 40-40v-330-20l-70-20z" fill="#fbf3f3"/><path id="XMLID_18064_" d="m386 106h90l-90-90z" fill="#ece6f2"/><g id="XMLID_2237_"><g id="XMLID_1954_"><path id="XMLID_1955_" d="m256 106h-80c-5.523 0-10-4.477-10-10s4.477-10 10-10h80c5.523 0 10 4.477 10 10s-4.477 10-10 10z" fill="#d3cbe4"/></g></g><g id="XMLID_2232_"><g id="XMLID_1950_"><path id="XMLID_1951_" d="m336 146h-160c-5.523 0-10-4.477-10-10s4.477-10 10-10h160c5.522 0 10 4.477 10 10s-4.478 10-10 10z" fill="#d3cbe4"/></g></g><g id="XMLID_2224_"><g id="XMLID_1957_"><g id="XMLID_1958_"><path id="XMLID_1959_" d="m336 186h-160c-5.523 0-10-4.477-10-10s4.477-10 10-10h160c5.522 0 10 4.477 10 10s-4.478 10-10 10z" fill="#d3cbe4"/></g></g></g><path id="XMLID_18060_" d="m391 236h-275l-80-30v165.667c0 29.959 24.374 54.333 54.334 54.333h300.667c19.299 0 35-15.701 35-35v-120c-.001-19.299-15.702-35-35.001-35z" fill="#fb3"/><path id="XMLID_18059_" d="m116 236h-50c-16.569 0-30-13.431-30-30 0-16.569 13.431-30 30-30h50z" fill="#ff884d"/></g><g id="XMLID_2201_"><g id="XMLID_1980_"><path id="XMLID_2005_" d="m376 356h-20v-70c0-5.522-4.478-10-10-10-5.523 0-10 4.478-10 10v80c0 5.522 4.477 10 10 10h30c5.522 0 10-4.478 10-10s-4.478-10-10-10z" fill="#fbf3f3"/><path id="XMLID_2004_" d="m319.31 276.564c-4.008-1.402-8.467-.127-11.119 3.189l-32.191 40.239-32.191-40.239c-2.653-3.316-7.113-4.595-11.119-3.189-4.007 1.406-6.69 5.189-6.69 9.436v80c0 5.522 4.477 10 10 10s10-4.478 10-10v-51.492l22.191 27.739c3.999 4.999 11.616 5.002 15.617 0l22.192-27.739v51.492c0 5.522 4.477 10 10 10 5.522 0 10-4.478 10-10v-80c0-4.247-2.683-8.03-6.69-9.436z" fill="#fbf3f3"/><g id="XMLID_1983_"><path id="XMLID_1990_" d="m136 276c-5.523 0-10 4.478-10 10v30h-20v-30c0-5.522-4.477-10-10-10s-10 4.478-10 10v80c0 5.522 4.477 10 10 10s10-4.478 10-10v-30h20v30c0 5.522 4.477 10 10 10s10-4.478 10-10v-80c0-5.522-4.477-10-10-10z" fill="#fbf3f3"/></g><path id="XMLID_1982_" d="m206 276h-40c-5.523 0-10 4.478-10 10s4.477 10 10 10h10v70c0 5.522 4.477 10 10 10s10-4.478 10-10v-70h10c5.523 0 10-4.478 10-10s-4.477-10-10-10z" fill="#fbf3f3"/></g></g></g></g></svg>