<svg enable-background="new 0 0 512 512" height="512" viewBox="0 0 512 512" width="512" xmlns="http://www.w3.org/2000/svg"><g id="_x33_1_x2C__icns_x2C__file_type_x2C__file_format_x2C__file_extension_x2C__document"><g id="XMLID_2198_"><g id="XMLID_2208_"><path id="XMLID_4066_" d="m386 16h-20-210c-22.056 0-40 17.944-40 40v120l-10 30 10 30v220c0 22.056 17.944 40 40 40h280c22.056 0 40-17.944 40-40v-330-20l-70-20z" fill="#fff5f5"/><path id="XMLID_4065_" d="m386 106h90l-90-90z" fill="#ece6f2"/><g id="XMLID_2225_"><g id="XMLID_439_"><path id="XMLID_443_" d="m256 106h-80c-5.523 0-10-4.477-10-10s4.477-10 10-10h80c5.523 0 10 4.477 10 10s-4.477 10-10 10z" fill="#d3cbe4"/></g></g><g id="XMLID_2220_"><g id="XMLID_436_"><path id="XMLID_437_" d="m336 146h-160c-5.523 0-10-4.477-10-10s4.477-10 10-10h160c5.522 0 10 4.477 10 10s-4.478 10-10 10z" fill="#d3cbe4"/></g></g><g id="XMLID_2215_"><g id="XMLID_433_"><path id="XMLID_434_" d="m336 186h-160c-5.523 0-10-4.477-10-10s4.477-10 10-10h160c5.522 0 10 4.477 10 10s-4.478 10-10 10z" fill="#d3cbe4"/></g></g><path id="XMLID_4061_" d="m391 236h-275l-80-30v165.667c0 29.959 24.374 54.333 54.334 54.333h300.667c19.299 0 35-15.701 35-35v-120c-.001-19.299-15.702-35-35.001-35z" fill="#fb3"/><path id="XMLID_4060_" d="m116 236h-50c-16.569 0-30-13.431-30-30 0-16.569 13.431-30 30-30h50z" fill="#ff884d"/></g><g id="XMLID_2201_" fill="#fbf3f3"><path id="XMLID_3994_" d="m171 295.997h5c5.523 0 10-4.478 10-10s-4.477-10-10-10h-5c-30.327 0-55 24.673-55 55s24.673 55 55 55h5c5.523 0 10-4.478 10-10s-4.477-10-10-10h-5c-19.299 0-35-15.701-35-35s15.701-35 35-35z"/><path id="XMLID_3993_" d="m353.5 320.997h-7.5c-6.893 0-12.5-5.608-12.5-12.5 0-6.893 5.607-12.5 12.5-12.5h30c5.522 0 10-4.478 10-10s-4.478-10-10-10h-30c-17.921 0-32.5 14.579-32.5 32.5s14.579 32.5 32.5 32.5h7.5c6.893 0 12.5 5.607 12.5 12.5 0 6.892-5.607 12.5-12.5 12.5h-30c-5.523 0-10 4.478-10 10s4.477 10 10 10h30c17.921 0 32.5-14.579 32.5-32.5s-14.579-32.5-32.5-32.5z"/><path id="XMLID_3992_" d="m286 275.997c-5.522 0-10 4.478-10 10v60.854l-52.106-66.994c-2.623-3.372-7.097-4.707-11.139-3.319-4.041 1.387-6.755 5.187-6.755 9.459v90c0 5.522 4.477 10 10 10s10-4.478 10-10v-60.854l52.106 66.994c2.594 3.335 7.055 4.721 11.139 3.319 4.041-1.387 6.755-5.187 6.755-9.459v-90c0-5.522-4.478-10-10-10z"/><path id="XMLID_3991_" d="m86 275.997c-5.523 0-10 4.478-10 10v90c0 5.522 4.477 10 10 10s10-4.478 10-10v-90c0-5.522-4.477-10-10-10z"/></g></g></g></svg>