<svg enable-background="new 0 0 512 512" height="512" viewBox="0 0 512 512" width="512" xmlns="http://www.w3.org/2000/svg"><g id="_x31_48_x2C__jpg_x2C__file_type_x2C__file_format_x2C__file_extension_x2C__document"><g id="XMLID_2198_"><g id="XMLID_2216_"><path id="XMLID_18885_" d="m386 16h-20-210c-22.056 0-40 17.944-40 40v120l-10 30 10 30v220c0 22.056 17.944 40 40 40h280c22.056 0 40-17.944 40-40v-330-20l-70-20z" fill="#fbf3f3"/><path id="XMLID_18884_" d="m386 106h90l-90-90z" fill="#ece6f2"/><g id="XMLID_2233_"><g id="XMLID_2146_"><path id="XMLID_2147_" d="m256 106h-80c-5.523 0-10-4.477-10-10s4.477-10 10-10h80c5.523 0 10 4.477 10 10s-4.477 10-10 10z" fill="#d3cbe4"/></g></g><g id="XMLID_2228_"><g id="XMLID_2143_"><path id="XMLID_2144_" d="m336 146h-160c-5.523 0-10-4.477-10-10s4.477-10 10-10h160c5.522 0 10 4.477 10 10s-4.478 10-10 10z" fill="#d3cbe4"/></g></g><g id="XMLID_2223_"><g id="XMLID_2125_"><path id="XMLID_2126_" d="m336 186h-160c-5.523 0-10-4.477-10-10s4.477-10 10-10h160c5.522 0 10 4.477 10 10s-4.478 10-10 10z" fill="#d3cbe4"/></g></g><path id="XMLID_18880_" d="m391 236h-275l-80-30v165.667c0 29.959 24.374 54.333 54.334 54.333h300.667c19.299 0 35-15.701 35-35v-120c-.001-19.299-15.702-35-35.001-35z" fill="#53e261"/><path id="XMLID_18879_" d="m116 236h-50c-16.569 0-30-13.431-30-30 0-16.569 13.431-30 30-30h50z" fill="#20ca78"/></g><g id="XMLID_2201_"><g id="XMLID_2165_" fill="#fbf3f3"><path id="XMLID_2168_" d="m221 276h-35c-5.523 0-10 4.478-10 10v50 40c0 5.522 4.477 10 10 10s10-4.478 10-10v-30h25c19.299 0 35-15.701 35-35s-15.701-35-35-35zm0 50h-25v-30h25c8.271 0 15 6.728 15 15s-6.729 15-15 15z"/><path id="XMLID_2167_" d="m146 276c-5.523 0-10 4.478-10 10v65c0 8.272-6.729 15-15 15s-15-6.728-15-15v-5c0-5.522-4.477-10-10-10s-10 4.478-10 10v5c0 19.299 15.701 35 35 35s35-15.701 35-35v-65c0-5.522-4.477-10-10-10z"/><path id="XMLID_2166_" d="m376 321h-40c-5.523 0-10 4.478-10 10s4.477 10 10 10h28.545c-4.314 14.441-17.72 25-33.545 25-19.299 0-35-15.701-35-35s15.701-35 35-35c6.962 0 13.684 2.036 19.436 5.888 4.588 3.07 10.8 1.844 13.873-2.746 3.072-4.59 1.843-10.801-2.746-13.873-9.056-6.064-19.625-9.269-30.563-9.269-30.327 0-55 24.673-55 55s24.673 55 55 55 55-24.673 55-55c0-5.522-4.478-10-10-10z"/></g></g></g></g></svg>