<svg enable-background="new 0 0 512 512" height="512" viewBox="0 0 512 512" width="512" xmlns="http://www.w3.org/2000/svg"><g id="_x31_16_x2C__js_x2C__file_type_x2C__file_format_x2C__file_extension_x2C__document"><g id="XMLID_2198_"><g id="XMLID_2206_"><path id="XMLID_15159_" d="m386 16h-20-210c-22.056 0-40 17.944-40 40v120l-10 30 10 30v220c0 22.056 17.944 40 40 40h280c22.056 0 40-17.944 40-40v-330-20l-70-20z" fill="#fff5f5"/><path id="XMLID_15158_" d="m386 106h90l-90-90z" fill="#ece6f2"/><g id="XMLID_2223_"><g id="XMLID_1612_"><path id="XMLID_1613_" d="m256 106h-80c-5.523 0-10-4.477-10-10s4.477-10 10-10h80c5.523 0 10 4.477 10 10s-4.477 10-10 10z" fill="#d3cbe4"/></g></g><g id="XMLID_2218_"><g id="XMLID_1609_"><path id="XMLID_1610_" d="m336 146h-160c-5.523 0-10-4.477-10-10s4.477-10 10-10h160c5.522 0 10 4.477 10 10s-4.478 10-10 10z" fill="#d3cbe4"/></g></g><g id="XMLID_2213_"><g id="XMLID_1606_"><path id="XMLID_1607_" d="m336 186h-160c-5.523 0-10-4.477-10-10s4.477-10 10-10h160c5.522 0 10 4.477 10 10s-4.478 10-10 10z" fill="#d3cbe4"/></g></g><path id="XMLID_15154_" d="m391 236h-275l-80-30v165.667c0 29.959 24.374 54.333 54.334 54.333h300.667c19.299 0 35-15.701 35-35v-120c-.001-19.299-15.702-35-35.001-35z" fill="#883f2e"/><path id="XMLID_15153_" d="m116 236h-50c-16.569 0-30-13.431-30-30 0-16.569 13.431-30 30-30h50z" fill="#56281b"/></g><g id="XMLID_2201_" fill="#fbf3f3"><path id="XMLID_15116_" d="m286 315.997h-10c-5.514 0-10-4.486-10-10s4.486-10 10-10h30c5.522 0 10-4.478 10-10s-4.478-10-10-10h-30c-16.542 0-30 13.458-30 30s13.458 30 30 30h10c5.514 0 10 4.486 10 10s-4.486 10-10 10h-30c-5.523 0-10 4.478-10 10s4.477 10 10 10h30c16.542 0 30-13.458 30-30s-13.458-30-30-30z"/><path id="XMLID_15115_" d="m206 275.997c-5.523 0-10 4.478-10 10v55c0 8.271-6.729 15-15 15s-15-6.729-15-15v-5c0-5.522-4.477-10-10-10s-10 4.478-10 10v5c0 19.299 15.701 35 35 35s35-15.701 35-35v-55c0-5.522-4.477-10-10-10z"/></g></g></g></svg>