<svg enable-background="new 0 0 512 512" height="512" viewBox="0 0 512 512" width="512" xmlns="http://www.w3.org/2000/svg"><g id="_x31_00_x2C__key_x2C__file_type_x2C__file_format_x2C__file_extension_x2C__document"><g id="XMLID_2198_"><g id="XMLID_2207_"><path id="XMLID_13064_" d="m386 16h-20-210c-22.056 0-40 17.944-40 40v120l-10 30 10 30v220c0 22.056 17.944 40 40 40h280c22.056 0 40-17.944 40-40v-330-20l-70-20z" fill="#fff5f5"/><path id="XMLID_13063_" d="m386 106h90l-90-90z" fill="#ece6f2"/><g id="XMLID_2224_"><g id="XMLID_1382_"><path id="XMLID_1383_" d="m256 106h-80c-5.523 0-10-4.477-10-10s4.477-10 10-10h80c5.523 0 10 4.477 10 10s-4.477 10-10 10z" fill="#d3cbe4"/></g></g><g id="XMLID_2219_"><g id="XMLID_1379_"><path id="XMLID_1380_" d="m336 146h-160c-5.523 0-10-4.477-10-10s4.477-10 10-10h160c5.522 0 10 4.477 10 10s-4.478 10-10 10z" fill="#d3cbe4"/></g></g><g id="XMLID_2214_"><g id="XMLID_1376_"><path id="XMLID_1377_" d="m336 186h-160c-5.523 0-10-4.477-10-10s4.477-10 10-10h160c5.522 0 10 4.477 10 10s-4.478 10-10 10z" fill="#d3cbe4"/></g></g><path id="XMLID_13059_" d="m391 236h-275l-80-30v165.667c0 29.959 24.374 54.333 54.334 54.333h300.667c19.299 0 35-15.701 35-35v-120c-.001-19.299-15.702-35-35.001-35z" fill="#883f2e"/><path id="XMLID_13058_" d="m116 236h-50c-16.569 0-30-13.431-30-30 0-16.569 13.431-30 30-30h50z" fill="#56281b"/></g><g id="XMLID_2201_" fill="#fbf3f3"><path id="XMLID_12984_" d="m236 295.997c5.523 0 10-4.478 10-10s-4.477-10-10-10h-40c-5.523 0-10 4.478-10 10v90c0 5.522 4.477 10 10 10h40c5.523 0 10-4.478 10-10s-4.477-10-10-10h-30v-30h30c5.523 0 10-4.478 10-10s-4.477-10-10-10h-30v-20z"/><path id="XMLID_12983_" d="m363.071 278.926c-3.906-3.904-10.236-3.904-14.143 0l-32.928 32.928-32.929-32.929c-3.906-3.904-10.237-3.904-14.143 0-3.905 3.905-3.905 10.237 0 14.143l37.072 37.072v45.858c0 5.522 4.477 10 10 10 5.522 0 10-4.478 10-10v-45.858l37.071-37.071c3.906-3.906 3.906-10.238 0-14.143z"/><path id="XMLID_12982_" d="m162.402 278.315c-4.242-3.534-10.548-2.963-14.084 1.281-41.03 49.235-30.538 36.669-32.318 38.78v-32.379c0-5.522-4.477-10-10-10s-10 4.478-10 10v59.948 30.052c0 5.522 4.477 10 10 10s10-4.478 10-10v-26.38l6.532-7.838 25.016 39.563c2.944 4.655 9.119 6.066 13.796 3.107 4.668-2.951 6.06-9.129 3.108-13.797l-28.466-45.019 27.696-33.235c3.536-4.242 2.963-10.547-1.28-14.083z"/></g></g></g></svg>