<svg enable-background="new 0 0 512 512" height="512" viewBox="0 0 512 512" width="512" xmlns="http://www.w3.org/2000/svg"><g id="_x37_7_x2C__kml_x2C__file_type_x2C__file_format_x2C__file_extension_x2C__document"><g id="XMLID_2198_"><g id="XMLID_2207_"><path id="XMLID_10038_" d="m386 16h-20-210c-22.056 0-40 17.944-40 40v120l-10 30 10 30v220c0 22.056 17.944 40 40 40h280c22.056 0 40-17.944 40-40v-330-20l-70-20z" fill="#fff5f5"/><path id="XMLID_10037_" d="m386 106h90l-90-90z" fill="#ece6f2"/><g id="XMLID_2224_"><g id="XMLID_1070_"><path id="XMLID_1071_" d="m256 106h-80c-5.523 0-10-4.477-10-10s4.477-10 10-10h80c5.523 0 10 4.477 10 10s-4.477 10-10 10z" fill="#d3cbe4"/></g></g><g id="XMLID_2219_"><g id="XMLID_1067_"><path id="XMLID_1068_" d="m336 146h-160c-5.523 0-10-4.477-10-10s4.477-10 10-10h160c5.522 0 10 4.477 10 10s-4.478 10-10 10z" fill="#d3cbe4"/></g></g><g id="XMLID_2214_"><g id="XMLID_1064_"><path id="XMLID_1065_" d="m336 186h-160c-5.523 0-10-4.477-10-10s4.477-10 10-10h160c5.522 0 10 4.477 10 10s-4.478 10-10 10z" fill="#d3cbe4"/></g></g><path id="XMLID_10033_" d="m391 236h-275l-80-30v165.667c0 29.959 24.374 54.333 54.334 54.333h300.667c19.299 0 35-15.701 35-35v-120c-.001-19.299-15.702-35-35.001-35z" fill="#b35324"/><path id="XMLID_10032_" d="m116 236h-50c-16.569 0-30-13.431-30-30 0-16.569 13.431-30 30-30h50z" fill="#883f2e"/></g><g id="XMLID_2201_" fill="#fbf3f3"><path id="XMLID_9964_" d="m289.827 276.758c-3.738-1.546-8.038-.692-10.898 2.168l-32.929 32.928-32.929-32.929c-2.861-2.86-7.161-3.715-10.898-2.168-3.737 1.548-6.173 5.194-6.173 9.239v90c0 5.522 4.477 10 10 10s10-4.478 10-10v-65.856l22.929 22.929c3.905 3.904 10.237 3.904 14.143 0l22.928-22.929v65.858c0 5.522 4.478 10 10 10s10-4.478 10-10v-90c0-4.046-2.436-7.692-6.173-9.24z"/><path id="XMLID_9963_" d="m172.402 278.315c-4.243-3.534-10.549-2.963-14.084 1.281-41.03 49.235-30.538 36.669-32.318 38.78v-32.379c0-5.522-4.477-10-10-10s-10 4.478-10 10v59.948 30.052c0 5.522 4.477 10 10 10s10-4.478 10-10v-26.38l6.532-7.838 25.016 39.563c2.944 4.655 9.119 6.066 13.796 3.107 4.668-2.951 6.06-9.129 3.108-13.797l-28.466-45.019 27.696-33.235c3.536-4.242 2.963-10.547-1.28-14.083z"/><path id="XMLID_9962_" d="m376 365.997h-40v-80c0-5.522-4.478-10-10-10-5.523 0-10 4.478-10 10v90c0 5.522 4.477 10 10 10h50c5.522 0 10-4.478 10-10s-4.478-10-10-10z"/></g></g></g></svg>