<svg enable-background="new 0 0 512 512" height="512" viewBox="0 0 512 512" width="512" xmlns="http://www.w3.org/2000/svg"><g id="_x34_0_x2C__m4a_x2C__file_type_x2C__file_format_x2C__file_extension_x2C__document"><g id="XMLID_2198_"><g id="XMLID_2209_"><path id="XMLID_5215_" d="m386 16h-20-210c-22.056 0-40 17.944-40 40v120l-10 30 10 30v220c0 22.056 17.944 40 40 40h280c22.056 0 40-17.944 40-40v-330-20l-70-20z" fill="#fff5f5"/><path id="XMLID_5214_" d="m386 106h90l-90-90z" fill="#ece6f2"/><g id="XMLID_2226_"><g id="XMLID_562_"><path id="XMLID_563_" d="m256 106h-80c-5.523 0-10-4.477-10-10s4.477-10 10-10h80c5.523 0 10 4.477 10 10s-4.477 10-10 10z" fill="#d3cbe4"/></g></g><g id="XMLID_2221_"><g id="XMLID_559_"><path id="XMLID_560_" d="m336 146h-160c-5.523 0-10-4.477-10-10s4.477-10 10-10h160c5.522 0 10 4.477 10 10s-4.478 10-10 10z" fill="#d3cbe4"/></g></g><g id="XMLID_2216_"><g id="XMLID_556_"><path id="XMLID_557_" d="m336 186h-160c-5.523 0-10-4.477-10-10s4.477-10 10-10h160c5.522 0 10 4.477 10 10s-4.478 10-10 10z" fill="#d3cbe4"/></g></g><path id="XMLID_5210_" d="m391 236h-275l-80-30v165.667c0 29.959 24.374 54.333 54.334 54.333h300.667c19.299 0 35-15.701 35-35v-120c-.001-19.299-15.702-35-35.001-35z" fill="#80aaff"/><path id="XMLID_5209_" d="m116 236h-50c-16.569 0-30-13.431-30-30 0-16.569 13.431-30 30-30h50z" fill="#6680ff"/></g><g id="XMLID_2201_" fill="#fbf3f3"><path id="XMLID_2206_" d="m346 275.997c-22.056 0-40 17.944-40 40v60c0 5.522 4.477 10 10 10 5.522 0 10-4.478 10-10v-20h40v20c0 5.522 4.477 10 10 10 5.522 0 10-4.478 10-10v-60c0-22.056-17.944-40-40-40zm-20 60v-20c0-11.028 8.972-20 20-20s20 8.972 20 20v20z"/><path id="XMLID_5138_" d="m169.827 276.758c-3.738-1.546-8.038-.692-10.898 2.168l-32.929 32.928-32.929-32.929c-2.86-2.86-7.161-3.715-10.898-2.168-3.737 1.548-6.173 5.194-6.173 9.239v90c0 5.522 4.477 10 10 10s10-4.478 10-10v-65.856l22.929 22.929c3.905 3.904 10.237 3.904 14.143 0l22.928-22.929v65.858c0 5.522 4.477 10 10 10s10-4.478 10-10v-90c0-4.046-2.437-7.692-6.173-9.24z"/><path id="XMLID_5137_" d="m276 335.997h-10v-10c0-5.522-4.477-10-10-10s-10 4.478-10 10v10h-23.82l22.764-45.528c2.47-4.94.468-10.946-4.472-13.416-4.939-2.47-10.947-.469-13.417 4.473l-30 60c-3.318 6.636 1.513 14.472 8.944 14.472h40v20c0 5.522 4.477 10 10 10s10-4.478 10-10v-20h10c5.522 0 10-4.478 10-10 .001-5.523-4.477-10.001-9.999-10.001z"/></g></g></g></svg>