<svg enable-background="new 0 0 512 512" height="512" viewBox="0 0 512 512" width="512" xmlns="http://www.w3.org/2000/svg"><g id="_x31_33_x2C__mp3_x2C__file_type_x2C__file_format_x2C__file_extension_x2C__document"><g id="XMLID_2198_"><g id="XMLID_2230_"><path id="XMLID_17283_" d="m386 16h-20-210c-22.056 0-40 17.944-40 40v120l-10 30 10 30v220c0 22.056 17.944 40 40 40h280c22.056 0 40-17.944 40-40v-330-20l-70-20z" fill="#fbf3f3"/><path id="XMLID_17282_" d="m386 106h90l-90-90z" fill="#ece6f2"/><g id="XMLID_2251_"><g id="XMLID_1851_"><path id="XMLID_1852_" d="m256 106h-80c-5.523 0-10-4.477-10-10s4.477-10 10-10h80c5.523 0 10 4.477 10 10s-4.477 10-10 10z" fill="#d3cbe4"/></g></g><g id="XMLID_2242_"><g id="XMLID_1848_"><path id="XMLID_1849_" d="m336 146h-160c-5.523 0-10-4.477-10-10s4.477-10 10-10h160c5.522 0 10 4.477 10 10s-4.478 10-10 10z" fill="#d3cbe4"/></g></g><g id="XMLID_2237_"><g id="XMLID_1845_"><path id="XMLID_1846_" d="m336 186h-160c-5.523 0-10-4.477-10-10s4.477-10 10-10h160c5.522 0 10 4.477 10 10s-4.478 10-10 10z" fill="#d3cbe4"/></g></g><path id="XMLID_17278_" d="m391 236h-275l-80-30v165.667c0 29.959 24.374 54.333 54.334 54.333h300.667c19.299 0 35-15.701 35-35v-120c-.001-19.299-15.702-35-35.001-35z" fill="#ff884d"/><path id="XMLID_17277_" d="m116 236h-50c-16.569 0-30-13.431-30-30 0-16.569 13.431-30 30-30h50z" fill="#ff415b"/></g><g id="XMLID_2201_"><g id="XMLID_2402_"><g id="XMLID_2413_"><path id="XMLID_2414_" d="m176 376c-5.523 0-10-4.478-10-10v-51.492l-22.191 27.739c-1.898 2.372-4.771 3.753-7.809 3.753s-5.911-1.381-7.809-3.753l-22.191-27.739v51.492c0 5.522-4.477 10-10 10s-10-4.478-10-10v-80c0-4.247 2.683-8.03 6.69-9.436 4.006-1.405 8.465-.127 11.119 3.189l32.191 40.239 32.191-40.239c2.653-3.316 7.111-4.593 11.119-3.189 4.007 1.406 6.69 5.189 6.69 9.436v80c0 5.522-4.477 10-10 10z" fill="#fbf3f3"/></g><g id="XMLID_2409_"><path id="XMLID_2410_" d="m251 346h-35c-5.523 0-10-4.478-10-10v-50c0-5.522 4.477-10 10-10h35c19.299 0 35 15.701 35 35s-15.701 35-35 35zm-25-20h25c8.271 0 15-6.728 15-15s-6.729-15-15-15h-25z" fill="#fbf3f3"/></g><g id="XMLID_2407_"><path id="XMLID_2408_" d="m216 376c-5.523 0-10-4.478-10-10v-40c0-5.522 4.477-10 10-10s10 4.478 10 10v40c0 5.522-4.477 10-10 10z" fill="#fbf3f3"/></g><g id="XMLID_2405_"><path id="XMLID_2406_" d="m366 336h-40c-5.523 0-10-4.478-10-10s4.477-10 10-10h30v-20h-40c-5.523 0-10-4.478-10-10s4.477-10 10-10h50c5.522 0 10 4.478 10 10v40c0 5.522-4.478 10-10 10z" fill="#fbf3f3"/></g><g id="XMLID_2403_"><path id="XMLID_2404_" d="m366 376h-50c-5.523 0-10-4.478-10-10s4.477-10 10-10h40v-20h-40c-5.523 0-10-4.478-10-10s4.477-10 10-10h50c5.522 0 10 4.478 10 10v40c0 5.522-4.478 10-10 10z" fill="#fbf3f3"/></g></g></g></g></g></svg>