<svg enable-background="new 0 0 512 512" height="512" viewBox="0 0 512 512" width="512" xmlns="http://www.w3.org/2000/svg"><g id="_x31_27_x2C__mp4_x2C__file_type_x2C__file_format_x2C__file_extension_x2C__document"><g id="XMLID_2198_"><g id="XMLID_2209_"><path id="XMLID_16604_" d="m386 16h-20-210c-22.056 0-40 17.944-40 40v120l-10 30 10 30v220c0 22.056 17.944 40 40 40h280c22.056 0 40-17.944 40-40v-330-20l-70-20z" fill="#fff5f5"/><path id="XMLID_16603_" d="m386 106h90l-90-90z" fill="#ece6f2"/><g id="XMLID_2226_"><g id="XMLID_1762_"><path id="XMLID_1763_" d="m256 106h-80c-5.523 0-10-4.477-10-10s4.477-10 10-10h80c5.523 0 10 4.477 10 10s-4.477 10-10 10z" fill="#d3cbe4"/></g></g><g id="XMLID_2221_"><g id="XMLID_1759_"><path id="XMLID_1760_" d="m336 146h-160c-5.523 0-10-4.477-10-10s4.477-10 10-10h160c5.522 0 10 4.477 10 10s-4.478 10-10 10z" fill="#d3cbe4"/></g></g><g id="XMLID_2216_"><g id="XMLID_1756_"><path id="XMLID_1757_" d="m336 186h-160c-5.523 0-10-4.477-10-10s4.477-10 10-10h160c5.522 0 10 4.477 10 10s-4.478 10-10 10z" fill="#d3cbe4"/></g></g><path id="XMLID_16599_" d="m391 236h-275l-80-30v165.667c0 29.959 24.374 54.333 54.334 54.333h300.667c19.299 0 35-15.701 35-35v-120c-.001-19.299-15.702-35-35.001-35z" fill="#fb3"/><path id="XMLID_16598_" d="m116 236h-50c-16.569 0-30-13.431-30-30 0-16.569 13.431-30 30-30h50z" fill="#ff884d"/></g><g id="XMLID_2201_" fill="#fbf3f3"><path id="XMLID_16548_" d="m179.31 276.56c-4.007-1.402-8.466-.127-11.119 3.19l-32.191 40.239-32.191-40.239c-2.653-3.316-7.112-4.594-11.119-3.19-4.007 1.406-6.69 5.19-6.69 9.437v80c0 5.522 4.477 10 10 10s10-4.478 10-10v-51.492l22.191 27.739c3.999 4.999 11.616 5.002 15.617 0l22.192-27.739v51.492c0 5.522 4.477 10 10 10s10-4.478 10-10v-80c0-4.247-2.683-8.03-6.69-9.437z"/><path id="XMLID_2205_" d="m251 275.997h-35c-5.523 0-10 4.478-10 10v80c0 5.522 4.477 10 10 10s10-4.478 10-10v-20h25c19.299 0 35-15.701 35-35s-15.701-35-35-35zm0 50h-25v-30h25c8.271 0 15 6.728 15 15s-6.729 15-15 15z"/><path id="XMLID_16545_" d="m366 335.997v-10c0-5.522-4.478-10-10-10-5.523 0-10 4.478-10 10v10h-22.769l31.451-55.039c2.74-4.795 1.074-10.903-3.722-13.643-4.792-2.739-10.902-1.075-13.643 3.722l-40 70c-1.769 3.095-1.756 6.897.033 9.98s5.085 4.98 8.649 4.98h40v10c0 5.522 4.477 10 10 10 5.522 0 10-4.478 10-10v-10c5.522 0 10-4.478 10-10 .001-5.522-4.477-10-9.999-10z"/></g></g></g></svg>