<svg enable-background="new 0 0 512 512" height="512" viewBox="0 0 512 512" width="512" xmlns="http://www.w3.org/2000/svg"><g id="_x35_5_x2C__msi_x2C__file_type_x2C__file_format_x2C__file_extension_x2C__document"><g id="XMLID_2198_"><g id="XMLID_2207_"><path id="XMLID_7133_" d="m386 16h-20-210c-22.056 0-40 17.944-40 40v120l-10 30 10 30v220c0 22.056 17.944 40 40 40h280c22.056 0 40-17.944 40-40v-330-20l-70-20z" fill="#fff5f5"/><path id="XMLID_7132_" d="m386 106h90l-90-90z" fill="#ece6f2"/><g id="XMLID_2224_"><g id="XMLID_771_"><path id="XMLID_772_" d="m256 106h-80c-5.523 0-10-4.477-10-10s4.477-10 10-10h80c5.523 0 10 4.477 10 10s-4.477 10-10 10z" fill="#d3cbe4"/></g></g><g id="XMLID_2219_"><g id="XMLID_761_"><path id="XMLID_762_" d="m336 146h-160c-5.523 0-10-4.477-10-10s4.477-10 10-10h160c5.522 0 10 4.477 10 10s-4.478 10-10 10z" fill="#d3cbe4"/></g></g><g id="XMLID_2214_"><g id="XMLID_758_"><path id="XMLID_759_" d="m336 186h-160c-5.523 0-10-4.477-10-10s4.477-10 10-10h160c5.522 0 10 4.477 10 10s-4.478 10-10 10z" fill="#d3cbe4"/></g></g><path id="XMLID_7128_" d="m391 236h-275l-80-30v165.667c0 29.959 24.374 54.333 54.334 54.333h300.667c19.299 0 35-15.701 35-35v-120c-.001-19.299-15.702-35-35.001-35z" fill="#b35324"/><path id="XMLID_7127_" d="m116 236h-50c-16.569 0-30-13.431-30-30 0-16.569 13.431-30 30-30h50z" fill="#883f2e"/></g><g id="XMLID_2201_" fill="#fbf3f3"><path id="XMLID_7065_" d="m209.827 276.758c-3.737-1.546-8.038-.692-10.898 2.168l-32.929 32.928-32.929-32.929c-6.278-6.278-17.071-1.831-17.071 7.071v90c0 5.522 4.477 10 10 10s10-4.478 10-10v-65.856l22.929 22.929c3.905 3.904 10.237 3.904 14.143 0l22.928-22.929v65.858c0 5.522 4.477 10 10 10s10-4.478 10-10v-90c0-4.046-2.437-7.692-6.173-9.24z"/><path id="XMLID_7064_" d="m268.5 295.997h30c5.522 0 10-4.478 10-10s-4.478-10-10-10h-30c-17.92 0-32.5 14.579-32.5 32.5s14.58 32.5 32.5 32.5h7.5c6.893 0 12.5 5.607 12.5 12.5 0 6.892-5.607 12.5-12.5 12.5h-30c-5.523 0-10 4.478-10 10s4.477 10 10 10h30c17.921 0 32.5-14.579 32.5-32.5s-14.579-32.5-32.5-32.5h-7.5c-6.893 0-12.5-5.608-12.5-12.5 0-6.893 5.607-12.5 12.5-12.5z"/><path id="XMLID_7063_" d="m336 275.997c-5.523 0-10 4.478-10 10v90c0 5.522 4.477 10 10 10 5.522 0 10-4.478 10-10v-90c0-5.522-4.478-10-10-10z"/></g></g></g></svg>