<svg enable-background="new 0 0 512 512" height="512" viewBox="0 0 512 512" width="512" xmlns="http://www.w3.org/2000/svg"><g id="_x31_0_x2C__nes_x2C__file_type_x2C__file_format_x2C__file_extension_x2C__document"><g id="XMLID_2198_"><g id="XMLID_2207_"><path id="XMLID_1277_" d="m386 16h-20-210c-22.056 0-40 17.944-40 40v120l-10 30 10 30v220c0 22.056 17.944 40 40 40h280c22.056 0 40-17.944 40-40v-330-20l-70-20z" fill="#fff5f5"/><path id="XMLID_1276_" d="m386 106h90l-90-90z" fill="#ece6f2"/><g id="XMLID_2224_"><g id="XMLID_151_"><path id="XMLID_152_" d="m256 106h-80c-5.523 0-10-4.477-10-10s4.477-10 10-10h80c5.523 0 10 4.477 10 10s-4.477 10-10 10z" fill="#d3cbe4"/></g></g><g id="XMLID_2219_"><g id="XMLID_148_"><path id="XMLID_149_" d="m336 146h-160c-5.523 0-10-4.477-10-10s4.477-10 10-10h160c5.522 0 10 4.477 10 10s-4.478 10-10 10z" fill="#d3cbe4"/></g></g><g id="XMLID_2214_"><g id="XMLID_145_"><path id="XMLID_146_" d="m336 186h-160c-5.523 0-10-4.477-10-10s4.477-10 10-10h160c5.522 0 10 4.477 10 10s-4.478 10-10 10z" fill="#d3cbe4"/></g></g><path id="XMLID_1272_" d="m391 236h-275l-80-30v165.667c0 29.959 24.374 54.333 54.334 54.333h300.667c19.299 0 35-15.701 35-35v-120c-.001-19.299-15.702-35-35.001-35z" fill="#fb3"/><path id="XMLID_1271_" d="m116 236h-50c-16.569 0-30-13.431-30-30 0-16.569 13.431-30 30-30h50z" fill="#ff884d"/></g><g id="XMLID_2201_" fill="#fbf3f3"><path id="XMLID_1206_" d="m266 295.997c5.523 0 10-4.478 10-10s-4.477-10-10-10h-40c-5.523 0-10 4.478-10 10v90c0 5.522 4.477 10 10 10h40c5.523 0 10-4.478 10-10s-4.477-10-10-10h-30v-30h30c5.523 0 10-4.478 10-10s-4.477-10-10-10h-30v-20z"/><path id="XMLID_1205_" d="m333.5 320.997h-5c-6.893 0-12.5-5.608-12.5-12.5 0-6.893 5.607-12.5 12.5-12.5h27.5c5.522 0 10-4.478 10-10s-4.478-10-10-10h-27.5c-17.921 0-32.5 14.579-32.5 32.5s14.579 32.5 32.5 32.5h5c6.893 0 12.5 5.607 12.5 12.5 0 6.892-5.607 12.5-12.5 12.5h-27.5c-5.523 0-10 4.478-10 10s4.477 10 10 10h27.5c17.921 0 32.5-14.579 32.5-32.5s-14.579-32.5-32.5-32.5z"/><path id="XMLID_1204_" d="m186 275.997c-5.523 0-10 4.478-10 10v60.854l-52.106-66.994c-2.623-3.372-7.097-4.707-11.139-3.319-4.041 1.387-6.755 5.187-6.755 9.459v90c0 5.522 4.477 10 10 10s10-4.478 10-10v-60.854l52.106 66.994c2.636 3.389 7.117 4.699 11.139 3.319 4.041-1.387 6.755-5.187 6.755-9.459v-90c0-5.522-4.477-10-10-10z"/></g></g></g></svg>