<svg enable-background="new 0 0 512 512" height="512" viewBox="0 0 512 512" width="512" xmlns="http://www.w3.org/2000/svg"><g id="_x32_2_x2C__odg_x2C__file_type_x2C__file_format_x2C__file_extension_x2C__document"><g id="XMLID_2198_"><g id="XMLID_2211_"><path id="XMLID_2858_" d="m386 16h-20-210c-22.056 0-40 17.944-40 40v120l-10 30 10 30v220c0 22.056 17.944 40 40 40h280c22.056 0 40-17.944 40-40v-330-20l-70-20z" fill="#fff5f5"/><path id="XMLID_2857_" d="m386 106h90l-90-90z" fill="#ece6f2"/><g id="XMLID_2228_"><g id="XMLID_319_"><path id="XMLID_320_" d="m256 106h-80c-5.523 0-10-4.477-10-10s4.477-10 10-10h80c5.523 0 10 4.477 10 10s-4.477 10-10 10z" fill="#d3cbe4"/></g></g><g id="XMLID_2223_"><g id="XMLID_316_"><path id="XMLID_317_" d="m336 146h-160c-5.523 0-10-4.477-10-10s4.477-10 10-10h160c5.522 0 10 4.477 10 10s-4.478 10-10 10z" fill="#d3cbe4"/></g></g><g id="XMLID_2218_"><g id="XMLID_309_"><path id="XMLID_314_" d="m336 186h-160c-5.523 0-10-4.477-10-10s4.477-10 10-10h160c5.522 0 10 4.477 10 10s-4.478 10-10 10z" fill="#d3cbe4"/></g></g><path id="XMLID_2853_" d="m391 236h-275l-80-30v165.667c0 29.959 24.374 54.333 54.334 54.333h300.667c19.299 0 35-15.701 35-35v-120c-.001-19.299-15.702-35-35.001-35z" fill="#fd3"/><path id="XMLID_2852_" d="m116 236h-50c-16.569 0-30-13.431-30-30 0-16.569 13.431-30 30-30h50z" fill="#fb3"/></g><g id="XMLID_2201_" fill="#fbf3f3"><path id="XMLID_2208_" d="m201 275.997h-5c-5.523 0-10 4.478-10 10v90c0 5.522 4.477 10 10 10h5c30.327 0 55-24.673 55-55s-24.673-55-55-55zm5 89.644v-69.287c16.939 2.434 30 17.042 30 34.644 0 17.601-13.061 32.209-30 34.643z"/><path id="XMLID_2782_" d="m376 320.997h-40c-5.523 0-10 4.478-10 10s4.477 10 10 10h28.545c-4.314 14.441-17.72 25-33.545 25-19.299 0-35-15.701-35-35s15.701-35 35-35c6.962 0 13.684 2.036 19.436 5.888 4.588 3.069 10.8 1.844 13.873-2.746 3.072-4.59 1.843-10.801-2.746-13.873-9.057-6.064-19.626-9.268-30.563-9.268-30.327 0-55 24.673-55 55s24.673 55 55 55 55-24.673 55-55c0-5.523-4.478-10.001-10-10.001z"/><path id="XMLID_2204_" d="m131 275.997c-19.299 0-35 15.701-35 35v40c0 19.299 15.701 35 35 35s35-15.701 35-35v-40c0-19.299-15.701-35-35-35zm15 75c0 8.271-6.729 15-15 15s-15-6.729-15-15v-40c0-8.272 6.729-15 15-15s15 6.728 15 15z"/></g></g></g></svg>