<svg enable-background="new 0 0 512 512" height="512" viewBox="0 0 512 512" width="512" xmlns="http://www.w3.org/2000/svg"><g id="_x35_9_x2C__odt_x2C__file_type_x2C__file_format_x2C__file_extension_x2C__document"><g id="XMLID_2198_"><g id="XMLID_2211_"><path id="XMLID_7674_" d="m386 16h-20-210c-22.056 0-40 17.944-40 40v120l-10 30 10 30v220c0 22.056 17.944 40 40 40h280c22.056 0 40-17.944 40-40v-330-20l-70-20z" fill="#fff5f5"/><path id="XMLID_7673_" d="m386 106h90l-90-90z" fill="#ece6f2"/><g id="XMLID_2224_"><g id="XMLID_822_"><path id="XMLID_823_" d="m256 106h-80c-5.523 0-10-4.477-10-10s4.477-10 10-10h80c5.523 0 10 4.477 10 10s-4.477 10-10 10z" fill="#d3cbe4"/></g></g><g id="XMLID_2219_"><g id="XMLID_816_"><path id="XMLID_817_" d="m336 146h-160c-5.523 0-10-4.477-10-10s4.477-10 10-10h160c5.522 0 10 4.477 10 10s-4.478 10-10 10z" fill="#d3cbe4"/></g></g><g id="XMLID_2214_"><g id="XMLID_813_"><path id="XMLID_814_" d="m336 186h-160c-5.523 0-10-4.477-10-10s4.477-10 10-10h160c5.522 0 10 4.477 10 10s-4.478 10-10 10z" fill="#d3cbe4"/></g></g><path id="XMLID_7669_" d="m391 236h-275l-80-30v165.667c0 29.959 24.374 54.333 54.334 54.333h300.667c19.299 0 35-15.701 35-35v-120c-.001-19.299-15.702-35-35.001-35z" fill="#76e7fc"/><path id="XMLID_7668_" d="m116 236h-50c-16.569 0-30-13.431-30-30 0-16.569 13.431-30 30-30h50z" fill="#69cffc"/></g><g id="XMLID_2201_" fill="#fbf3f3"><path id="XMLID_7597_" d="m356 275.997h-60c-5.523 0-10 4.478-10 10s4.477 10 10 10h20v80c0 5.522 4.477 10 10 10 5.522 0 10-4.478 10-10v-80h20c5.522 0 10-4.478 10-10s-4.478-10-10-10z"/><path id="XMLID_2207_" d="m221 275.997h-5c-5.523 0-10 4.478-10 10v90c0 5.522 4.477 10 10 10h5c30.327 0 55-24.673 55-55s-24.673-55-55-55zm5 89.644v-69.287c16.939 2.434 30 17.042 30 34.644 0 17.601-13.061 32.209-30 34.643z"/><path id="XMLID_2204_" d="m151 275.997c-19.299 0-35 15.701-35 35v40c0 19.299 15.701 35 35 35s35-15.701 35-35v-40c0-19.299-15.701-35-35-35zm15 75c0 8.271-6.729 15-15 15s-15-6.729-15-15v-40c0-8.272 6.729-15 15-15s15 6.728 15 15z"/></g></g></g></svg>