<svg enable-background="new 0 0 512 512" height="512" viewBox="0 0 512 512" width="512" xmlns="http://www.w3.org/2000/svg"><g id="_x31_38_x2C__png_x2C__file_type_x2C__file_format_x2C__file_extension_x2C__document"><g id="XMLID_2198_"><g id="XMLID_2226_"><path id="XMLID_17824_" d="m386 16h-20-210c-22.056 0-40 17.944-40 40v120l-10 30 10 30v220c0 22.056 17.944 40 40 40h280c22.056 0 40-17.944 40-40v-330-20l-70-20z" fill="#fbf3f3"/><path id="XMLID_17823_" d="m386 106h90l-90-90z" fill="#ece6f2"/><g id="XMLID_2243_"><g id="XMLID_1923_"><path id="XMLID_1924_" d="m256 106h-80c-5.523 0-10-4.477-10-10s4.477-10 10-10h80c5.523 0 10 4.477 10 10s-4.477 10-10 10z" fill="#d3cbe4"/></g></g><g id="XMLID_2238_"><g id="XMLID_1920_"><path id="XMLID_1921_" d="m336 146h-160c-5.523 0-10-4.477-10-10s4.477-10 10-10h160c5.522 0 10 4.477 10 10s-4.478 10-10 10z" fill="#d3cbe4"/></g></g><g id="XMLID_2233_"><g id="XMLID_1916_"><path id="XMLID_1917_" d="m336 186h-160c-5.523 0-10-4.477-10-10s4.477-10 10-10h160c5.522 0 10 4.477 10 10s-4.478 10-10 10z" fill="#d3cbe4"/></g></g><path id="XMLID_17819_" d="m391 236h-275l-80-30v165.667c0 29.959 24.374 54.333 54.334 54.333h300.667c19.299 0 35-15.701 35-35v-120c-.001-19.299-15.702-35-35.001-35z" fill="#883f2e"/><path id="XMLID_17818_" d="m116 236h-50c-16.569 0-30-13.431-30-30 0-16.569 13.431-30 30-30h50z" fill="#56281b"/></g><g id="XMLID_2201_"><g id="XMLID_2051_"><g id="XMLID_2065_"><path id="XMLID_2311_" d="m131 346h-35c-5.523 0-10-4.478-10-10v-50c0-5.522 4.477-10 10-10h35c19.299 0 35 15.701 35 35s-15.701 35-35 35zm-25-20h25c8.271 0 15-6.728 15-15s-6.729-15-15-15h-25z" fill="#fbf3f3"/></g><g id="XMLID_2063_"><path id="XMLID_2064_" d="m96 386c-5.523 0-10-4.478-10-10v-50c0-5.522 4.477-10 10-10s10 4.478 10 10v50c0 5.522-4.477 10-10 10z" fill="#fbf3f3"/></g><g id="XMLID_2061_"><path id="XMLID_2062_" d="m331 386c-30.327 0-55-24.673-55-55s24.673-55 55-55c10.938 0 21.507 3.205 30.563 9.269 4.589 3.072 5.818 9.283 2.746 13.873-3.073 4.59-9.285 5.816-13.873 2.746-5.752-3.852-12.474-5.888-19.436-5.888-19.299 0-35 15.701-35 35s15.701 35 35 35c15.825 0 29.231-10.559 33.545-25h-28.545c-5.523 0-10-4.478-10-10s4.477-10 10-10h40c5.522 0 10 4.478 10 10 0 30.327-24.673 55-55 55z" fill="#fbf3f3"/></g><g id="XMLID_2059_"><path id="XMLID_2060_" d="m237.258 380.856-31.258-56.265v51.409c0 5.522-4.477 10-10 10s-10-4.478-10-10v-90c0-4.557 3.081-8.537 7.492-9.681 4.412-1.141 9.037.841 11.25 4.824l31.258 56.266v-51.409c0-5.522 4.477-10 10-10s10 4.478 10 10v90c0 4.557-3.081 8.537-7.492 9.681-4.401 1.138-9.03-.83-11.25-4.825z" fill="#fbf3f3"/></g></g></g></g></g></svg>