<svg enable-background="new 0 0 512 512" height="512" viewBox="0 0 512 512" width="512" xmlns="http://www.w3.org/2000/svg"><g id="_x31_39_x2C__ppt_x2C__file_type_x2C__file_format_x2C__file_extension_x2C__document"><g id="XMLID_2198_"><g id="XMLID_2238_"><path id="XMLID_17949_" d="m386 16h-20-210c-22.056 0-40 17.944-40 40v120l-10 30 10 30v220c0 22.056 17.944 40 40 40h280c22.056 0 40-17.944 40-40v-330-20l-70-20z" fill="#fbf3f3"/><path id="XMLID_17948_" d="m386 106h90l-90-90z" fill="#ece6f2"/><g id="XMLID_2261_"><g id="XMLID_1937_"><path id="XMLID_1938_" d="m256 106h-80c-5.523 0-10-4.477-10-10s4.477-10 10-10h80c5.523 0 10 4.477 10 10s-4.477 10-10 10z" fill="#d3cbe4"/></g></g><g id="XMLID_2254_"><g id="XMLID_1934_"><path id="XMLID_1935_" d="m336 146h-160c-5.523 0-10-4.477-10-10s4.477-10 10-10h160c5.522 0 10 4.477 10 10s-4.478 10-10 10z" fill="#d3cbe4"/></g></g><g id="XMLID_2249_"><g id="XMLID_1931_"><path id="XMLID_1932_" d="m336 186h-160c-5.523 0-10-4.477-10-10s4.477-10 10-10h160c5.522 0 10 4.477 10 10s-4.478 10-10 10z" fill="#d3cbe4"/></g></g><path id="XMLID_17944_" d="m391 236h-275l-80-30v165.667c0 29.959 24.374 54.333 54.334 54.333h300.667c19.299 0 35-15.701 35-35v-120c-.001-19.299-15.702-35-35.001-35z" fill="#20ca78"/><path id="XMLID_17943_" d="m116 236h-50c-16.569 0-30-13.431-30-30 0-16.569 13.431-30 30-30h50z" fill="#19a78e"/></g><g id="XMLID_2201_"><g id="XMLID_2426_"><g id="XMLID_2439_"><path id="XMLID_2440_" d="m251 346h-35c-5.523 0-10-4.478-10-10v-50c0-5.522 4.477-10 10-10h35c19.299 0 35 15.701 35 35s-15.701 35-35 35zm-25-20h25c8.271 0 15-6.728 15-15s-6.729-15-15-15h-25z" fill="#fbf3f3"/></g><g id="XMLID_2437_"><path id="XMLID_2438_" d="m216 386c-5.523 0-10-4.478-10-10v-50c0-5.522 4.477-10 10-10s10 4.478 10 10v50c0 5.522-4.477 10-10 10z" fill="#fbf3f3"/></g><g id="XMLID_2433_"><path id="XMLID_2434_" d="m151 346h-35c-5.523 0-10-4.478-10-10v-50c0-5.522 4.477-10 10-10h35c19.299 0 35 15.701 35 35s-15.701 35-35 35zm-25-20h25c8.271 0 15-6.728 15-15s-6.729-15-15-15h-25z" fill="#fbf3f3"/></g><g id="XMLID_2431_"><path id="XMLID_2432_" d="m116 386c-5.523 0-10-4.478-10-10v-50c0-5.522 4.477-10 10-10s10 4.478 10 10v50c0 5.522-4.477 10-10 10z" fill="#fbf3f3"/></g><g id="XMLID_2429_"><path id="XMLID_2430_" d="m366 296h-60c-5.523 0-10-4.478-10-10s4.477-10 10-10h60c5.522 0 10 4.478 10 10s-4.478 10-10 10z" fill="#fbf3f3"/></g><g id="XMLID_2427_"><path id="XMLID_2428_" d="m336 386c-5.523 0-10-4.478-10-10v-90c0-5.522 4.477-10 10-10 5.522 0 10 4.478 10 10v90c0 5.522-4.478 10-10 10z" fill="#fbf3f3"/></g></g></g></g></g></svg>