<svg enable-background="new 0 0 512 512" height="512" viewBox="0 0 512 512" width="512" xmlns="http://www.w3.org/2000/svg"><g id="_x31_31_x2C__pptx_x2C__file_type_x2C__file_format_x2C__file_extension_x2C__document"><g id="XMLID_2198_"><g id="XMLID_2224_"><path id="XMLID_17082_" d="m386 16h-20-210c-22.056 0-40 17.944-40 40v120l-10 30 10 30v220c0 22.056 17.944 40 40 40h280c22.056 0 40-17.944 40-40v-330-20l-70-20z" fill="#fff5f5"/><path id="XMLID_17081_" d="m386 106h90l-90-90z" fill="#ece6f2"/><g id="XMLID_2241_"><g id="XMLID_1821_"><path id="XMLID_1822_" d="m256 106h-80c-5.523 0-10-4.477-10-10s4.477-10 10-10h80c5.523 0 10 4.477 10 10s-4.477 10-10 10z" fill="#d3cbe4"/></g></g><g id="XMLID_2236_"><g id="XMLID_1818_"><path id="XMLID_1819_" d="m336 146h-160c-5.523 0-10-4.477-10-10s4.477-10 10-10h160c5.522 0 10 4.477 10 10s-4.478 10-10 10z" fill="#d3cbe4"/></g></g><g id="XMLID_2231_"><g id="XMLID_1815_"><path id="XMLID_1816_" d="m336 186h-160c-5.523 0-10-4.477-10-10s4.477-10 10-10h160c5.522 0 10 4.477 10 10s-4.478 10-10 10z" fill="#d3cbe4"/></g></g><path id="XMLID_17077_" d="m391 236h-275l-80-30v165.667c0 29.959 24.374 54.333 54.334 54.333h300.667c19.299 0 35-15.701 35-35v-120c-.001-19.299-15.702-35-35.001-35z" fill="#b35324"/><path id="XMLID_17076_" d="m116 236h-50c-16.569 0-30-13.431-30-30 0-16.569 13.431-30 30-30h50z" fill="#883f2e"/></g><g id="XMLID_2201_"><g id="XMLID_2222_"><path id="XMLID_17062_" d="m331.144 384.741c-4.828-2.682-6.567-8.77-3.885-13.598l50-90c2.682-4.829 8.772-6.565 13.598-3.885 4.828 2.682 6.567 8.77 3.885 13.598l-50 90c-2.682 4.827-8.769 6.568-13.598 3.885z" fill="#fbf3f3"/></g><g id="XMLID_2220_"><path id="XMLID_17061_" d="m386.009 386.002c-3.514 0-6.923-1.855-8.75-5.146l-50-90c-2.683-4.828-.943-10.916 3.885-13.598 4.826-2.681 10.916-.944 13.598 3.885l50 90c2.683 4.828.943 10.916-3.885 13.598-1.539.855-3.205 1.261-4.848 1.261z" fill="#fbf3f3"/></g><g id="XMLID_2218_"><path id="XMLID_17060_" d="m306 296h-60c-5.523 0-10-4.478-10-10s4.477-10 10-10h60c5.522 0 10 4.478 10 10s-4.478 10-10 10z" fill="#fbf3f3"/></g><g id="XMLID_2216_"><path id="XMLID_17059_" d="m276 386c-5.523 0-10-4.478-10-10v-90c0-5.522 4.477-10 10-10 5.522 0 10 4.478 10 10v90c0 5.522-4.478 10-10 10z" fill="#fbf3f3"/></g><g id="XMLID_2212_"><path id="XMLID_2213_" d="m111 346h-25c-5.523 0-10-4.478-10-10v-50c0-5.522 4.477-10 10-10h25c19.299 0 35 15.701 35 35s-15.701 35-35 35zm-15-20h15c8.271 0 15-6.728 15-15s-6.729-15-15-15h-15z" fill="#fbf3f3"/></g><g id="XMLID_2210_"><path id="XMLID_17056_" d="m86 386c-5.523 0-10-4.478-10-10v-50c0-5.522 4.477-10 10-10s10 4.478 10 10v50c0 5.522-4.477 10-10 10z" fill="#fbf3f3"/></g><g id="XMLID_2206_"><path id="XMLID_2207_" d="m191 346h-25c-5.523 0-10-4.478-10-10v-50c0-5.522 4.477-10 10-10h25c19.299 0 35 15.701 35 35s-15.701 35-35 35zm-15-20h15c8.271 0 15-6.728 15-15s-6.729-15-15-15h-15z" fill="#fbf3f3"/></g><g id="XMLID_2204_"><path id="XMLID_17053_" d="m166 386c-5.523 0-10-4.478-10-10v-50c0-5.522 4.477-10 10-10s10 4.478 10 10v50c0 5.522-4.477 10-10 10z" fill="#fbf3f3"/></g></g></g></g></svg>