<svg enable-background="new 0 0 512 512" height="512" viewBox="0 0 512 512" width="512" xmlns="http://www.w3.org/2000/svg"><g id="_x31_37_x2C__psd_x2C__file_type_x2C__file_format_x2C__file_extension_x2C__document"><g id="XMLID_2198_"><g id="XMLID_2230_"><path id="XMLID_17720_" d="m386 16h-20-210c-22.056 0-40 17.944-40 40v120l-10 30 10 30v220c0 22.056 17.944 40 40 40h280c22.056 0 40-17.944 40-40v-330-20l-70-20z" fill="#fbf3f3"/><path id="XMLID_17719_" d="m386 106h90l-90-90z" fill="#ece6f2"/><g id="XMLID_2251_"><g id="XMLID_1901_"><path id="XMLID_1904_" d="m256 106h-80c-5.523 0-10-4.477-10-10s4.477-10 10-10h80c5.523 0 10 4.477 10 10s-4.477 10-10 10z" fill="#d3cbe4"/></g></g><g id="XMLID_2242_"><g id="XMLID_1898_"><path id="XMLID_1899_" d="m336 146h-160c-5.523 0-10-4.477-10-10s4.477-10 10-10h160c5.522 0 10 4.477 10 10s-4.478 10-10 10z" fill="#d3cbe4"/></g></g><g id="XMLID_2237_"><g id="XMLID_1895_"><path id="XMLID_1896_" d="m336 186h-160c-5.523 0-10-4.477-10-10s4.477-10 10-10h160c5.522 0 10 4.477 10 10s-4.478 10-10 10z" fill="#d3cbe4"/></g></g><path id="XMLID_17715_" d="m391 236h-275l-80-30v165.667c0 29.959 24.374 54.333 54.334 54.333h300.667c19.299 0 35-15.701 35-35v-120c-.001-19.299-15.702-35-35.001-35z" fill="#80aaff"/><path id="XMLID_17714_" d="m116 236h-50c-16.569 0-30-13.431-30-30 0-16.569 13.431-30 30-30h50z" fill="#6680ff"/></g><g id="XMLID_2201_"><g id="XMLID_2370_"><g id="XMLID_2384_"><path id="XMLID_2385_" d="m151 346h-35c-5.523 0-10-4.478-10-10v-50c0-5.522 4.477-10 10-10h35c19.299 0 35 15.701 35 35s-15.701 35-35 35zm-25-20h25c8.271 0 15-6.728 15-15s-6.729-15-15-15h-25z" fill="#fbf3f3"/></g><g id="XMLID_2377_"><path id="XMLID_2378_" d="m116 376c-5.523 0-10-4.478-10-10v-40c0-5.522 4.477-10 10-10s10 4.478 10 10v40c0 5.522-4.477 10-10 10z" fill="#fbf3f3"/></g><g id="XMLID_2373_"><path id="XMLID_2374_" d="m326 376h-20c-5.523 0-10-4.478-10-10v-80c0-5.522 4.477-10 10-10h20c27.57 0 50 22.43 50 50s-22.43 50-50 50zm-10-20h10c16.542 0 30-13.458 30-30s-13.458-30-30-30h-10z" fill="#fbf3f3"/></g><g id="XMLID_2371_"><path id="XMLID_2372_" d="m246 376h-30c-5.523 0-10-4.478-10-10s4.477-10 10-10h30c5.514 0 10-4.486 10-10s-4.486-10-10-10h-10c-16.542 0-30-13.458-30-30s13.458-30 30-30h30c5.523 0 10 4.478 10 10s-4.477 10-10 10h-30c-5.514 0-10 4.486-10 10s4.486 10 10 10h10c16.542 0 30 13.458 30 30s-13.458 30-30 30z" fill="#fbf3f3"/></g></g></g></g></g></svg>