<svg enable-background="new 0 0 512 512" height="512" viewBox="0 0 512 512" width="512" xmlns="http://www.w3.org/2000/svg"><g id="_x31_05_x2C__raw_x2C__file_type_x2C__file_format_x2C__file_extension_x2C__document"><g id="XMLID_2198_"><g id="XMLID_2211_"><path id="XMLID_13753_" d="m386 16h-20-210c-22.056 0-40 17.944-40 40v120l-10 30 10 30v220c0 22.056 17.944 40 40 40h280c22.056 0 40-17.944 40-40v-330-20l-70-20z" fill="#fff5f5"/><path id="XMLID_13752_" d="m386 106h90l-90-90z" fill="#ece6f2"/><g id="XMLID_2228_"><g id="XMLID_1450_"><path id="XMLID_1451_" d="m256 106h-80c-5.523 0-10-4.477-10-10s4.477-10 10-10h80c5.523 0 10 4.477 10 10s-4.477 10-10 10z" fill="#d3cbe4"/></g></g><g id="XMLID_2223_"><g id="XMLID_1447_"><path id="XMLID_1448_" d="m336 146h-160c-5.523 0-10-4.477-10-10s4.477-10 10-10h160c5.522 0 10 4.477 10 10s-4.478 10-10 10z" fill="#d3cbe4"/></g></g><g id="XMLID_2218_"><g id="XMLID_1444_"><path id="XMLID_1445_" d="m336 186h-160c-5.523 0-10-4.477-10-10s4.477-10 10-10h160c5.522 0 10 4.477 10 10s-4.478 10-10 10z" fill="#d3cbe4"/></g></g><path id="XMLID_13748_" d="m391 236h-275l-80-30v165.667c0 29.959 24.374 54.333 54.334 54.333h300.667c19.299 0 35-15.701 35-35v-120c-.001-19.299-15.702-35-35.001-35z" fill="#4e4e88"/><path id="XMLID_13747_" d="m116 236h-50c-16.569 0-30-13.431-30-30 0-16.569 13.431-30 30-30h50z" fill="#363671"/></g><g id="XMLID_2201_" fill="#fbf3f3"><path id="XMLID_2208_" d="m161.547 367.677-32.52-21.68h1.973c19.299 0 35-15.701 35-35s-15.701-35-35-35h-35c-5.523 0-10 4.478-10 10v50c-.004 4.068 0-14.708 0 40 0 5.522 4.477 10 10 10s10-4.478 10-10v-21.315l44.453 29.636c1.705 1.137 3.631 1.681 5.538 1.681 3.232 0 6.403-1.563 8.33-4.454 3.063-4.596 1.821-10.805-2.774-13.868zm-55.547-71.68h25c8.271 0 15 6.728 15 15 0 8.271-6.729 15-15 15h-25z"/><path id="XMLID_2205_" d="m226 275.997c-22.056 0-40 17.944-40 40v60c0 5.522 4.477 10 10 10s10-4.478 10-10v-20h40v20c0 5.522 4.477 10 10 10s10-4.478 10-10v-60c0-22.056-17.944-40-40-40zm-20 60v-20c0-11.028 8.972-20 20-20s20 8.972 20 20v20z"/><path id="XMLID_13668_" d="m376 275.997c-5.523 0-10 4.478-10 10v65.857l-22.929-22.929c-3.906-3.904-10.236-3.904-14.143 0l-22.928 22.929v-65.857c0-5.522-4.478-10-10-10-5.523 0-10 4.478-10 10v90c0 4.045 2.436 7.691 6.173 9.239 3.737 1.546 8.039.692 10.898-2.168l32.929-32.928 32.929 32.929c1.913 1.913 4.471 2.929 7.073 2.929 1.288 0 2.588-.249 3.825-.761 3.736-1.548 6.173-5.194 6.173-9.239v-90c0-5.523-4.478-10.001-10-10.001z"/></g></g></g></svg>