<svg enable-background="new 0 0 512 512" height="512" viewBox="0 0 512 512" width="512" xmlns="http://www.w3.org/2000/svg"><g id="_x32_7_x2C__rm_x2C__file_type_x2C__file_format_x2C__file_extension_x2C__document"><g id="XMLID_2198_"><g id="XMLID_2208_"><path id="XMLID_3540_" d="m386 16h-20-210c-22.056 0-40 17.944-40 40v120l-10 30 10 30v220c0 22.056 17.944 40 40 40h280c22.056 0 40-17.944 40-40v-330-20l-70-20z" fill="#fff5f5"/><path id="XMLID_3539_" d="m386 106h90l-90-90z" fill="#ece6f2"/><g id="XMLID_2225_"><g id="XMLID_391_"><path id="XMLID_392_" d="m256 106h-80c-5.523 0-10-4.477-10-10s4.477-10 10-10h80c5.523 0 10 4.477 10 10s-4.477 10-10 10z" fill="#d3cbe4"/></g></g><g id="XMLID_2220_"><g id="XMLID_381_"><path id="XMLID_382_" d="m336 146h-160c-5.523 0-10-4.477-10-10s4.477-10 10-10h160c5.522 0 10 4.477 10 10s-4.478 10-10 10z" fill="#d3cbe4"/></g></g><g id="XMLID_2215_"><g id="XMLID_378_"><path id="XMLID_379_" d="m336 186h-160c-5.523 0-10-4.477-10-10s4.477-10 10-10h160c5.522 0 10 4.477 10 10s-4.478 10-10 10z" fill="#d3cbe4"/></g></g><path id="XMLID_3535_" d="m391 236h-275l-80-30v165.667c0 29.959 24.374 54.333 54.334 54.333h300.667c19.299 0 35-15.701 35-35v-120c-.001-19.299-15.702-35-35.001-35z" fill="#fd3"/><path id="XMLID_3534_" d="m116 236h-50c-16.569 0-30-13.431-30-30 0-16.569 13.431-30 30-30h50z" fill="#fb3"/></g><g id="XMLID_2201_" fill="#fbf3f3"><path id="XMLID_2205_" d="m211.547 367.677-32.52-21.68h1.973c19.299 0 35-15.701 35-35s-15.701-35-35-35h-35c-5.523 0-10 4.478-10 10v50 .068 39.932c0 5.522 4.477 10 10 10s10-4.478 10-10v-21.315l44.453 29.636c4.575 3.05 10.791 1.842 13.867-2.773 3.064-4.596 1.822-10.805-2.773-13.868zm-55.547-71.68h25c8.271 0 15 6.728 15 15 0 8.271-6.729 15-15 15h-25z"/><path id="XMLID_3465_" d="m329.827 276.758c-3.737-1.546-8.038-.692-10.898 2.168l-32.929 32.928-32.929-32.929c-2.86-2.86-7.162-3.715-10.898-2.168-3.737 1.548-6.173 5.194-6.173 9.239v90c0 5.522 4.477 10 10 10s10-4.478 10-10v-65.856l22.929 22.929c3.906 3.904 10.236 3.904 14.143 0l22.928-22.929v65.858c0 5.522 4.477 10 10 10 5.522 0 10-4.478 10-10v-90c0-4.046-2.436-7.692-6.173-9.24z"/></g></g></g></svg>