<svg enable-background="new 0 0 512 512" height="512" viewBox="0 0 512 512" width="512" xmlns="http://www.w3.org/2000/svg"><g id="_x37_1_x2C__rss_x2C__file_type_x2C__file_format_x2C__file_extension_x2C__document"><g id="XMLID_2198_"><g id="XMLID_2209_"><path id="XMLID_9278_" d="m386 16h-20-210c-22.056 0-40 17.944-40 40v120l-10 30 10 30v220c0 22.056 17.944 40 40 40h280c22.056 0 40-17.944 40-40v-330-20l-70-20z" fill="#fff5f5"/><path id="XMLID_9277_" d="m386 106h90l-90-90z" fill="#ece6f2"/><g id="XMLID_2226_"><g id="XMLID_985_"><path id="XMLID_986_" d="m256 106h-80c-5.523 0-10-4.477-10-10s4.477-10 10-10h80c5.523 0 10 4.477 10 10s-4.477 10-10 10z" fill="#d3cbe4"/></g></g><g id="XMLID_2221_"><g id="XMLID_982_"><path id="XMLID_983_" d="m336 146h-160c-5.523 0-10-4.477-10-10s4.477-10 10-10h160c5.522 0 10 4.477 10 10s-4.478 10-10 10z" fill="#d3cbe4"/></g></g><g id="XMLID_2216_"><g id="XMLID_979_"><path id="XMLID_980_" d="m336 186h-160c-5.523 0-10-4.477-10-10s4.477-10 10-10h160c5.522 0 10 4.477 10 10s-4.478 10-10 10z" fill="#d3cbe4"/></g></g><path id="XMLID_9273_" d="m391 236h-275l-80-30v165.667c0 29.959 24.374 54.333 54.334 54.333h300.667c19.299 0 35-15.701 35-35v-120c-.001-19.299-15.702-35-35.001-35z" fill="#80aaff"/><path id="XMLID_9272_" d="m116 236h-50c-16.569 0-30-13.431-30-30 0-16.569 13.431-30 30-30h50z" fill="#6680ff"/></g><g id="XMLID_2201_" fill="#fbf3f3"><path id="XMLID_2206_" d="m191.547 367.677-32.52-21.68h1.973c19.299 0 35-15.701 35-35s-15.701-35-35-35h-35c-5.523 0-10 4.478-10 10v40c0 14.581-.008 8.563 0 10.068v39.932c0 5.522 4.477 10 10 10s10-4.478 10-10v-21.315l44.453 29.636c4.575 3.05 10.791 1.842 13.867-2.773 3.064-4.596 1.822-10.805-2.773-13.868zm-55.547-71.68h25c8.271 0 15 6.728 15 15 0 8.271-6.729 15-15 15h-25z"/><path id="XMLID_9199_" d="m248.5 295.997h30c5.522 0 10-4.478 10-10s-4.478-10-10-10h-30c-17.92 0-32.5 14.579-32.5 32.5s14.58 32.5 32.5 32.5h7.5c6.893 0 12.5 5.607 12.5 12.5 0 6.892-5.607 12.5-12.5 12.5h-30c-5.523 0-10 4.478-10 10s4.477 10 10 10h30c17.921 0 32.5-14.579 32.5-32.5s-14.579-32.5-32.5-32.5h-7.5c-6.893 0-12.5-5.608-12.5-12.5 0-6.893 5.607-12.5 12.5-12.5z"/><path id="XMLID_9198_" d="m343.5 320.997h-7.5c-6.893 0-12.5-5.608-12.5-12.5 0-6.893 5.607-12.5 12.5-12.5h30c5.522 0 10-4.478 10-10s-4.478-10-10-10h-30c-17.921 0-32.5 14.579-32.5 32.5s14.579 32.5 32.5 32.5h7.5c6.893 0 12.5 5.607 12.5 12.5 0 6.892-5.607 12.5-12.5 12.5h-30c-5.523 0-10 4.478-10 10s4.477 10 10 10h30c17.921 0 32.5-14.579 32.5-32.5s-14.579-32.5-32.5-32.5z"/></g></g></g></svg>