<svg enable-background="new 0 0 512 512" height="512" viewBox="0 0 512 512" width="512" xmlns="http://www.w3.org/2000/svg"><g id="_x30_5_x2C__sdf_x2C__file_type_x2C__file_format_x2C__file_extension_x2C__document"><g id="XMLID_2198_"><g id="XMLID_2209_"><path id="XMLID_645_" d="m386 16h-20-210c-22.056 0-40 17.944-40 40v120l-10 30 10 30v220c0 22.056 17.944 40 40 40h280c22.056 0 40-17.944 40-40v-330-20l-70-20z" fill="#fff5f5"/><path id="XMLID_644_" d="m386 106h90l-90-90z" fill="#ece6f2"/><g id="XMLID_2222_"><g id="XMLID_79_"><path id="XMLID_80_" d="m256 106h-80c-5.523 0-10-4.477-10-10s4.477-10 10-10h80c5.523 0 10 4.477 10 10s-4.477 10-10 10z" fill="#d3cbe4"/></g></g><g id="XMLID_2217_"><g id="XMLID_76_"><path id="XMLID_77_" d="m336 146h-160c-5.523 0-10-4.477-10-10s4.477-10 10-10h160c5.522 0 10 4.477 10 10s-4.478 10-10 10z" fill="#d3cbe4"/></g></g><g id="XMLID_2212_"><g id="XMLID_73_"><path id="XMLID_74_" d="m336 186h-160c-5.523 0-10-4.477-10-10s4.477-10 10-10h160c5.522 0 10 4.477 10 10s-4.478 10-10 10z" fill="#d3cbe4"/></g></g><path id="XMLID_640_" d="m391 236h-275l-80-30v165.667c0 29.959 24.374 54.333 54.334 54.333h300.667c19.299 0 35-15.701 35-35v-120c-.001-19.299-15.702-35-35.001-35z" fill="#76e7fc"/><path id="XMLID_639_" d="m116 236h-50c-16.569 0-30-13.431-30-30 0-16.569 13.431-30 30-30h50z" fill="#69cffc"/></g><g id="XMLID_2201_" fill="#fbf3f3"><path id="XMLID_571_" d="m356 275.997h-50c-5.523 0-10 4.478-10 10v90c0 5.522 4.477 10 10 10 5.522 0 10-4.478 10-10v-40h30c5.522 0 10-4.478 10-10s-4.478-10-10-10h-30v-20h40c5.522 0 10-4.478 10-10s-4.478-10-10-10z"/><path id="XMLID_2205_" d="m221 275.997h-5c-5.523 0-10 4.478-10 10v90c0 5.522 4.477 10 10 10h5c30.327 0 55-24.673 55-55s-24.673-55-55-55zm5 89.644v-69.287c16.939 2.434 30 17.042 30 34.644 0 17.601-13.061 32.209-30 34.643z"/><path id="XMLID_568_" d="m148.5 295.997h27.5c5.523 0 10-4.478 10-10s-4.477-10-10-10h-27.5c-17.92 0-32.5 14.579-32.5 32.5s14.58 32.5 32.5 32.5h5c6.893 0 12.5 5.607 12.5 12.5 0 6.892-5.607 12.5-12.5 12.5h-27.5c-5.523 0-10 4.478-10 10s4.477 10 10 10h27.5c17.92 0 32.5-14.579 32.5-32.5s-14.58-32.5-32.5-32.5h-5c-6.893 0-12.5-5.608-12.5-12.5 0-6.893 5.607-12.5 12.5-12.5z"/></g></g></g></svg>