<svg enable-background="new 0 0 512 512" height="512" viewBox="0 0 512 512" width="512" xmlns="http://www.w3.org/2000/svg"><g id="_x31_29_x2C__sql_x2C__file_type_x2C__file_format_x2C__file_extension_x2C__document"><g id="XMLID_2198_"><g id="XMLID_2209_"><path id="XMLID_16797_" d="m386 16h-20-210c-22.056 0-40 17.944-40 40v120l-10 30 10 30v220c0 22.056 17.944 40 40 40h280c22.056 0 40-17.944 40-40v-330-20l-70-20z" fill="#fff5f5"/><path id="XMLID_16796_" d="m386 106h90l-90-90z" fill="#ece6f2"/><g id="XMLID_2226_"><g id="XMLID_1795_"><path id="XMLID_1796_" d="m256 106h-80c-5.523 0-10-4.477-10-10s4.477-10 10-10h80c5.523 0 10 4.477 10 10s-4.477 10-10 10z" fill="#d3cbe4"/></g></g><g id="XMLID_2221_"><g id="XMLID_1792_"><path id="XMLID_1793_" d="m336 146h-160c-5.523 0-10-4.477-10-10s4.477-10 10-10h160c5.522 0 10 4.477 10 10s-4.478 10-10 10z" fill="#d3cbe4"/></g></g><g id="XMLID_2216_"><g id="XMLID_1789_"><path id="XMLID_1790_" d="m336 186h-160c-5.523 0-10-4.477-10-10s4.477-10 10-10h160c5.522 0 10 4.477 10 10s-4.478 10-10 10z" fill="#d3cbe4"/></g></g><path id="XMLID_16792_" d="m391 236h-275l-80-30v165.667c0 29.959 24.374 54.333 54.334 54.333h300.667c19.299 0 35-15.701 35-35v-120c-.001-19.299-15.702-35-35.001-35z" fill="#4e4e88"/><path id="XMLID_16791_" d="m116 236h-50c-16.569 0-30-13.431-30-30 0-16.569 13.431-30 30-30h50z" fill="#363671"/></g><g id="XMLID_2201_" fill="#fbf3f3"><path id="XMLID_2206_" d="m268.747 366.382-10.793-3.084c5.023-6.06 8.046-13.834 8.046-22.301v-30c0-19.299-15.701-35-35-35s-35 15.701-35 35v30c0 18.783 14.875 34.153 33.463 34.961 35.752 10.076 34.055 10.042 36.542 10.042 4.352 0 8.355-2.863 9.61-7.256 1.518-5.31-1.557-10.845-6.868-12.362zm-52.747-25.385v-30c0-8.272 6.729-15 15-15s15 6.728 15 15v30c0 8.271-6.729 15-15 15s-15-6.728-15-15z"/><path id="XMLID_16737_" d="m356 355.997h-40v-70c0-5.522-4.478-10-10-10-5.523 0-10 4.478-10 10v80c0 5.522 4.477 10 10 10h50c5.522 0 10-4.478 10-10s-4.478-10-10-10z"/><path id="XMLID_16736_" d="m136 295.997h30c5.523 0 10-4.478 10-10s-4.477-10-10-10h-30c-16.542 0-30 13.458-30 30s13.458 30 30 30h10c5.514 0 10 4.486 10 10s-4.486 10-10 10h-30c-5.523 0-10 4.478-10 10s4.477 10 10 10h30c16.542 0 30-13.458 30-30s-13.458-30-30-30h-10c-5.514 0-10-4.486-10-10s4.486-10 10-10z"/></g></g></g></svg>