<svg enable-background="new 0 0 512 512" height="512" viewBox="0 0 512 512" width="512" xmlns="http://www.w3.org/2000/svg"><g id="_x39_5_x2C__srt_x2C__file_type_x2C__file_format_x2C__file_extension_x2C__document"><g id="XMLID_2198_"><g id="XMLID_2209_"><path id="XMLID_12407_" d="m386 16h-20-210c-22.056 0-40 17.944-40 40v120l-10 30 10 30v220c0 22.056 17.944 40 40 40h280c22.056 0 40-17.944 40-40v-330-20l-70-20z" fill="#fff5f5"/><path id="XMLID_12406_" d="m386 106h90l-90-90z" fill="#ece6f2"/><g id="XMLID_2226_"><g id="XMLID_1317_"><path id="XMLID_1318_" d="m256 106h-80c-5.523 0-10-4.477-10-10s4.477-10 10-10h80c5.523 0 10 4.477 10 10s-4.477 10-10 10z" fill="#d3cbe4"/></g></g><g id="XMLID_2221_"><g id="XMLID_1314_"><path id="XMLID_1315_" d="m336 146h-160c-5.523 0-10-4.477-10-10s4.477-10 10-10h160c5.522 0 10 4.477 10 10s-4.478 10-10 10z" fill="#d3cbe4"/></g></g><g id="XMLID_2216_"><g id="XMLID_1311_"><path id="XMLID_1312_" d="m336 186h-160c-5.523 0-10-4.477-10-10s4.477-10 10-10h160c5.522 0 10 4.477 10 10s-4.478 10-10 10z" fill="#d3cbe4"/></g></g><path id="XMLID_12402_" d="m391 236h-275l-80-30v165.667c0 29.959 24.374 54.333 54.334 54.333h300.667c19.299 0 35-15.701 35-35v-120c-.001-19.299-15.702-35-35.001-35z" fill="#b35324"/><path id="XMLID_12401_" d="m116 236h-50c-16.569 0-30-13.431-30-30 0-16.569 13.431-30 30-30h50z" fill="#883f2e"/></g><g id="XMLID_2201_" fill="#fbf3f3"><path id="XMLID_2206_" d="m271.547 357.677-32.52-21.68h6.973c16.542 0 30-13.458 30-30s-13.458-30-30-30h-40c-5.523 0-10 4.478-10 10v40 .068 39.932c0 5.522 4.477 10 10 10s10-4.478 10-10v-21.315l44.453 29.636c1.705 1.137 3.631 1.681 5.538 1.681 3.232 0 6.403-1.563 8.33-4.454 3.063-4.596 1.822-10.805-2.774-13.868zm-55.547-61.68h30c5.514 0 10 4.486 10 10s-4.486 10-10 10h-30z"/><path id="XMLID_12325_" d="m366 275.997h-60c-5.523 0-10 4.478-10 10s4.477 10 10 10h20v70c0 5.522 4.477 10 10 10 5.522 0 10-4.478 10-10v-70h20c5.522 0 10-4.478 10-10s-4.478-10-10-10z"/><path id="XMLID_12324_" d="m126 295.997h30c5.523 0 10-4.478 10-10s-4.477-10-10-10h-30c-16.542 0-30 13.458-30 30s13.458 30 30 30h10c5.514 0 10 4.486 10 10s-4.486 10-10 10h-30c-5.523 0-10 4.478-10 10s4.477 10 10 10h30c16.542 0 30-13.458 30-30s-13.458-30-30-30h-10c-5.514 0-10-4.486-10-10s4.486-10 10-10z"/></g></g></g></svg>