<svg enable-background="new 0 0 512 512" height="512" viewBox="0 0 512 512" width="512" xmlns="http://www.w3.org/2000/svg"><g id="_x31_32_x2C__svg_x2C__file_type_x2C__file_format_x2C__file_extension_x2C__document"><g id="XMLID_2198_"><g id="XMLID_2210_"><path id="XMLID_17172_" d="m386 16h-20-210c-22.056 0-40 17.944-40 40v120l-10 30 10 30v220c0 22.056 17.944 40 40 40h280c22.056 0 40-17.944 40-40v-330-20l-70-20z" fill="#fff5f5"/><path id="XMLID_17171_" d="m386 106h90l-90-90z" fill="#ece6f2"/><g id="XMLID_2227_"><g id="XMLID_1834_"><path id="XMLID_1835_" d="m256 106h-80c-5.523 0-10-4.477-10-10s4.477-10 10-10h80c5.523 0 10 4.477 10 10s-4.477 10-10 10z" fill="#d3cbe4"/></g></g><g id="XMLID_2222_"><g id="XMLID_1831_"><path id="XMLID_1832_" d="m336 146h-160c-5.523 0-10-4.477-10-10s4.477-10 10-10h160c5.522 0 10 4.477 10 10s-4.478 10-10 10z" fill="#d3cbe4"/></g></g><g id="XMLID_2217_"><g id="XMLID_1828_"><path id="XMLID_1829_" d="m336 186h-160c-5.523 0-10-4.477-10-10s4.477-10 10-10h160c5.522 0 10 4.477 10 10s-4.478 10-10 10z" fill="#d3cbe4"/></g></g><path id="XMLID_17167_" d="m391 236h-275l-80-30v165.667c0 29.959 24.374 54.333 54.334 54.333h300.667c19.299 0 35-15.701 35-35v-120c-.001-19.299-15.702-35-35.001-35z" fill="#53e261"/><path id="XMLID_17166_" d="m116 236h-50c-16.569 0-30-13.431-30-30 0-16.569 13.431-30 30-30h50z" fill="#20ca78"/></g><g id="XMLID_2201_"><g id="XMLID_2208_"><path id="XMLID_17155_" d="m326 386c-27.57 0-50-22.43-50-50s22.43-50 50-50c9.942 0 19.55 2.914 27.785 8.426 4.59 3.072 5.819 9.283 2.748 13.873-3.072 4.59-9.285 5.819-13.873 2.748-4.932-3.302-10.693-5.047-16.66-5.047-16.542 0-30 13.458-30 30s13.458 30 30 30c13.037 0 24.159-8.359 28.286-20h-23.842c-5.522 0-10-4.478-10-10s4.478-10 10-10h35.556c5.522 0 10 4.478 10 10 0 27.57-22.43 50-50 50z" fill="#fbf3f3"/></g><g id="XMLID_2206_"><path id="XMLID_17154_" d="m226 386c-4.169 0-7.899-2.586-9.363-6.488l-30-80c-1.939-5.172.681-10.935 5.852-12.875 5.17-1.938 10.936.681 12.874 5.852l20.637 55.031 20.637-55.031c1.939-5.17 7.703-7.789 12.875-5.852 5.171 1.94 7.792 7.703 5.852 12.875l-30 80c-1.465 3.902-5.196 6.488-9.364 6.488z" fill="#fbf3f3"/></g><g id="XMLID_2204_"><path id="XMLID_17153_" d="m136 386h-30c-5.523 0-10-4.478-10-10s4.477-10 10-10h30c5.514 0 10-4.486 10-10s-4.486-10-10-10h-10c-16.542 0-30-13.458-30-30s13.458-30 30-30h30c5.523 0 10 4.478 10 10s-4.477 10-10 10h-30c-5.514 0-10 4.486-10 10s4.486 10 10 10h10c16.542 0 30 13.458 30 30s-13.458 30-30 30z" fill="#fbf3f3"/></g></g></g></g></svg>