<svg enable-background="new 0 0 512 512" height="512" viewBox="0 0 512 512" width="512" xmlns="http://www.w3.org/2000/svg"><g id="_x31_26_x2C__tiff_x2C__file_type_x2C__file_format_x2C__file_extension_x2C__document"><g id="XMLID_2198_"><g id="XMLID_2208_"><path id="XMLID_16499_" d="m386 16h-20-210c-22.056 0-40 17.944-40 40v120l-10 30 10 30v220c0 22.056 17.944 40 40 40h280c22.056 0 40-17.944 40-40v-330-20l-70-20z" fill="#fff5f5"/><path id="XMLID_16498_" d="m386 106h90l-90-90z" fill="#ece6f2"/><g id="XMLID_2225_"><g id="XMLID_1749_"><path id="XMLID_1750_" d="m256 106h-80c-5.523 0-10-4.477-10-10s4.477-10 10-10h80c5.523 0 10 4.477 10 10s-4.477 10-10 10z" fill="#d3cbe4"/></g></g><g id="XMLID_2220_"><g id="XMLID_1746_"><path id="XMLID_1747_" d="m336 146h-160c-5.523 0-10-4.477-10-10s4.477-10 10-10h160c5.522 0 10 4.477 10 10s-4.478 10-10 10z" fill="#d3cbe4"/></g></g><g id="XMLID_2215_"><g id="XMLID_1743_"><path id="XMLID_1744_" d="m336 186h-160c-5.523 0-10-4.477-10-10s4.477-10 10-10h160c5.522 0 10 4.477 10 10s-4.478 10-10 10z" fill="#d3cbe4"/></g></g><path id="XMLID_16494_" d="m391 236h-275l-80-30v165.667c0 29.959 24.374 54.333 54.334 54.333h300.667c19.299 0 35-15.701 35-35v-120c-.001-19.299-15.702-35-35.001-35z" fill="#ff884d"/><path id="XMLID_16493_" d="m116 236h-50c-16.569 0-30-13.431-30-30 0-16.569 13.431-30 30-30h50z" fill="#ff415b"/></g><g id="XMLID_2201_" fill="#fbf3f3"><path id="XMLID_16439_" d="m286 275.997h-50c-5.523 0-10 4.478-10 10v90c0 5.522 4.477 10 10 10s10-4.478 10-10v-30h30c5.522 0 10-4.478 10-10s-4.478-10-10-10h-30v-30h40c5.522 0 10-4.478 10-10s-4.478-10-10-10z"/><path id="XMLID_16438_" d="m376 275.997h-50c-5.523 0-10 4.478-10 10v90c0 5.522 4.477 10 10 10 5.522 0 10-4.478 10-10v-30h30c5.522 0 10-4.478 10-10s-4.478-10-10-10h-30v-30h40c5.522 0 10-4.478 10-10s-4.478-10-10-10z"/><path id="XMLID_16437_" d="m196 275.997c-5.523 0-10 4.478-10 10v90c0 5.522 4.477 10 10 10s10-4.478 10-10v-90c0-5.522-4.477-10-10-10z"/><path id="XMLID_16436_" d="m156 275.997h-60c-5.523 0-10 4.478-10 10s4.477 10 10 10h20v80c0 5.522 4.477 10 10 10s10-4.478 10-10v-80h20c5.523 0 10-4.478 10-10s-4.477-10-10-10z"/></g></g></g></svg>