<svg enable-background="new 0 0 512 512" height="512" viewBox="0 0 512 512" width="512" xmlns="http://www.w3.org/2000/svg"><g id="_x31_36_x2C__txt_x2C__file_type_x2C__file_format_x2C__file_extension_x2C__document"><g id="XMLID_2198_"><g id="XMLID_2230_"><path id="XMLID_17609_" d="m386 16h-20-210c-22.056 0-40 17.944-40 40v120l-10 30 10 30v220c0 22.056 17.944 40 40 40h280c22.056 0 40-17.944 40-40v-330-20l-70-20z" fill="#fbf3f3"/><path id="XMLID_17608_" d="m386 106h90l-90-90z" fill="#ece6f2"/><g id="XMLID_2251_"><g id="XMLID_1891_"><path id="XMLID_1892_" d="m256 106h-80c-5.523 0-10-4.477-10-10s4.477-10 10-10h80c5.523 0 10 4.477 10 10s-4.477 10-10 10z" fill="#d3cbe4"/></g></g><g id="XMLID_2242_"><g id="XMLID_1888_"><path id="XMLID_1890_" d="m336 146h-160c-5.523 0-10-4.477-10-10s4.477-10 10-10h160c5.522 0 10 4.477 10 10s-4.478 10-10 10z" fill="#d3cbe4"/></g></g><g id="XMLID_2237_"><g id="XMLID_1884_"><path id="XMLID_1887_" d="m336 186h-160c-5.523 0-10-4.477-10-10s4.477-10 10-10h160c5.522 0 10 4.477 10 10s-4.478 10-10 10z" fill="#d3cbe4"/></g></g><path id="XMLID_17604_" d="m391 236h-275l-80-30v165.667c0 29.959 24.374 54.333 54.334 54.333h300.667c19.299 0 35-15.701 35-35v-120c-.001-19.299-15.702-35-35.001-35z" fill="#53e261"/><path id="XMLID_17603_" d="m116 236h-50c-16.569 0-30-13.431-30-30 0-16.569 13.431-30 30-30h50z" fill="#20ca78"/></g><g id="XMLID_2201_"><g id="XMLID_2389_"><g id="XMLID_2400_"><path id="XMLID_2401_" d="m201.144 384.741c-4.828-2.682-6.567-8.77-3.885-13.598l50-90c2.683-4.828 8.772-6.565 13.598-3.885 4.828 2.682 6.567 8.77 3.885 13.598l-50 90c-2.687 4.836-8.777 6.564-13.598 3.885z" fill="#fbf3f3"/></g><g id="XMLID_2398_"><path id="XMLID_2399_" d="m247.258 380.856-50-90c-2.682-4.828-.942-10.916 3.885-13.598 4.829-2.683 10.915-.943 13.598 3.885l50 90c2.682 4.828.942 10.916-3.885 13.598-4.817 2.677-10.909.955-13.598-3.885z" fill="#fbf3f3"/></g><g id="XMLID_2396_"><path id="XMLID_2397_" d="m356 296h-60c-5.523 0-10-4.478-10-10s4.477-10 10-10h60c5.522 0 10 4.478 10 10s-4.478 10-10 10z" fill="#fbf3f3"/></g><g id="XMLID_2394_"><path id="XMLID_2395_" d="m326 386c-5.523 0-10-4.478-10-10v-90c0-5.522 4.477-10 10-10 5.522 0 10 4.478 10 10v90c0 5.522-4.478 10-10 10z" fill="#fbf3f3"/></g><g id="XMLID_2392_"><path id="XMLID_2393_" d="m166 296h-60c-5.523 0-10-4.478-10-10s4.477-10 10-10h60c5.523 0 10 4.478 10 10s-4.477 10-10 10z" fill="#fbf3f3"/></g><g id="XMLID_2390_"><path id="XMLID_2391_" d="m136 386c-5.523 0-10-4.478-10-10v-90c0-5.522 4.477-10 10-10s10 4.478 10 10v90c0 5.522-4.477 10-10 10z" fill="#fbf3f3"/></g></g></g></g></g></svg>