<svg enable-background="new 0 0 512 512" height="512" viewBox="0 0 512 512" width="512" xmlns="http://www.w3.org/2000/svg"><g id="_x30_6_x2C__vcd_x2C__file_type_x2C__file_format_x2C__file_extension_x2C__document"><g id="XMLID_2198_"><g id="XMLID_2209_"><path id="XMLID_770_" d="m386 16h-20-210c-22.056 0-40 17.944-40 40v120l-10 30 10 30v220c0 22.056 17.944 40 40 40h280c22.056 0 40-17.944 40-40v-330-20l-70-20z" fill="#fff5f5"/><path id="XMLID_769_" d="m386 106h90l-90-90z" fill="#ece6f2"/><g id="XMLID_2226_"><g id="XMLID_92_"><path id="XMLID_93_" d="m256 106h-80c-5.523 0-10-4.477-10-10s4.477-10 10-10h80c5.523 0 10 4.477 10 10s-4.477 10-10 10z" fill="#d3cbe4"/></g></g><g id="XMLID_2221_"><g id="XMLID_89_"><path id="XMLID_90_" d="m336 146h-160c-5.523 0-10-4.477-10-10s4.477-10 10-10h160c5.522 0 10 4.477 10 10s-4.478 10-10 10z" fill="#d3cbe4"/></g></g><g id="XMLID_2216_"><g id="XMLID_86_"><path id="XMLID_87_" d="m336 186h-160c-5.523 0-10-4.477-10-10s4.477-10 10-10h160c5.522 0 10 4.477 10 10s-4.478 10-10 10z" fill="#d3cbe4"/></g></g><path id="XMLID_765_" d="m391 236h-275l-80-30v165.667c0 29.959 24.374 54.333 54.334 54.333h300.667c19.299 0 35-15.701 35-35v-120c-.001-19.299-15.702-35-35.001-35z" fill="#fd3"/><path id="XMLID_764_" d="m116 236h-50c-16.569 0-30-13.431-30-30 0-16.569 13.431-30 30-30h50z" fill="#fb3"/></g><g id="XMLID_2201_" fill="#fbf3f3"><path id="XMLID_699_" d="m261 295.997h5c5.523 0 10-4.478 10-10s-4.477-10-10-10h-5c-30.327 0-55 24.673-55 55s24.673 55 55 55h5c5.523 0 10-4.478 10-10s-4.477-10-10-10h-5c-19.299 0-35-15.701-35-35s15.701-35 35-35z"/><path id="XMLID_698_" d="m190.061 276.859c-5.047-2.244-10.956.028-13.2 5.076l-30.861 69.44-30.862-69.44c-2.243-5.046-8.154-7.321-13.2-5.076-5.047 2.242-7.32 8.152-5.077 13.199l40 90c1.605 3.611 5.186 5.939 9.138 5.939s7.533-2.327 9.138-5.939l40-90c2.244-5.046-.029-10.956-5.076-13.199z"/><path id="XMLID_2204_" d="m311 275.997h-5c-5.523 0-10 4.478-10 10v90c0 5.522 4.477 10 10 10h5c30.327 0 55-24.673 55-55s-24.673-55-55-55zm5 89.644v-69.287c16.939 2.434 30 17.042 30 34.644 0 17.601-13.061 32.209-30 34.643z"/></g></g></g></svg>