<svg enable-background="new 0 0 512 512" height="512" viewBox="0 0 512 512" width="512" xmlns="http://www.w3.org/2000/svg"><g id="_x31_6_x2C__vob_x2C__file_type_x2C__file_format_x2C__file_extension_x2C__document"><g id="XMLID_2198_"><g id="XMLID_2212_"><path id="XMLID_2058_" d="m386 16h-20-210c-22.056 0-40 17.944-40 40v120l-10 30 10 30v220c0 22.056 17.944 40 40 40h280c22.056 0 40-17.944 40-40v-330-20l-70-20z" fill="#fff5f5"/><path id="XMLID_2057_" d="m386 106h90l-90-90z" fill="#ece6f2"/><g id="XMLID_2229_"><g id="XMLID_234_"><path id="XMLID_235_" d="m256 106h-80c-5.523 0-10-4.477-10-10s4.477-10 10-10h80c5.523 0 10 4.477 10 10s-4.477 10-10 10z" fill="#d3cbe4"/></g></g><g id="XMLID_2224_"><g id="XMLID_231_"><path id="XMLID_232_" d="m336 146h-160c-5.523 0-10-4.477-10-10s4.477-10 10-10h160c5.522 0 10 4.477 10 10s-4.478 10-10 10z" fill="#d3cbe4"/></g></g><g id="XMLID_2219_"><g id="XMLID_228_"><path id="XMLID_229_" d="m336 186h-160c-5.523 0-10-4.477-10-10s4.477-10 10-10h160c5.522 0 10 4.477 10 10s-4.478 10-10 10z" fill="#d3cbe4"/></g></g><path id="XMLID_2053_" d="m391 236h-275l-80-30v165.667c0 29.959 24.374 54.333 54.334 54.333h300.667c19.299 0 35-15.701 35-35v-120c-.001-19.299-15.702-35-35.001-35z" fill="#4e4e88"/><path id="XMLID_2052_" d="m116 236h-50c-16.569 0-30-13.431-30-30 0-16.569 13.431-30 30-30h50z" fill="#363671"/></g><g id="XMLID_2201_" fill="#fbf3f3"><path id="XMLID_2208_" d="m371.113 322.379c3.086-4.714 4.887-10.34 4.887-16.382 0-16.542-13.458-30-30-30h-40c-5.523 0-10 4.478-10 10v90c0 5.522 4.477 10 10 10h45c19.299 0 35-15.701 35-35 0-11.817-5.893-22.277-14.887-28.618zm-55.113-26.382h30c5.514 0 10 4.486 10 10s-4.486 10-10 10h-30zm35 70h-35v-30h30 5c8.271 0 15 6.728 15 15s-6.729 15-15 15z"/><path id="XMLID_1975_" d="m180.061 276.859c-5.047-2.244-10.956.028-13.2 5.076l-30.861 69.44-30.862-69.44c-2.243-5.046-8.153-7.321-13.2-5.076-5.047 2.242-7.32 8.152-5.077 13.199l40 90c1.605 3.611 5.187 5.939 9.138 5.939 3.952 0 7.533-2.327 9.138-5.939l40-90c2.244-5.046-.029-10.956-5.076-13.199z"/><path id="XMLID_2204_" d="m236 275.997c-22.056 0-40 17.944-40 40v30c0 22.056 17.944 40 40 40s40-17.944 40-40v-30c0-22.056-17.944-40-40-40zm20 70c0 11.028-8.972 20-20 20s-20-8.972-20-20v-30c0-11.028 8.972-20 20-20s20 8.972 20 20z"/></g></g></g></svg>