<svg enable-background="new 0 0 512 512" height="512" viewBox="0 0 512 512" width="512" xmlns="http://www.w3.org/2000/svg"><g id="_x37_3_x2C__wma_x2C__file_type_x2C__file_format_x2C__file_extension_x2C__document"><g id="XMLID_2198_"><g id="XMLID_2209_"><path id="XMLID_9526_" d="m386 16h-20-210c-22.056 0-40 17.944-40 40v120l-10 30 10 30v220c0 22.056 17.944 40 40 40h280c22.056 0 40-17.944 40-40v-330-20l-70-20z" fill="#fff5f5"/><path id="XMLID_9525_" d="m386 106h90l-90-90z" fill="#ece6f2"/><g id="XMLID_2226_"><g id="XMLID_1011_"><path id="XMLID_1019_" d="m256 106h-80c-5.523 0-10-4.477-10-10s4.477-10 10-10h80c5.523 0 10 4.477 10 10s-4.477 10-10 10z" fill="#d3cbe4"/></g></g><g id="XMLID_2221_"><g id="XMLID_1008_"><path id="XMLID_1009_" d="m336 146h-160c-5.523 0-10-4.477-10-10s4.477-10 10-10h160c5.522 0 10 4.477 10 10s-4.478 10-10 10z" fill="#d3cbe4"/></g></g><g id="XMLID_2216_"><g id="XMLID_1005_"><path id="XMLID_1006_" d="m336 186h-160c-5.523 0-10-4.477-10-10s4.477-10 10-10h160c5.522 0 10 4.477 10 10s-4.478 10-10 10z" fill="#d3cbe4"/></g></g><path id="XMLID_9521_" d="m391 236h-275l-80-30v165.667c0 29.959 24.374 54.333 54.334 54.333h300.667c19.299 0 35-15.701 35-35v-120c-.001-19.299-15.702-35-35.001-35z" fill="#6680ff"/><path id="XMLID_9520_" d="m116 236h-50c-16.569 0-30-13.431-30-30 0-16.569 13.431-30 30-30h50z" fill="#35f"/></g><g id="XMLID_2201_" fill="#fbf3f3"><path id="XMLID_9454_" d="m269.162 276.51c-4.082-1.357-8.58.044-11.162 3.487l-22 29.333-22-29.333c-2.583-3.443-7.08-4.845-11.162-3.487-4.083 1.361-6.838 5.183-6.838 9.487v90c0 5.522 4.477 10 10 10s10-4.478 10-10v-60l12 16c4.001 5.335 12.007 5.324 16 0l12-16v60c0 5.522 4.477 10 10 10s10-4.478 10-10v-90c0-4.305-2.754-8.126-6.838-9.487z"/><path id="XMLID_9453_" d="m166 275.997c-5.523 0-10 4.478-10 10v60l-12-16c-1.889-2.519-4.853-4-8-4-3.148 0-6.111 1.481-8 4l-12 16v-60c0-5.522-4.477-10-10-10s-10 4.478-10 10v90c0 4.305 2.754 8.126 6.838 9.487 4.081 1.358 8.579-.043 11.162-3.487l22-29.333 22 29.333c1.925 2.566 4.914 4.001 8.001 4.001 5.506 0 9.999-4.469 9.999-10.001v-90c0-5.522-4.477-10-10-10z"/><path id="XMLID_2204_" d="m336 275.997c-22.056 0-40 17.944-40 40v60c0 5.522 4.477 10 10 10 5.522 0 10-4.478 10-10v-20h40v20c0 5.522 4.477 10 10 10 5.522 0 10-4.478 10-10v-60c0-22.056-17.944-40-40-40zm-20 60v-20c0-11.028 8.972-20 20-20s20 8.972 20 20v20z"/></g></g></g></svg>