<svg enable-background="new 0 0 512 512" height="512" viewBox="0 0 512 512" width="512" xmlns="http://www.w3.org/2000/svg"><g id="_x37_9_x2C__wmv_x2C__file_type_x2C__file_format_x2C__file_extension_x2C__document"><g id="XMLID_2198_"><g id="XMLID_2207_"><path id="XMLID_10288_" d="m386 16h-20-210c-22.056 0-40 17.944-40 40v120l-10 30 10 30v220c0 22.056 17.944 40 40 40h280c22.056 0 40-17.944 40-40v-330-20l-70-20z" fill="#fff5f5"/><path id="XMLID_10287_" d="m386 106h90l-90-90z" fill="#ece6f2"/><g id="XMLID_2220_"><g id="XMLID_1096_"><path id="XMLID_1097_" d="m256 106h-80c-5.523 0-10-4.477-10-10s4.477-10 10-10h80c5.523 0 10 4.477 10 10s-4.477 10-10 10z" fill="#d3cbe4"/></g></g><g id="XMLID_2215_"><g id="XMLID_1093_"><path id="XMLID_1094_" d="m336 146h-160c-5.523 0-10-4.477-10-10s4.477-10 10-10h160c5.522 0 10 4.477 10 10s-4.478 10-10 10z" fill="#d3cbe4"/></g></g><g id="XMLID_2210_"><g id="XMLID_1090_"><path id="XMLID_1091_" d="m336 186h-160c-5.523 0-10-4.477-10-10s4.477-10 10-10h160c5.522 0 10 4.477 10 10s-4.478 10-10 10z" fill="#d3cbe4"/></g></g><path id="XMLID_10283_" d="m391 236h-275l-80-30v165.667c0 29.959 24.374 54.333 54.334 54.333h300.667c19.299 0 35-15.701 35-35v-120c-.001-19.299-15.702-35-35.001-35z" fill="#76e7fc"/><path id="XMLID_10282_" d="m116 236h-50c-16.569 0-30-13.431-30-30 0-16.569 13.431-30 30-30h50z" fill="#69cffc"/></g><g id="XMLID_2201_" fill="#fbf3f3"><path id="XMLID_10220_" d="m369.162 276.51c-5.24-1.746-10.902 1.087-12.649 6.325l-20.513 61.539-20.513-61.539c-1.747-5.239-7.408-8.071-12.649-6.325-5.239 1.747-8.071 7.41-6.325 12.649l30 90c1.361 4.084 5.183 6.838 9.487 6.838 4.305 0 8.126-2.754 9.487-6.838l30-90c1.746-5.239-1.086-10.902-6.325-12.649z"/><path id="XMLID_10219_" d="m269.162 276.51c-4.082-1.357-8.58.044-11.162 3.487l-22 29.333-22-29.333c-2.583-3.443-7.08-4.845-11.162-3.487-4.083 1.361-6.838 5.183-6.838 9.487v90c0 5.522 4.477 10 10 10s10-4.478 10-10v-60l12 16c4.001 5.335 12.007 5.324 16 0l12-16v60c0 5.522 4.477 10 10 10s10-4.478 10-10v-90c0-4.305-2.754-8.126-6.838-9.487z"/><path id="XMLID_10218_" d="m166 275.997c-5.523 0-10 4.478-10 10v60l-12-16c-1.889-2.519-4.853-4-8-4-3.148 0-6.111 1.481-8 4l-12 16v-60c0-5.522-4.477-10-10-10s-10 4.478-10 10v90c0 4.305 2.754 8.126 6.838 9.487 4.081 1.358 8.579-.043 11.162-3.487l22-29.333 22 29.333c1.925 2.566 4.914 4.001 8.001 4.001 5.506 0 9.999-4.469 9.999-10.001v-90c0-5.522-4.477-10-10-10z"/></g></g></g></svg>