<svg enable-background="new 0 0 512 512" height="512" viewBox="0 0 512 512" width="512" xmlns="http://www.w3.org/2000/svg"><g id="_x32_6_x2C__wpd_x2C__file_type_x2C__file_format_x2C__file_extension_x2C__document"><g id="XMLID_2198_"><g id="XMLID_2211_"><path id="XMLID_3415_" d="m386 16h-20-210c-22.056 0-40 17.944-40 40v120l-10 30 10 30v220c0 22.056 17.944 40 40 40h280c22.056 0 40-17.944 40-40v-330-20l-70-20z" fill="#fff5f5"/><path id="XMLID_3414_" d="m386 106h90l-90-90z" fill="#ece6f2"/><g id="XMLID_2228_"><g id="XMLID_371_"><path id="XMLID_372_" d="m256 106h-80c-5.523 0-10-4.477-10-10s4.477-10 10-10h80c5.523 0 10 4.477 10 10s-4.477 10-10 10z" fill="#d3cbe4"/></g></g><g id="XMLID_2223_"><g id="XMLID_368_"><path id="XMLID_369_" d="m336 146h-160c-5.523 0-10-4.477-10-10s4.477-10 10-10h160c5.522 0 10 4.477 10 10s-4.478 10-10 10z" fill="#d3cbe4"/></g></g><g id="XMLID_2218_"><g id="XMLID_365_"><path id="XMLID_366_" d="m336 186h-160c-5.523 0-10-4.477-10-10s4.477-10 10-10h160c5.522 0 10 4.477 10 10s-4.478 10-10 10z" fill="#d3cbe4"/></g></g><path id="XMLID_3410_" d="m391 236h-275l-80-30v165.667c0 29.959 24.374 54.333 54.334 54.333h300.667c19.299 0 35-15.701 35-35v-120c-.001-19.299-15.702-35-35.001-35z" fill="#b35324"/><path id="XMLID_3409_" d="m116 236h-50c-16.569 0-30-13.431-30-30 0-16.569 13.431-30 30-30h50z" fill="#883f2e"/></g><g id="XMLID_2201_" fill="#fbf3f3"><path id="XMLID_3338_" d="m186 275.997c-5.523 0-10 4.478-10 10v65.857l-22.929-22.929c-3.905-3.904-10.237-3.904-14.143 0l-22.928 22.929v-65.857c0-5.522-4.477-10-10-10s-10 4.478-10 10v90c0 4.045 2.437 7.691 6.173 9.239 3.738 1.546 8.038.692 10.898-2.168l32.929-32.928 32.929 32.929c2.865 2.865 7.167 3.712 10.898 2.168 3.737-1.548 6.173-5.194 6.173-9.239v-90c0-5.523-4.477-10.001-10-10.001z"/><path id="XMLID_2207_" d="m261 275.997h-35c-5.523 0-10 4.478-10 10v50 40c0 5.522 4.477 10 10 10s10-4.478 10-10v-30h25c19.299 0 35-15.701 35-35s-15.701-35-35-35zm0 50h-25v-30h25c8.271 0 15 6.728 15 15s-6.729 15-15 15z"/><path id="XMLID_2204_" d="m331 275.997h-5c-5.523 0-10 4.478-10 10v90c0 5.522 4.477 10 10 10h5c30.327 0 55-24.673 55-55s-24.673-55-55-55zm5 89.644v-69.287c16.939 2.434 30 17.042 30 34.644 0 17.601-13.061 32.209-30 34.643z"/></g></g></g></svg>