<svg enable-background="new 0 0 512 512" height="512" viewBox="0 0 512 512" width="512" xmlns="http://www.w3.org/2000/svg"><g id="_x32_1_x2C__wps_x2C__file_type_x2C__file_format_x2C__file_extension_x2C__document"><g id="XMLID_2198_"><g id="XMLID_2209_"><path id="XMLID_2726_" d="m386 16h-20-210c-22.056 0-40 17.944-40 40v120l-10 30 10 30v220c0 22.056 17.944 40 40 40h280c22.056 0 40-17.944 40-40v-330-20l-70-20z" fill="#fff5f5"/><path id="XMLID_2725_" d="m386 106h90l-90-90z" fill="#ece6f2"/><g id="XMLID_2226_"><g id="XMLID_302_"><path id="XMLID_303_" d="m256 106h-80c-5.523 0-10-4.477-10-10s4.477-10 10-10h80c5.523 0 10 4.477 10 10s-4.477 10-10 10z" fill="#d3cbe4"/></g></g><g id="XMLID_2221_"><g id="XMLID_299_"><path id="XMLID_300_" d="m336 146h-160c-5.523 0-10-4.477-10-10s4.477-10 10-10h160c5.522 0 10 4.477 10 10s-4.478 10-10 10z" fill="#d3cbe4"/></g></g><g id="XMLID_2216_"><g id="XMLID_296_"><path id="XMLID_297_" d="m336 186h-160c-5.523 0-10-4.477-10-10s4.477-10 10-10h160c5.522 0 10 4.477 10 10s-4.478 10-10 10z" fill="#d3cbe4"/></g></g><path id="XMLID_2721_" d="m391 236h-275l-80-30v165.667c0 29.959 24.374 54.333 54.334 54.333h300.667c19.299 0 35-15.701 35-35v-120c-.001-19.299-15.702-35-35.001-35z" fill="#4e4e88"/><path id="XMLID_2720_" d="m116 236h-50c-16.569 0-30-13.431-30-30 0-16.569 13.431-30 30-30h50z" fill="#363671"/></g><g id="XMLID_2201_" fill="#fbf3f3"><path id="XMLID_2652_" d="m176 275.997c-5.523 0-10 4.478-10 10v65.857l-22.929-22.929c-3.905-3.904-10.237-3.904-14.143 0l-22.928 22.929v-65.857c0-5.522-4.477-10-10-10s-10 4.478-10 10v90c0 4.045 2.437 7.691 6.173 9.239 3.737 1.546 8.039.692 10.898-2.168l32.929-32.928 32.929 32.929c2.865 2.865 7.167 3.712 10.898 2.168 3.737-1.548 6.173-5.194 6.173-9.239v-90c0-5.523-4.477-10.001-10-10.001z"/><path id="XMLID_2205_" d="m251 275.997h-35c-5.523 0-10 4.478-10 10v90c0 5.522 4.477 10 10 10s10-4.478 10-10v-30h25c19.299 0 35-15.701 35-35s-15.701-35-35-35zm0 50h-25v-30h25c8.271 0 15 6.728 15 15s-6.729 15-15 15z"/><path id="XMLID_2649_" d="m343.5 320.997h-5c-6.893 0-12.5-5.608-12.5-12.5 0-6.893 5.607-12.5 12.5-12.5h27.5c5.522 0 10-4.478 10-10s-4.478-10-10-10h-27.5c-17.921 0-32.5 14.579-32.5 32.5s14.579 32.5 32.5 32.5h5c6.893 0 12.5 5.607 12.5 12.5 0 6.892-5.607 12.5-12.5 12.5h-27.5c-5.523 0-10 4.478-10 10s4.477 10 10 10h27.5c17.921 0 32.5-14.579 32.5-32.5s-14.579-32.5-32.5-32.5z"/></g></g></g></svg>