<svg enable-background="new 0 0 512 512" height="512" viewBox="0 0 512 512" width="512" xmlns="http://www.w3.org/2000/svg"><g id="_x30_1_x2C__xlr_x2C__file_type_x2C__file_format_x2C__file_extension_x2C__document"><g id="XMLID_2198_"><g id="XMLID_2209_"><path id="XMLID_113_" d="m386 16h-20-210c-22.056 0-40 17.944-40 40v120l-10 30 10 30v220c0 22.056 17.944 40 40 40h280c22.056 0 40-17.944 40-40v-330-20l-70-20z" fill="#fff5f5"/><path id="XMLID_112_" d="m386 106h90l-90-90z" fill="#ece6f2"/><g id="XMLID_2226_"><g id="XMLID_28_"><path id="XMLID_2296_" d="m256 106h-80c-5.523 0-10-4.477-10-10s4.477-10 10-10h80c5.523 0 10 4.477 10 10s-4.477 10-10 10z" fill="#d3cbe4"/></g></g><g id="XMLID_2221_"><g id="XMLID_2298_"><path id="XMLID_2299_" d="m336 146h-160c-5.523 0-10-4.477-10-10s4.477-10 10-10h160c5.522 0 10 4.477 10 10s-4.478 10-10 10z" fill="#d3cbe4"/></g></g><g id="XMLID_2216_"><g id="XMLID_2305_"><path id="XMLID_2308_" d="m336 186h-160c-5.523 0-10-4.477-10-10s4.477-10 10-10h160c5.522 0 10 4.477 10 10s-4.478 10-10 10z" fill="#d3cbe4"/></g></g><path id="XMLID_108_" d="m391 236h-275l-80-30v165.667c0 29.959 24.374 54.333 54.334 54.333h300.667c19.299 0 35-15.701 35-35v-120c-.001-19.299-15.702-35-35.001-35z" fill="#80aaff"/><path id="XMLID_107_" d="m116 236h-50c-16.569 0-30-13.431-30-30 0-16.569 13.431-30 30-30h50z" fill="#6680ff"/></g><g id="XMLID_2201_" fill="#fbf3f3"><path id="XMLID_33_" d="m170.856 277.256c-4.827-2.681-10.915-.943-13.598 3.885l-16.258 29.265-16.258-29.265c-2.683-4.828-8.769-6.567-13.598-3.885-4.828 2.682-6.567 8.77-3.885 13.598l22.302 40.144-22.302 40.143c-2.682 4.828-.942 10.916 3.885 13.598 4.82 2.678 10.911.952 13.598-3.885l16.258-29.265 16.258 29.265c1.828 3.29 5.236 5.146 8.751 5.146 7.542 0 12.455-8.158 8.732-14.858l-22.302-40.143 22.302-40.144c2.683-4.83.943-10.917-3.885-13.599z"/><path id="XMLID_2205_" d="m361.547 367.677-32.52-21.68h1.973c19.299 0 35-15.701 35-35s-15.701-35-35-35h-35c-5.523 0-10 4.478-10 10v40 10.033c.022 4.085 0-14.788 0 39.967 0 5.522 4.477 10 10 10 5.522 0 10-4.478 10-10v-21.315l44.453 29.636c1.705 1.137 3.632 1.681 5.538 1.681 3.23 0 6.402-1.563 8.329-4.454 3.064-4.596 1.823-10.805-2.773-13.868zm-55.547-71.68h25c8.271 0 15 6.728 15 15 0 8.271-6.729 15-15 15h-25z"/><path id="XMLID_30_" d="m256 365.997h-40v-80c0-5.522-4.477-10-10-10s-10 4.478-10 10v90c0 5.522 4.477 10 10 10h50c5.523 0 10-4.478 10-10s-4.477-10-10-10z"/></g></g></g></svg>