<svg enable-background="new 0 0 512 512" height="512" viewBox="0 0 512 512" width="512" xmlns="http://www.w3.org/2000/svg"><g id="_x31_43_x2C__xls_x2C__file_type_x2C__file_format_x2C__file_extension_x2C__document"><g id="XMLID_2198_"><g id="XMLID_2222_"><path id="XMLID_18391_" d="m386 16h-20-210c-22.056 0-40 17.944-40 40v120l-10 30 10 30v220c0 22.056 17.944 40 40 40h280c22.056 0 40-17.944 40-40v-330-20l-70-20z" fill="#fbf3f3"/><path id="XMLID_18390_" d="m386 106h90l-90-90z" fill="#ece6f2"/><g id="XMLID_2239_"><g id="XMLID_2015_"><path id="XMLID_2016_" d="m256 106h-80c-5.523 0-10-4.477-10-10s4.477-10 10-10h80c5.523 0 10 4.477 10 10s-4.477 10-10 10z" fill="#d3cbe4"/></g></g><g id="XMLID_2234_"><g id="XMLID_2012_"><path id="XMLID_2013_" d="m336 146h-160c-5.523 0-10-4.477-10-10s4.477-10 10-10h160c5.522 0 10 4.477 10 10s-4.478 10-10 10z" fill="#d3cbe4"/></g></g><g id="XMLID_2229_"><g id="XMLID_2009_"><path id="XMLID_2010_" d="m336 186h-160c-5.523 0-10-4.477-10-10s4.477-10 10-10h160c5.522 0 10 4.477 10 10s-4.478 10-10 10z" fill="#d3cbe4"/></g></g><path id="XMLID_18386_" d="m391 236h-275l-80-30v165.667c0 29.959 24.374 54.333 54.334 54.333h300.667c19.299 0 35-15.701 35-35v-120c-.001-19.299-15.702-35-35.001-35z" fill="#ff884d"/><path id="XMLID_18385_" d="m116 236h-50c-16.569 0-30-13.431-30-30 0-16.569 13.431-30 30-30h50z" fill="#ff415b"/></g><g id="XMLID_2201_"><g id="XMLID_2086_"><g id="XMLID_2141_"><path id="XMLID_2142_" d="m130.7 374.48c-4.684-2.928-6.107-9.097-3.18-13.78l50-80c2.926-4.684 9.097-6.105 13.78-3.181 4.684 2.928 6.107 9.097 3.18 13.78l-50 80c-2.932 4.692-9.103 6.103-13.78 3.181z" fill="#fbf3f3"/></g><g id="XMLID_2139_"><path id="XMLID_2140_" d="m177.52 371.3-50-80c-2.927-4.684-1.503-10.853 3.18-13.78 4.682-2.926 10.853-1.503 13.78 3.181l50 80c2.927 4.684 1.503 10.853-3.18 13.78-4.674 2.919-10.847 1.512-13.78-3.181z" fill="#fbf3f3"/></g><g id="XMLID_2121_"><path id="XMLID_2138_" d="m256 376h-30c-5.523 0-10-4.478-10-10v-80c0-5.522 4.477-10 10-10s10 4.478 10 10v70h20c5.523 0 10 4.478 10 10s-4.477 10-10 10z" fill="#fbf3f3"/></g><g id="XMLID_2087_"><path id="XMLID_2106_" d="m326 376h-30c-5.523 0-10-4.478-10-10s4.477-10 10-10h30c5.514 0 10-4.486 10-10s-4.486-10-10-10h-10c-16.542 0-30-13.458-30-30s13.458-30 30-30h30c5.522 0 10 4.478 10 10s-4.478 10-10 10h-30c-5.514 0-10 4.486-10 10s4.486 10 10 10h10c16.542 0 30 13.458 30 30s-13.458 30-30 30z" fill="#fbf3f3"/></g></g></g></g></g></svg>