<svg enable-background="new 0 0 512 512" height="512" viewBox="0 0 512 512" width="512" xmlns="http://www.w3.org/2000/svg"><g id="_x31_47_x2C__xlsx_x2C__file_type_x2C__file_format_x2C__file_extension_x2C__document"><g id="XMLID_2198_"><g id="XMLID_2232_"><path id="XMLID_18807_" d="m386 16h-20-210c-22.056 0-40 17.944-40 40v120l-10 30 10 30v220c0 22.056 17.944 40 40 40h280c22.056 0 40-17.944 40-40v-330-20l-70-20z" fill="#fbf3f3"/><path id="XMLID_18806_" d="m386 106h90l-90-90z" fill="#ece6f2"/><g id="XMLID_2253_"><g id="XMLID_2107_"><path id="XMLID_2115_" d="m256 106h-80c-5.523 0-10-4.477-10-10s4.477-10 10-10h80c5.523 0 10 4.477 10 10s-4.477 10-10 10z" fill="#d3cbe4"/></g></g><g id="XMLID_2248_"><g id="XMLID_2099_"><path id="XMLID_2103_" d="m336 146h-160c-5.523 0-10-4.477-10-10s4.477-10 10-10h160c5.522 0 10 4.477 10 10s-4.478 10-10 10z" fill="#d3cbe4"/></g></g><g id="XMLID_2239_"><g id="XMLID_2096_"><path id="XMLID_2097_" d="m336 186h-160c-5.523 0-10-4.477-10-10s4.477-10 10-10h160c5.522 0 10 4.477 10 10s-4.478 10-10 10z" fill="#d3cbe4"/></g></g><path id="XMLID_18802_" d="m391 236h-275l-80-30v165.667c0 29.959 24.374 54.333 54.334 54.333h300.667c19.299 0 35-15.701 35-35v-120c-.001-19.299-15.702-35-35.001-35z" fill="#b35324"/><path id="XMLID_18801_" d="m116 236h-50c-16.569 0-30-13.431-30-30 0-16.569 13.431-30 30-30h50z" fill="#883f2e"/></g><g id="XMLID_2201_"><g id="XMLID_2285_"><g id="XMLID_2286_"><g id="XMLID_2343_"><path id="XMLID_2344_" d="m80.7 374.48c-4.684-2.928-6.107-9.097-3.18-13.78l50-80c2.927-4.684 9.097-6.105 13.78-3.181 4.684 2.928 6.107 9.097 3.18 13.78l-50 80c-2.932 4.692-9.103 6.103-13.78 3.181z" fill="#fbf3f3"/></g><g id="XMLID_2341_"><path id="XMLID_2342_" d="m127.52 371.3-50-80c-2.927-4.684-1.503-10.853 3.18-13.78 4.682-2.926 10.852-1.503 13.78 3.181l50 80c2.927 4.684 1.503 10.853-3.18 13.78-4.674 2.919-10.847 1.512-13.78-3.181z" fill="#fbf3f3"/></g><g id="XMLID_2339_"><path id="XMLID_2340_" d="m320.7 374.48c-4.684-2.928-6.107-9.097-3.181-13.78l50-80c2.928-4.683 9.095-6.106 13.78-3.181 4.684 2.928 6.107 9.097 3.181 13.78l-50 80c-2.931 4.69-9.1 6.103-13.78 3.181z" fill="#fbf3f3"/></g><g id="XMLID_2316_"><path id="XMLID_2338_" d="m376.01 376.001c-3.334 0-6.593-1.666-8.49-4.701l-50-80c-2.927-4.684-1.503-10.853 3.181-13.78 4.684-2.926 10.853-1.502 13.78 3.181l50 80c2.927 4.684 1.503 10.853-3.181 13.78-1.648 1.029-3.481 1.52-5.29 1.52z" fill="#fbf3f3"/></g><g id="XMLID_2289_"><path id="XMLID_2290_" d="m206 376h-30c-5.523 0-10-4.478-10-10v-80c0-5.522 4.477-10 10-10s10 4.478 10 10v70h20c5.523 0 10 4.478 10 10s-4.477 10-10 10z" fill="#fbf3f3"/></g><g id="XMLID_2287_"><path id="XMLID_2288_" d="m286 376h-40c-5.523 0-10-4.478-10-10s4.477-10 10-10h30v-20h-30c-5.523 0-10-4.478-10-10v-40c0-5.522 4.477-10 10-10h40c5.522 0 10 4.478 10 10s-4.478 10-10 10h-30v20h30c5.522 0 10 4.478 10 10v40c0 5.522-4.478 10-10 10z" fill="#fbf3f3"/></g></g></g></g></g></g></svg>