<svg enable-background="new 0 0 512 512" height="512" viewBox="0 0 512 512" width="512" xmlns="http://www.w3.org/2000/svg"><g id="_x31_46_x2C__xml_x2C__file_type_x2C__file_format_x2C__file_extension_x2C__document"><g id="XMLID_2198_"><g id="XMLID_2224_"><path id="XMLID_18695_" d="m386 16h-20-210c-22.056 0-40 17.944-40 40v120l-10 30 10 30v220c0 22.056 17.944 40 40 40h280c22.056 0 40-17.944 40-40v-330-20l-70-20z" fill="#fbf3f3"/><path id="XMLID_18694_" d="m386 106h90l-90-90z" fill="#ece6f2"/><g id="XMLID_2237_"><g id="XMLID_2084_"><path id="XMLID_2085_" d="m256 106h-80c-5.523 0-10-4.477-10-10s4.477-10 10-10h80c5.523 0 10 4.477 10 10s-4.477 10-10 10z" fill="#d3cbe4"/></g></g><g id="XMLID_2232_"><g id="XMLID_2081_"><path id="XMLID_2082_" d="m336 146h-160c-5.523 0-10-4.477-10-10s4.477-10 10-10h160c5.522 0 10 4.477 10 10s-4.478 10-10 10z" fill="#d3cbe4"/></g></g><g id="XMLID_2227_"><g id="XMLID_2078_"><path id="XMLID_2079_" d="m336 186h-160c-5.523 0-10-4.477-10-10s4.477-10 10-10h160c5.522 0 10 4.477 10 10s-4.478 10-10 10z" fill="#d3cbe4"/></g></g><path id="XMLID_18690_" d="m391 236h-275l-80-30v165.667c0 29.959 24.374 54.333 54.334 54.333h300.667c19.299 0 35-15.701 35-35v-120c-.001-19.299-15.702-35-35.001-35z" fill="#76e7fc"/><path id="XMLID_18689_" d="m116 236h-50c-16.569 0-30-13.431-30-30 0-16.569 13.431-30 30-30h50z" fill="#69cffc"/></g><g id="XMLID_2201_"><g id="XMLID_2169_"><g id="XMLID_2170_"><g id="XMLID_2192_"><path id="XMLID_2193_" d="m110.7 374.48c-4.684-2.928-6.107-9.097-3.18-13.78l50-80c2.927-4.684 9.097-6.105 13.78-3.181 4.684 2.928 6.107 9.097 3.18 13.78l-50 80c-2.932 4.692-9.103 6.103-13.78 3.181z" fill="#fbf3f3"/></g><g id="XMLID_2177_"><path id="XMLID_2184_" d="m157.52 371.3-50-80c-2.927-4.684-1.503-10.853 3.18-13.78 4.682-2.926 10.852-1.503 13.78 3.181l50 80c2.927 4.684 1.503 10.853-3.18 13.78-4.674 2.919-10.847 1.512-13.78-3.181z" fill="#fbf3f3"/></g><g id="XMLID_2174_"><path id="XMLID_2176_" d="m356 376h-30c-5.523 0-10-4.478-10-10v-80c0-5.522 4.477-10 10-10 5.522 0 10 4.478 10 10v70h20c5.522 0 10 4.478 10 10s-4.478 10-10 10z" fill="#fbf3f3"/></g><g id="XMLID_2172_"><path id="XMLID_2173_" d="m286 376c-5.522 0-10-4.478-10-10v-51.492l-22.191 27.739c-1.898 2.372-4.771 3.753-7.809 3.753s-5.911-1.381-7.809-3.753l-22.191-27.739v51.492c0 5.522-4.477 10-10 10s-10-4.478-10-10v-80c0-4.247 2.683-8.03 6.69-9.436 4.006-1.405 8.465-.127 11.119 3.189l32.191 40.239 32.191-40.239c2.652-3.316 7.11-4.592 11.119-3.189 4.007 1.406 6.69 5.189 6.69 9.436v80c0 5.522-4.478 10-10 10z" fill="#fbf3f3"/></g></g></g></g></g></g></svg>