<svg enable-background="new 0 0 512 512" height="512" viewBox="0 0 512 512" width="512" xmlns="http://www.w3.org/2000/svg"><g id="_x30_7_x2C__yuv_x2C__file_type_x2C__file_format_x2C__file_extension_x2C__document"><g id="XMLID_2198_"><g id="XMLID_2207_"><path id="XMLID_892_" d="m386 16h-20-210c-22.056 0-40 17.944-40 40v120l-10 30 10 30v220c0 22.056 17.944 40 40 40h280c22.056 0 40-17.944 40-40v-330-20l-70-20z" fill="#fff5f5"/><path id="XMLID_891_" d="m386 106h90l-90-90z" fill="#ece6f2"/><g id="XMLID_2224_"><g id="XMLID_105_"><path id="XMLID_106_" d="m256 106h-80c-5.523 0-10-4.477-10-10s4.477-10 10-10h80c5.523 0 10 4.477 10 10s-4.477 10-10 10z" fill="#d3cbe4"/></g></g><g id="XMLID_2219_"><g id="XMLID_102_"><path id="XMLID_103_" d="m336 146h-160c-5.523 0-10-4.477-10-10s4.477-10 10-10h160c5.522 0 10 4.477 10 10s-4.478 10-10 10z" fill="#d3cbe4"/></g></g><g id="XMLID_2214_"><g id="XMLID_99_"><path id="XMLID_100_" d="m336 186h-160c-5.523 0-10-4.477-10-10s4.477-10 10-10h160c5.522 0 10 4.477 10 10s-4.478 10-10 10z" fill="#d3cbe4"/></g></g><path id="XMLID_887_" d="m391 236h-275l-80-30v165.667c0 29.959 24.374 54.333 54.334 54.333h300.667c19.299 0 35-15.701 35-35v-120c-.001-19.299-15.702-35-35.001-35z" fill="#80aaff"/><path id="XMLID_886_" d="m116 236h-50c-16.569 0-30-13.431-30-30 0-16.569 13.431-30 30-30h50z" fill="#6680ff"/></g><g id="XMLID_2201_" fill="#fbf3f3"><path id="XMLID_821_" d="m379.162 276.51c-5.24-1.746-10.902 1.087-12.649 6.325l-20.513 61.539-20.513-61.539c-1.747-5.239-7.408-8.071-12.649-6.325-5.239 1.747-8.071 7.41-6.325 12.649l30 90c1.361 4.084 5.183 6.838 9.487 6.838 4.305 0 8.126-2.754 9.487-6.838l30-90c1.746-5.239-1.086-10.902-6.325-12.649z"/><path id="XMLID_820_" d="m168.929 278.926-32.929 32.928-32.929-32.929c-3.905-3.904-10.237-3.904-14.143 0-3.905 3.905-3.905 10.237 0 14.143l37.072 37.072v45.858c0 5.522 4.477 10 10 10s10-4.478 10-10v-45.858l37.071-37.071c3.905-3.905 3.905-10.237 0-14.143-3.905-3.904-10.237-3.904-14.142 0z"/><path id="XMLID_819_" d="m276 275.997c-5.523 0-10 4.478-10 10v60c0 11.028-8.972 20-20 20s-20-8.972-20-20v-60c0-5.522-4.477-10-10-10s-10 4.478-10 10v60c0 22.056 17.944 40 40 40s40-17.944 40-40v-60c0-5.522-4.478-10-10-10z"/></g></g></g></svg>