<svg enable-background="new 0 0 512 512" height="512" viewBox="0 0 512 512" width="512" xmlns="http://www.w3.org/2000/svg"><g id="_x31_41_x2C__zip_x2C__file_type_x2C__file_format_x2C__file_extension_x2C__document"><g id="XMLID_2198_"><g id="XMLID_2226_"><path id="XMLID_18169_" d="m386 16h-20-210c-22.056 0-40 17.944-40 40v120l-10 30 10 30v220c0 22.056 17.944 40 40 40h280c22.056 0 40-17.944 40-40v-330-20l-70-20z" fill="#fbf3f3"/><path id="XMLID_18168_" d="m386 106h90l-90-90z" fill="#ece6f2"/><g id="XMLID_2243_"><g id="XMLID_1979_"><path id="XMLID_1981_" d="m256 106h-80c-5.523 0-10-4.477-10-10s4.477-10 10-10h80c5.523 0 10 4.477 10 10s-4.477 10-10 10z" fill="#d3cbe4"/></g></g><g id="XMLID_2238_"><g id="XMLID_1970_"><path id="XMLID_1971_" d="m336 146h-160c-5.523 0-10-4.477-10-10s4.477-10 10-10h160c5.522 0 10 4.477 10 10s-4.478 10-10 10z" fill="#d3cbe4"/></g></g><g id="XMLID_2233_"><g id="XMLID_1966_"><path id="XMLID_1968_" d="m336 186h-160c-5.523 0-10-4.477-10-10s4.477-10 10-10h160c5.522 0 10 4.477 10 10s-4.478 10-10 10z" fill="#d3cbe4"/></g></g><path id="XMLID_18164_" d="m391 236h-275l-80-30v165.667c0 29.959 24.374 54.333 54.334 54.333h300.667c19.299 0 35-15.701 35-35v-120c-.001-19.299-15.702-35-35.001-35z" fill="#ff415b"/><path id="XMLID_18163_" d="m116 236h-50c-16.569 0-30-13.431-30-30 0-16.569 13.431-30 30-30h50z" fill="#cc295f"/></g><g id="XMLID_2201_"><g id="XMLID_2117_"><g id="XMLID_2136_"><path id="XMLID_2137_" d="m206 386h-60c-7.968 0-12.749-8.905-8.32-15.547l49.635-74.453h-41.315c-5.523 0-10-4.478-10-10s4.477-10 10-10h60c3.688 0 7.077 2.03 8.817 5.281 1.74 3.252 1.549 7.197-.497 10.266l-49.635 74.453h41.315c5.523 0 10 4.478 10 10s-4.477 10-10 10z" fill="#fbf3f3"/></g><g id="XMLID_2132_"><path id="XMLID_2133_" d="m321 346h-35c-5.522 0-10-4.478-10-10v-50c0-5.522 4.478-10 10-10h35c19.299 0 35 15.701 35 35s-15.701 35-35 35zm-25-20h25c8.271 0 15-6.728 15-15s-6.729-15-15-15h-25z" fill="#fbf3f3"/></g><g id="XMLID_2130_"><path id="XMLID_2131_" d="m286 386c-5.522 0-10-4.478-10-10v-50c0-5.522 4.478-10 10-10s10 4.478 10 10v50c0 5.522-4.478 10-10 10z" fill="#fbf3f3"/></g><g id="XMLID_2128_"><path id="XMLID_2129_" d="m246 386c-5.523 0-10-4.478-10-10v-90c0-5.522 4.477-10 10-10s10 4.478 10 10v90c0 5.522-4.477 10-10 10z" fill="#fbf3f3"/></g></g></g></g></g></svg>