<?xml version="1.0" encoding="utf-8"?>
<!-- Generator: Adobe Illustrator 26.0.1, SVG Export Plug-In . SVG Version: 6.00 Build 0)  -->
<svg version="1.1" id="Layer_1" xmlns="http://www.w3.org/2000/svg" xmlns:xlink="http://www.w3.org/1999/xlink" x="0px" y="0px"
	 viewBox="0 0 250 98.04" style="enable-background:new 0 0 250 98.04;" xml:space="preserve">
<style type="text/css">
	.st0{fill:url(#SVGID_1_);}
	.st1{fill:url(#SVGID_00000060737575478065587130000007607967461543457433_);}
	.st2{fill:url(#SVGID_00000154404811441979993720000007030477715734155959_);}
	.st3{fill:#232323;}
	.st4{fill:url(#SVGID_00000066496888198980547680000012323635907425824136_);}
</style>
<g>
	<linearGradient id="SVGID_1_" gradientUnits="userSpaceOnUse" x1="3.926" y1="38.5774" x2="72.2371" y2="38.5774">
		<stop  offset="0" style="stop-color:#32BEEB"/>
		<stop  offset="0.0733" style="stop-color:#2DADDF"/>
		<stop  offset="0.2401" style="stop-color:#248DC7"/>
		<stop  offset="0.413" style="stop-color:#1D74B4"/>
		<stop  offset="0.5923" style="stop-color:#1862A7"/>
		<stop  offset="0.7821" style="stop-color:#15579F"/>
		<stop  offset="1" style="stop-color:#14549C"/>
	</linearGradient>
	<path class="st0" d="M21.8,36.52c3.87-3.34,7.75-6.68,11.61-10.03c4.24-3.67,8.48-7.35,12.71-11.04c0.36-0.32,0.7-0.54,1.22-0.53
		c8.16,0.02,16.31,0.01,24.47,0.01c0.08,0,0.17,0.03,0.41,0.07c-1.01,0.88-1.92,1.69-2.85,2.49C56.58,28.61,43.76,39.72,30.95,50.83
		c-3.4,2.95-6.76,5.93-10.21,8.81c-3.2,2.68-6.83,3.36-10.68,1.66C6.23,59.62,4.17,56.5,4,52.34c-0.16-3.69-0.01-7.39,0-11.08
		c0.39,0,0.39,0.34,0.48,0.57c1.72,4.04,6.25,4.18,8.46,2.12c2.52-2.34,5.21-4.48,7.78-6.75C21.05,36.91,21.34,36.58,21.8,36.52z"/>
	
		<linearGradient id="SVGID_00000095315603287928731570000005091401737262242451_" gradientUnits="userSpaceOnUse" x1="29.7266" y1="80.0775" x2="70.1952" y2="56.713">
		<stop  offset="0" style="stop-color:#32BEEB"/>
		<stop  offset="0.2176" style="stop-color:#2AA0D5"/>
		<stop  offset="0.5636" style="stop-color:#1E77B6"/>
		<stop  offset="0.8363" style="stop-color:#175DA3"/>
		<stop  offset="1" style="stop-color:#14549C"/>
	</linearGradient>
	<path style="fill:url(#SVGID_00000095315603287928731570000005091401737262242451_);" d="M21.7,66.18
		c5.22-4.56,10.16-9.05,15.31-13.28c2.74-2.25,6.18-2.92,9.72-2.82c4.09,0.11,7.67,1.54,10.76,4.23
		c7.31,6.35,14.62,12.69,21.93,19.04c0.26,0.22,0.51,0.45,0.77,0.68c-0.16,0.32-0.44,0.17-0.66,0.17c-8.03,0.01-16.07,0-24.1,0.01
		c-0.49,0-0.87-0.12-1.25-0.45c-1.74-1.55-3.53-3.03-5.26-4.59c-4.74-4.28-10.36-6.05-16.66-5.84
		C28.79,63.43,27.15,63.91,21.7,66.18z"/>
	
		<linearGradient id="SVGID_00000040562992177012138110000003660267786256496515_" gradientUnits="userSpaceOnUse" x1="-0.0359" y1="10.2385" x2="17.9797" y2="41.4424">
		<stop  offset="0" style="stop-color:#32BEEB"/>
		<stop  offset="0.0826" style="stop-color:#2EB1E1"/>
		<stop  offset="0.3621" style="stop-color:#2389C3"/>
		<stop  offset="0.6178" style="stop-color:#1B6CAE"/>
		<stop  offset="0.8388" style="stop-color:#165AA1"/>
		<stop  offset="1" style="stop-color:#14549C"/>
	</linearGradient>
	<path style="fill:url(#SVGID_00000040562992177012138110000003660267786256496515_);" d="M21.8,36.52
		c-3.05,2.66-6.03,5.4-9.17,7.94c-2.69,2.18-6.92,0.9-8.3-2.35C4.22,41.83,4.11,41.54,4,41.26c-0.01-0.4-0.04-0.81-0.04-1.21
		c0-10.37,0-20.74,0-31.11c0-0.27,0-0.54,0-1.01c1.73,1.49,3.31,2.85,4.89,4.21c4.08,3.53,8.15,7.07,12.25,10.58
		c0.49,0.42,0.7,0.84,0.69,1.5C21.77,28.33,21.79,32.42,21.8,36.52z"/>
	<g>
		<path class="st3" d="M120.46,71.3l2.04,3.06h-6.87l-2.08-2.84c-5.5-7.36-15.07-11.84-25.4-13.3l-0.31-0.04v16.18H81.4V43.68
			c0-3.55,2.88-6.43,6.43-6.43V53.3c2.04,0.09,4.12,0.4,6.16,0.84l2.22-0.8c8.25-3.01,15.38-7.27,21.46-14.36l1.46-1.73h3.37
			c0,0-8.07,12.32-24.34,18.04C107.38,58.44,115.98,64.69,120.46,71.3z"/>
		<path class="st3" d="M130.13,47.4v27h-6.43V53.83C123.7,50.28,126.58,47.4,130.13,47.4z"/>
		<path class="st3" d="M148.13,72.58v1.46h-4.79c-3.59,0-6.47-2.93-6.47-6.47V49.31h-3.99v-1.95h3.99v-7.14
			c3.55,0,6.43,2.88,6.43,6.43v0.71h3.19v1.95h-3.19v20.13c0,1.37,1.11,2.53,2.53,2.53h1.64C147.82,71.96,148.13,72.23,148.13,72.58
			z"/>
		<path class="st3" d="M180.27,66.64c0,6.43-8.73,7.76-14.72,7.76c-6.96,0-10.73-1.33-15.56-4.88l-0.18-3.06
			c3.72,4.74,10.24,6.21,16,6.21c3.06,0,8.6-1.06,8.6-4.61c0-7.27-25.27,1.6-25.27-13.65c0-6.03,10.86-7.05,16.09-7.05
			c7,0,11.97,2.39,14.98,5.63v2.97c-2.57-3.5-7-5.72-13.43-6.52c-3.02-0.35-11.26,0.22-11.26,3.77
			C155.53,63.01,180.27,52.99,180.27,66.64z"/>
		<path class="st3" d="M247.13,66.64c0,6.43-8.73,7.76-14.72,7.76c-6.96,0-10.73-1.33-15.56-4.88l-0.18-3.06
			c3.72,4.74,10.24,6.21,16,6.21c3.06,0,8.6-1.06,8.6-4.61c0-7.27-25.27,1.6-25.27-13.65c0-6.03,10.86-7.05,16.09-7.05
			c7,0,11.97,2.39,14.98,5.63v2.97c-2.57-3.5-7.01-5.72-13.43-6.52c-3.01-0.35-11.26,0.22-11.26,3.77
			C222.39,63.01,247.13,52.99,247.13,66.64z"/>
		<polygon class="st3" points="199.25,74.04 191.1,89.08 193.89,89.08 216.4,47.44 213.61,47.44 200.31,72 187.06,47.44 
			179.96,47.44 194.33,74.04 		"/>
	</g>
	
		<linearGradient id="SVGID_00000106860379548812985820000004237184098974871196_" gradientUnits="userSpaceOnUse" x1="151.3877" y1="476.1729" x2="158.792" y2="476.1729" gradientTransform="matrix(0.7071 -0.7071 0.7071 0.7071 -318.6371 -186.5773)">
		<stop  offset="0" style="stop-color:#32BEEB"/>
		<stop  offset="0.0733" style="stop-color:#2DADDF"/>
		<stop  offset="0.2401" style="stop-color:#248DC7"/>
		<stop  offset="0.413" style="stop-color:#1D74B4"/>
		<stop  offset="0.5923" style="stop-color:#1862A7"/>
		<stop  offset="0.7821" style="stop-color:#15579F"/>
		<stop  offset="1" style="stop-color:#14549C"/>
	</linearGradient>
	<polygon style="fill:url(#SVGID_00000106860379548812985820000004237184098974871196_);" points="132.97,40.46 127.73,45.7 
		122.5,40.46 127.73,35.23 	"/>
	<g>
		<g>
			<path class="st3" d="M7.62,88.95H5.93v-8.64h1.69V88.95z"/>
			<path class="st3" d="M15.33,88.95h-1.57v-3.99c0-0.42-0.11-0.74-0.32-0.95c-0.21-0.21-0.46-0.32-0.76-0.32
				c-0.41,0-0.76,0.16-1.07,0.49c-0.31,0.33-0.46,0.82-0.46,1.49v3.28H9.59v-6.39h1.43v1.48c0.5-1.08,1.2-1.61,2.1-1.61
				c0.61,0,1.13,0.18,1.56,0.53c0.43,0.35,0.65,0.98,0.65,1.87V88.95z"/>
			<path class="st3" d="M18.96,88.95h-1.51v-5.27h-1.03v-1.12h1.03v-0.32c0-0.62,0.16-1.13,0.49-1.51c0.33-0.38,1-0.57,2-0.57
				c0.15,0,0.33,0,0.56,0.01v1.13c-0.2-0.01-0.33-0.02-0.41-0.02c-0.38,0-0.65,0.05-0.81,0.14c-0.16,0.1-0.25,0.21-0.28,0.34
				s-0.04,0.39-0.04,0.79h1.54v1.12h-1.54V88.95z"/>
			<path class="st3" d="M24.37,89.08c-1.03,0-1.81-0.34-2.35-1.02s-0.81-1.46-0.81-2.33c0-0.94,0.3-1.73,0.9-2.36
				c0.6-0.63,1.39-0.94,2.37-0.94c0.93,0,1.69,0.31,2.29,0.92s0.9,1.41,0.9,2.38c0,1.01-0.31,1.82-0.93,2.43
				C26.11,88.77,25.32,89.08,24.37,89.08z M24.42,87.89c1.05,0,1.58-0.72,1.58-2.17c0-0.65-0.13-1.17-0.38-1.55
				c-0.25-0.38-0.64-0.57-1.16-0.57c-0.54,0-0.94,0.2-1.2,0.58c-0.26,0.39-0.39,0.91-0.39,1.55c0,0.7,0.14,1.23,0.42,1.59
				C23.56,87.71,23.94,87.89,24.42,87.89z"/>
			<path class="st3" d="M30.66,88.95h-1.57v-6.39h1.42v1.53c0.2-0.59,0.48-1.03,0.83-1.3c0.35-0.27,0.71-0.41,1.09-0.41
				c0.05,0,0.12,0,0.21,0.01v1.55c-0.8,0-1.32,0.23-1.58,0.7s-0.39,0.92-0.39,1.36V88.95z"/>
			<path class="st3" d="M44.12,88.95h-1.64v-3.98c0-0.83-0.4-1.24-1.2-1.24c-0.46,0-0.83,0.16-1.11,0.47
				c-0.28,0.31-0.42,0.78-0.42,1.4v3.35h-1.66v-3.98c0-0.84-0.37-1.26-1.12-1.26c-0.45,0-0.83,0.17-1.14,0.51
				c-0.31,0.34-0.46,0.8-0.46,1.38v3.35h-1.61v-6.39h1.52v1.36c0.49-1,1.27-1.49,2.32-1.49c1.02,0,1.69,0.5,1.99,1.49
				c0.56-1,1.33-1.49,2.31-1.49c0.67,0,1.21,0.19,1.61,0.58c0.41,0.38,0.61,0.86,0.61,1.43V88.95z"/>
			<path class="st3" d="M51.93,88.95h-1.49c-0.13-0.39-0.21-0.82-0.24-1.29c-0.42,0.95-1.2,1.42-2.35,1.42
				c-0.69,0-1.25-0.19-1.67-0.56c-0.42-0.37-0.63-0.84-0.63-1.41c0-1.47,1.4-2.2,4.2-2.2c0.11,0,0.26,0,0.45,0.01v-0.48
				c0-0.66-0.49-0.99-1.47-0.99c-0.95,0-1.49,0.33-1.62,0.99l-1.33-0.18c0.07-0.53,0.37-0.97,0.89-1.31
				c0.52-0.34,1.28-0.52,2.27-0.52c0.54,0,0.97,0.04,1.31,0.12s0.62,0.22,0.86,0.42c0.23,0.2,0.4,0.41,0.48,0.64
				c0.09,0.23,0.13,0.62,0.13,1.17v2.88C51.73,88.08,51.8,88.5,51.93,88.95z M50.2,85.7c-2.02,0-3.04,0.45-3.04,1.33
				c0,0.27,0.1,0.49,0.31,0.68c0.2,0.19,0.51,0.28,0.92,0.28c0.6,0,1.05-0.17,1.35-0.52c0.3-0.35,0.46-0.74,0.46-1.19V85.7z"/>
			<path class="st3" d="M56.82,87.82v1.13c-0.47,0.09-0.83,0.14-1.08,0.14c-0.42,0-0.78-0.08-1.09-0.23s-0.52-0.36-0.66-0.63
				c-0.14-0.27-0.21-0.68-0.21-1.24v-3.31h-0.87v-1.12h0.96l0.14-1.66l1.28-0.11v1.77h1.39v1.12h-1.39v3.12
				c0,0.4,0.08,0.67,0.24,0.82c0.16,0.15,0.46,0.22,0.9,0.22C56.55,87.83,56.68,87.83,56.82,87.82z"/>
			<path class="st3" d="M59.7,81.81h-1.57v-1.5h1.57V81.81z M59.7,88.95h-1.57v-6.39h1.57V88.95z"/>
			<path class="st3" d="M64.29,89.08c-1.03,0-1.81-0.34-2.35-1.02s-0.81-1.46-0.81-2.33c0-0.94,0.3-1.73,0.9-2.36
				c0.6-0.63,1.39-0.94,2.37-0.94c0.93,0,1.69,0.31,2.29,0.92s0.9,1.41,0.9,2.38c0,1.01-0.31,1.82-0.93,2.43
				C66.03,88.77,65.25,89.08,64.29,89.08z M64.35,87.89c1.05,0,1.58-0.72,1.58-2.17c0-0.65-0.13-1.17-0.38-1.55
				c-0.25-0.38-0.64-0.57-1.16-0.57c-0.54,0-0.94,0.2-1.2,0.58c-0.26,0.39-0.39,0.91-0.39,1.55c0,0.7,0.14,1.23,0.42,1.59
				C63.49,87.71,63.87,87.89,64.35,87.89z"/>
			<path class="st3" d="M74.76,88.95H73.2v-3.99c0-0.42-0.11-0.74-0.32-0.95c-0.21-0.21-0.46-0.32-0.76-0.32
				c-0.41,0-0.76,0.16-1.07,0.49c-0.31,0.33-0.46,0.82-0.46,1.49v3.28h-1.57v-6.39h1.43v1.48c0.5-1.08,1.2-1.61,2.1-1.61
				c0.61,0,1.13,0.18,1.56,0.53c0.43,0.35,0.65,0.98,0.65,1.87V88.95z"/>
			<path class="st3" d="M83.52,88.95h-1.81v-7.3h-2.49v-1.33h6.8v1.33h-2.49V88.95z"/>
			<path class="st3" d="M91.36,86.91l1.42,0.18c-0.18,0.58-0.54,1.05-1.07,1.43c-0.53,0.38-1.2,0.56-2,0.56
				c-0.96,0-1.74-0.3-2.32-0.89c-0.59-0.59-0.88-1.4-0.88-2.42c0-0.97,0.3-1.77,0.89-2.4s1.39-0.95,2.4-0.95
				c0.99,0,1.75,0.31,2.29,0.94c0.54,0.62,0.81,1.43,0.81,2.4l-0.01,0.17h-4.76c0,0.43,0.04,0.78,0.13,1.04
				c0.09,0.26,0.27,0.49,0.53,0.68c0.27,0.19,0.6,0.29,1,0.29C90.57,87.95,91.09,87.6,91.36,86.91z M91.27,85
				c0-0.46-0.15-0.83-0.45-1.13s-0.66-0.44-1.1-0.44c-0.43,0-0.79,0.14-1.08,0.41c-0.29,0.27-0.46,0.66-0.51,1.15H91.27z"/>
			<path class="st3" d="M98.34,86.6l1.35,0.13c-0.17,0.8-0.51,1.39-1.01,1.78c-0.5,0.38-1.1,0.58-1.81,0.58
				c-0.96,0-1.69-0.32-2.21-0.96c-0.52-0.64-0.77-1.43-0.77-2.36c0-0.96,0.28-1.76,0.84-2.38c0.56-0.63,1.31-0.94,2.25-0.94
				c1.51,0,2.41,0.73,2.7,2.2l-1.35,0.17c-0.12-0.79-0.54-1.19-1.27-1.19c-0.53,0-0.92,0.21-1.16,0.64
				c-0.24,0.43-0.36,0.95-0.36,1.55c0,0.65,0.12,1.14,0.37,1.49c0.25,0.35,0.6,0.53,1.05,0.53C97.66,87.82,98.11,87.41,98.34,86.6z"
				/>
			<path class="st3" d="M106.63,88.95h-1.57v-4.18c0-0.45-0.1-0.77-0.31-0.95c-0.21-0.18-0.45-0.27-0.73-0.27
				c-0.44,0-0.82,0.16-1.12,0.49c-0.3,0.32-0.45,0.86-0.45,1.61v3.32h-1.57v-8.64h1.57v3.37c0.39-0.92,1.07-1.38,2.05-1.38
				c1.42,0,2.14,0.75,2.14,2.26V88.95z"/>
			<path class="st3" d="M114.25,88.95h-1.57v-3.99c0-0.42-0.11-0.74-0.32-0.95c-0.21-0.21-0.46-0.32-0.76-0.32
				c-0.41,0-0.76,0.16-1.07,0.49c-0.31,0.33-0.46,0.82-0.46,1.49v3.28h-1.57v-6.39h1.43v1.48c0.5-1.08,1.2-1.61,2.1-1.61
				c0.61,0,1.13,0.18,1.56,0.53c0.43,0.35,0.65,0.98,0.65,1.87V88.95z"/>
			<path class="st3" d="M118.84,89.08c-1.03,0-1.81-0.34-2.35-1.02s-0.81-1.46-0.81-2.33c0-0.94,0.3-1.73,0.9-2.36
				c0.6-0.63,1.39-0.94,2.37-0.94c0.93,0,1.69,0.31,2.29,0.92s0.9,1.41,0.9,2.38c0,1.01-0.31,1.82-0.93,2.43
				C120.58,88.77,119.79,89.08,118.84,89.08z M118.9,87.89c1.05,0,1.58-0.72,1.58-2.17c0-0.65-0.13-1.17-0.38-1.55
				c-0.25-0.38-0.64-0.57-1.16-0.57c-0.54,0-0.94,0.2-1.2,0.58c-0.26,0.39-0.39,0.91-0.39,1.55c0,0.7,0.14,1.23,0.42,1.59
				C118.04,87.71,118.42,87.89,118.9,87.89z"/>
			<path class="st3" d="M125.13,88.95h-1.57v-8.64h1.57V88.95z"/>
			<path class="st3" d="M129.72,89.08c-1.03,0-1.81-0.34-2.35-1.02s-0.81-1.46-0.81-2.33c0-0.94,0.3-1.73,0.9-2.36
				c0.6-0.63,1.39-0.94,2.37-0.94c0.93,0,1.69,0.31,2.29,0.92s0.9,1.41,0.9,2.38c0,1.01-0.31,1.82-0.93,2.43
				C131.46,88.77,130.68,89.08,129.72,89.08z M129.78,87.89c1.05,0,1.58-0.72,1.58-2.17c0-0.65-0.12-1.17-0.38-1.55
				c-0.25-0.38-0.64-0.57-1.16-0.57c-0.54,0-0.94,0.2-1.2,0.58c-0.26,0.39-0.39,0.91-0.39,1.55c0,0.7,0.14,1.23,0.42,1.59
				C128.92,87.71,129.3,87.89,129.78,87.89z"/>
			<path class="st3" d="M140.78,81.34v1.11h-0.48c-0.21,0-0.4,0.02-0.55,0.07c-0.16,0.05-0.31,0.2-0.46,0.45
				c0.55,0.41,0.82,0.87,0.82,1.38c0,0.57-0.26,1.03-0.77,1.41c-0.52,0.37-1.2,0.56-2.04,0.56c-0.37,0-0.79-0.05-1.29-0.17
				c-0.32,0.14-0.48,0.34-0.48,0.63c0,0.16,0.08,0.3,0.23,0.43c0.16,0.13,0.39,0.2,0.71,0.2h2.06c0.71,0,1.26,0.17,1.66,0.5
				c0.4,0.34,0.6,0.75,0.6,1.25c0,0.6-0.3,1.1-0.91,1.5c-0.61,0.4-1.5,0.59-2.7,0.59c-2.24,0-3.36-0.58-3.36-1.73
				c0-0.57,0.34-1,1.01-1.3c-0.43-0.34-0.65-0.69-0.65-1.06c0-0.56,0.37-1,1.11-1.33c-0.64-0.36-0.96-0.85-0.96-1.48
				c0-0.53,0.24-0.99,0.71-1.36s1.19-0.56,2.15-0.56c0.44,0,0.89,0.04,1.34,0.13c0.21-0.81,0.77-1.22,1.67-1.22H140.78z M135.5,88.6
				c-0.22,0.19-0.34,0.37-0.34,0.55c0,0.29,0.19,0.55,0.56,0.77c0.38,0.22,0.97,0.33,1.79,0.33c1.2,0,1.81-0.29,1.81-0.85
				c0-0.21-0.11-0.37-0.32-0.48c-0.21-0.11-0.45-0.16-0.72-0.16h-1.66C136.31,88.76,135.94,88.71,135.5,88.6z M137.22,85.45
				c0.85,0,1.28-0.37,1.28-1.11c0-0.28-0.11-0.52-0.32-0.71c-0.21-0.19-0.52-0.29-0.93-0.29c-0.41,0-0.73,0.1-0.96,0.3
				c-0.23,0.2-0.34,0.46-0.34,0.76c0,0.31,0.11,0.57,0.34,0.76C136.51,85.35,136.82,85.45,137.22,85.45z"/>
			<path class="st3" d="M146.92,82.56l-2.7,7.28c-0.17,0.45-0.39,0.79-0.68,1.04c-0.29,0.25-0.69,0.37-1.21,0.37
				c-0.21,0-0.51-0.01-0.9-0.04v-1.14l0.75,0.01c0.33,0,0.57-0.05,0.73-0.15c0.16-0.1,0.28-0.27,0.37-0.53
				c0.09-0.25,0.14-0.4,0.14-0.44c0-0.03-0.05-0.16-0.14-0.39l-2.38-6h1.64l1.68,4.21l1.45-4.21H146.92z"/>
			<path class="st3" d="M156.8,85.95l1.57,0.16c-0.1,0.87-0.46,1.58-1.09,2.14c-0.62,0.56-1.45,0.84-2.46,0.84
				c-0.86,0-1.55-0.2-2.08-0.59c-0.53-0.4-0.94-0.93-1.23-1.61c-0.29-0.68-0.43-1.43-0.43-2.25c0-1.32,0.34-2.39,1.02-3.21
				c0.68-0.82,1.61-1.24,2.8-1.24c0.93,0,1.7,0.26,2.32,0.79s1.01,1.28,1.17,2.27l-1.57,0.15c-0.29-1.3-0.92-1.96-1.91-1.96
				c-0.63,0-1.12,0.27-1.47,0.81s-0.53,1.33-0.53,2.36c0,1.05,0.19,1.84,0.56,2.37c0.38,0.53,0.87,0.8,1.49,0.8
				c0.49,0,0.92-0.18,1.26-0.54C156.56,86.87,156.76,86.45,156.8,85.95z"/>
			<path class="st3" d="M162.33,89.08c-1.03,0-1.81-0.34-2.35-1.02c-0.54-0.68-0.81-1.46-0.81-2.33c0-0.94,0.3-1.73,0.9-2.36
				c0.6-0.63,1.39-0.94,2.37-0.94c0.93,0,1.69,0.31,2.29,0.92s0.9,1.41,0.9,2.38c0,1.01-0.31,1.82-0.93,2.43
				C164.07,88.77,163.29,89.08,162.33,89.08z M162.39,87.89c1.05,0,1.58-0.72,1.58-2.17c0-0.65-0.13-1.17-0.38-1.55
				c-0.25-0.38-0.64-0.57-1.16-0.57c-0.54,0-0.94,0.2-1.2,0.58c-0.26,0.39-0.39,0.91-0.39,1.55c0,0.7,0.14,1.23,0.42,1.59
				C161.53,87.71,161.91,87.89,162.39,87.89z"/>
			<path class="st3" d="M176.44,88.95h-5.77v-8.64h1.78v7.22h3.99V88.95z"/>
			<path class="st3" d="M180.8,87.82v1.13c-0.47,0.09-0.83,0.14-1.09,0.14c-0.42,0-0.78-0.08-1.08-0.23
				c-0.3-0.15-0.52-0.36-0.66-0.63c-0.14-0.27-0.21-0.68-0.21-1.24v-3.31h-0.87v-1.12h0.96l0.14-1.66l1.28-0.11v1.77h1.39v1.12
				h-1.39v3.12c0,0.4,0.08,0.67,0.24,0.82s0.46,0.22,0.9,0.22C180.54,87.83,180.67,87.83,180.8,87.82z"/>
			<path class="st3" d="M187.82,88.95h-1.46v-1.29c-0.4,0.95-1.09,1.42-2.05,1.42c-0.85,0-1.5-0.33-1.96-0.98
				c-0.45-0.65-0.68-1.47-0.68-2.44c0-0.9,0.24-1.69,0.71-2.36s1.14-1.01,2.01-1.01c0.89,0,1.51,0.38,1.86,1.13v-3.11h1.57V88.95z
				 M186.26,85.18c0-0.52-0.13-0.92-0.4-1.21c-0.27-0.29-0.62-0.43-1.04-0.43c-0.46,0-0.82,0.19-1.08,0.56
				c-0.26,0.37-0.39,0.93-0.39,1.66c0,1.43,0.49,2.14,1.46,2.14c0.38,0,0.72-0.15,1.02-0.46c0.29-0.31,0.44-0.7,0.44-1.17V85.18z"/>
		</g>
	</g>
</g>
</svg>
